<?xml version="1.0" standalone="no"?>
<!DOCTYPE svg PUBLIC "-//W3C//DTD SVG 20010904//EN"
 "http://www.w3.org/TR/2001/REC-SVG-20010904/DTD/svg10.dtd">
<svg version="1.0" xmlns="http://www.w3.org/2000/svg"
 width="300.000000pt" height="400.000000pt" viewBox="0 0 300.000000 400.000000"
 preserveAspectRatio="xMidYMid meet">
<metadata>
Created by potrace 1.10, written by Peter Selinger 2001-2011
</metadata>
<g transform="translate(0.000000,400.000000) scale(0.100000,-0.100000)"
fill="#000000" stroke="none">
<path d="M1335 2950 c-108 -16 -212 -68 -298 -149 -38 -35 -73 -89 -69 -104 1
-4 -4 -20 -13 -36 -13 -26 -12 -33 7 -80 23 -53 37 -65 39 -31 1 11 2 23 3 28
4 15 39 78 54 95 30 34 -1 16 -34 -20 -28 -30 -34 -33 -34 -17 0 38 22 95 41
107 10 6 19 18 19 25 0 7 11 17 25 24 13 6 22 15 19 19 -5 8 10 13 29 10 5 -1
6 2 3 7 -3 5 19 21 49 37 47 23 71 30 130 35 6 0 3 5 -5 10 -10 6 4 9 45 9 33
1 74 2 90 3 33 3 204 -10 248 -18 15 -3 25 -9 23 -12 -2 -4 8 -16 22 -26 25
-19 25 -19 20 2 -4 12 -2 22 3 22 5 0 9 -9 9 -21 0 -11 4 -17 10 -14 6 3 9 -4
8 -17 -1 -13 16 -49 39 -83 25 -38 48 -89 62 -138 25 -93 26 -107 5 -107 -9 0
-23 -9 -32 -19 -16 -19 -27 -19 -284 -11 -148 4 -278 6 -290 2 -16 -4 -19 -2
-13 9 6 11 5 12 -6 2 -7 -7 -22 -13 -32 -13 -30 0 -117 -43 -117 -58 0 -7 -4
-10 -10 -7 -5 3 -10 -3 -10 -14 0 -11 -11 -28 -25 -37 -14 -9 -25 -24 -23 -33
4 -29 -22 -63 -43 -58 -17 4 -18 3 -8 -9 10 -12 5 -14 -29 -14 -23 0 -43 -5
-45 -12 -3 -7 -6 -3 -6 10 -1 25 35 66 49 57 6 -4 10 -1 10 6 0 7 11 10 29 7
17 -2 28 0 25 4 -3 5 0 15 6 24 10 12 7 16 -19 25 -17 6 -28 16 -24 22 3 5 7
22 9 36 1 14 5 41 9 59 4 22 2 32 -6 32 -7 0 -10 -3 -7 -6 4 -3 -2 -37 -13
-75 -10 -38 -19 -76 -19 -85 0 -10 -18 -33 -41 -52 -37 -32 -41 -39 -35 -70 3
-19 19 -63 36 -99 27 -60 32 -65 56 -60 17 3 33 -2 44 -13 10 -10 23 -19 29
-21 6 -2 15 -29 20 -59 6 -33 28 -92 55 -143 25 -48 46 -94 46 -103 0 -8 13
-29 29 -45 24 -23 38 -29 73 -29 24 1 61 7 83 15 52 19 52 19 59 -10 6 -22 66
-66 66 -48 0 5 8 -1 18 -13 9 -11 32 -31 50 -43 17 -12 32 -27 32 -32 0 -6 -4
-7 -10 -4 -5 3 -10 1 -10 -5 0 -6 -4 -9 -10 -5 -12 8 -38 -45 -32 -69 2 -11 0
-16 -7 -12 -7 5 -9 1 -5 -8 3 -9 2 -16 -2 -16 -5 0 -21 26 -37 58 -27 56 -36
98 -18 88 11 -7 36 22 27 31 -3 3 -14 -1 -23 -9 -10 -9 -28 -19 -40 -22 -13
-4 -23 -12 -23 -17 0 -6 5 -7 10 -4 17 11 32 -5 19 -21 -9 -11 -9 -14 1 -14 9
0 10 -4 2 -13 -8 -10 -6 -22 9 -47 16 -26 23 -30 30 -19 10 16 11 10 9 -53 -1
-28 3 -48 9 -48 6 0 8 7 4 16 -5 14 -3 14 16 3 11 -8 21 -21 22 -29 0 -8 5 -2
10 15 7 24 5 34 -12 51 -17 19 -18 22 -4 34 8 7 29 37 46 66 17 30 33 54 37
54 3 0 16 -10 29 -22 13 -12 31 -23 41 -24 16 -3 16 -2 0 10 -10 7 -18 19 -18
26 0 10 3 10 15 0 8 -7 15 -8 15 -4 0 14 -38 34 -52 29 -7 -3 -18 5 -23 17 -6
13 -18 22 -27 22 -10 -1 -20 7 -23 17 -4 11 -14 19 -23 19 -24 0 -96 66 -88
79 4 6 28 23 54 38 58 34 80 52 94 77 10 18 9 18 -21 0 -17 -10 -42 -28 -55
-41 -14 -13 -28 -23 -32 -23 -4 0 -16 -8 -26 -17 -12 -11 -36 -16 -68 -16 -28
0 -50 -5 -50 -11 0 -6 -5 -5 -12 2 -14 14 -42 16 -33 2 3 -5 3 -10 -2 -11 -4
0 -19 -3 -33 -5 -19 -4 -22 -2 -12 8 14 14 16 48 2 48 -5 0 -7 -6 -4 -14 4
-10 -2 -12 -20 -9 -14 3 -26 8 -27 12 0 3 -3 18 -5 33 -5 31 9 43 49 40 17 -2
26 2 22 8 -3 5 -21 10 -38 10 -30 1 -31 1 -13 15 11 8 17 18 13 21 -4 4 -12 2
-19 -3 -18 -15 -78 -4 -78 13 0 8 -4 14 -10 14 -5 0 -10 4 -10 8 0 7 73 32
114 38 104 16 106 17 96 29 -6 7 -19 12 -28 10 -9 -2 -38 -4 -64 -4 -27 -1
-53 -7 -62 -16 -8 -8 -23 -15 -33 -15 -15 0 -16 2 -3 10 21 13 5 23 -19 11
-11 -7 -22 -7 -25 -2 -9 13 4 42 16 35 5 -3 9 0 7 7 -3 29 2 37 29 44 15 3 37
13 50 21 27 18 31 39 4 25 -10 -5 -38 -8 -62 -6 -32 2 -48 -2 -56 -13 -11 -15
-14 -15 -34 3 -19 17 -21 27 -16 70 4 41 3 46 -6 30 -7 -11 -14 -36 -18 -55
-8 -51 -33 -50 -58 2 -12 24 -24 56 -28 72 l-7 29 62 -5 62 -4 19 43 c10 24
21 43 23 43 2 0 21 -28 42 -62 60 -99 101 -138 147 -138 44 0 94 40 84 66 -3
9 -6 20 -6 25 0 6 -5 7 -10 4 -6 -4 -9 -19 -8 -33 3 -25 -1 -28 -45 -36 -42
-8 -50 -7 -72 14 l-24 23 66 22 c88 30 105 52 97 126 l-6 57 29 -4 c15 -2 22
-1 15 2 -10 5 -9 9 5 19 16 12 14 14 -24 21 -45 7 -51 12 -31 32 9 9 9 12 0
12 -7 0 -12 5 -12 11 0 8 4 8 14 0 8 -6 67 -13 142 -15 71 -2 137 -7 146 -11
9 -4 24 -3 32 2 9 5 44 6 78 3 51 -5 69 -3 93 12 41 25 71 23 102 -8 l26 -26
-7 58 c-9 72 -13 99 -15 99 -3 0 -7 18 -16 60 -3 17 -10 34 -15 39 -5 5 -6 23
-3 39 5 24 3 29 -8 25 -19 -7 -43 12 -47 37 -2 11 -10 27 -17 35 -7 8 -17 28
-20 43 -9 35 -61 68 -130 85 -61 14 -271 21 -340 12z m-59 -498 c13 -8 34 -46
34 -61 0 -6 -13 -11 -29 -11 -20 0 -35 -8 -45 -22 -9 -12 -16 -18 -16 -13 0 5
-5 4 -12 -3 -7 -7 -17 -8 -30 -1 -14 7 -18 6 -18 -6 0 -8 8 -16 18 -16 9 -1
22 -2 27 -4 6 -1 16 -3 23 -3 7 -1 10 -6 7 -12 -3 -5 -3 -10 2 -10 4 0 19 -3
33 -7 l25 -6 -27 26 c-28 26 -36 51 -19 62 5 3 13 -4 16 -16 5 -16 12 -19 31
-15 25 7 25 5 22 -46 -3 -50 -5 -54 -43 -75 -23 -13 -53 -22 -70 -21 -25 3
-32 10 -45 45 -8 23 -26 53 -40 68 -20 21 -22 30 -14 52 10 30 72 78 119 92
39 12 38 12 51 3z"/>
<path d="M1168 2277 c13 -16 98 -35 108 -24 3 3 -14 9 -38 15 -24 5 -52 13
-63 18 -18 7 -18 6 -7 -9z"/>
<path d="M1217 2853 c18 -2 50 -2 70 0 21 2 7 4 -32 4 -38 0 -55 -2 -38 -4z"/>
<path d="M1235 2780 c-4 -6 -11 -7 -17 -4 -7 4 -8 2 -4 -5 4 -7 -2 -15 -16
-20 -13 -6 -16 -10 -8 -11 13 0 13 -1 0 -10 -8 -5 -15 -14 -15 -20 0 -6 -13
-19 -28 -29 -16 -10 -35 -31 -43 -47 l-14 -29 28 30 c15 17 40 39 55 48 15 10
25 22 22 26 -7 12 47 33 76 30 41 -4 89 12 89 30 0 14 -2 14 -10 1 -9 -13 -11
-13 -20 0 -9 13 -11 13 -20 0 -6 -9 -10 -10 -10 -3 0 8 -9 9 -32 2 -43 -12
-47 -11 -24 6 11 8 15 15 9 15 -7 0 -15 -5 -18 -10z"/>
<path d="M1365 2716 c-4 -24 -5 -52 -2 -62 3 -11 6 -5 7 16 2 32 3 33 10 10 5
-18 7 -11 6 27 -1 64 -12 69 -21 9z"/>
<path d="M1532 2695 c-14 -17 -22 -21 -25 -13 -3 7 -6 2 -6 -12 -1 -20 -3 -22
-11 -10 -11 17 -13 6 -4 -27 7 -27 24 -32 18 -5 -2 9 9 32 26 51 16 18 30 35
30 37 0 10 -10 2 -28 -21z"/>
<path d="M1459 2598 c-4 -15 -2 -25 2 -22 5 3 9 -2 9 -10 0 -8 4 -17 9 -20 5
-3 9 5 9 19 0 14 -4 22 -9 20 -4 -3 -9 5 -11 17 -3 21 -4 21 -9 -4z"/>
<path d="M1830 2420 c-21 -21 -27 -60 -11 -60 6 0 16 12 23 28 24 50 88 21 88
-40 0 -30 -43 -108 -60 -108 -6 0 -10 -5 -10 -10 0 -17 29 3 52 36 l20 29 -8
-30 c-10 -33 -10 -138 -2 -199 7 -51 -10 -96 -37 -96 -24 0 -59 -23 -61 -39
-3 -24 -5 -25 -13 -12 -8 12 -12 13 -25 2 -13 -11 -14 -16 -4 -29 11 -13 10
-15 -4 -9 -14 5 -17 1 -16 -18 1 -14 5 -25 8 -25 3 0 27 25 53 55 27 30 53 55
58 55 5 0 28 -20 51 -45 24 -26 51 -45 62 -45 l21 1 -21 17 c-11 10 -29 30
-39 45 -10 15 -24 26 -31 23 -18 -7 -26 5 -13 21 6 7 23 13 37 13 14 0 23 -3
19 -6 -11 -12 31 -80 57 -92 32 -14 33 -8 2 21 -25 23 -52 87 -36 87 5 0 12
-11 16 -25 4 -14 9 -24 12 -21 2 3 -1 19 -8 36 -10 24 -15 28 -27 19 -19 -17
-23 -9 -36 68 -13 84 -12 214 3 269 11 39 10 44 -16 73 -32 37 -74 41 -104 11z"/>
<path d="M1410 2359 c-28 -34 -49 -64 -46 -66 3 -3 29 15 58 40 29 24 68 52
86 61 17 9 32 18 32 19 0 8 -46 2 -52 -7 -5 -7 -8 -7 -8 2 0 25 -20 11 -70
-49z"/>
<path d="M1700 2393 c0 -7 -4 -13 -10 -13 -5 0 -10 5 -10 12 0 6 -2 9 -5 6 -3
-3 0 -18 6 -34 7 -16 13 -35 15 -42 5 -28 14 -24 14 6 0 17 4 41 9 55 7 18 6
24 -5 24 -8 0 -14 -6 -14 -14z"/>
<path d="M1780 2353 c0 -7 5 -24 12 -37 9 -21 8 -32 -7 -59 -10 -19 -15 -40
-12 -48 4 -10 6 -9 6 4 1 9 6 17 11 17 6 0 9 5 8 12 -2 7 2 12 7 13 6 0 16 4
23 9 10 6 9 11 -5 21 -28 21 -8 29 27 12 27 -14 32 -14 37 -1 3 8 0 21 -7 29
-15 18 -70 20 -70 3 -1 -7 -7 -2 -15 12 -8 14 -14 20 -15 13z"/>
<path d="M1845 2159 c-16 -10 -42 -19 -56 -19 -24 0 -26 -4 -24 -32 3 -46 64
-89 86 -61 12 15 11 16 -7 11 -23 -6 -32 -2 -52 24 -11 14 -7 19 31 38 24 12
49 30 55 41 15 24 6 23 -33 -2z"/>
<path d="M2024 2024 c-16 -7 39 -119 62 -128 12 -5 14 -10 8 -14 -6 -4 -14
-14 -17 -22 -4 -12 -6 -11 -6 2 -1 15 -10 12 -48 -17 -93 -69 -150 -121 -189
-173 -86 -117 -117 -157 -128 -167 -21 -19 -93 -120 -111 -154 -12 -24 -20
-30 -28 -22 -14 14 -27 14 -27 0 0 -5 4 -8 9 -4 15 9 20 -9 8 -26 -14 -17 -54
-23 -62 -8 -4 5 -11 9 -17 9 -7 0 -6 -5 2 -15 9 -11 9 -27 0 -72 -11 -53 -11
-58 8 -74 12 -9 18 -19 15 -23 -4 -3 -1 -6 5 -6 7 0 12 -4 12 -10 0 -5 -7 -7
-15 -4 -8 4 -15 2 -15 -4 0 -20 30 -21 41 -1 11 21 9 23 -43 59 -4 3 3 27 16
53 12 26 26 44 30 40 4 -4 9 3 13 15 3 12 11 22 17 22 6 0 29 30 51 67 41 69
171 208 202 216 17 4 17 5 1 6 -10 0 -18 6 -18 12 0 7 9 9 24 5 18 -4 28 0 40
19 16 24 23 60 8 40 -4 -5 -16 -17 -26 -25 -19 -15 -19 -14 -2 13 10 15 19 27
20 27 0 0 16 -4 34 -9 18 -6 30 -6 27 -2 -2 5 4 16 15 26 11 10 20 28 20 39
-1 19 -2 19 -11 4 -5 -10 -17 -18 -24 -18 -8 0 -15 -4 -15 -8 0 -5 -7 -9 -15
-9 -12 0 -12 3 -2 16 25 33 42 40 81 34 26 -4 41 -2 46 7 11 18 1 40 -16 33
-8 -3 -11 -9 -8 -14 3 -5 10 -6 16 -3 7 4 8 2 4 -4 -11 -17 -33 -15 -40 5 -6
15 8 32 27 33 5 0 5 5 1 12 -4 6 -3 8 4 5 14 -9 43 3 36 14 -3 6 5 7 21 3 15
-4 25 -2 23 3 -2 6 7 19 20 29 l23 19 -29 54 c-19 34 -32 48 -36 40 -3 -8 -3
-4 0 9 3 13 0 29 -6 37 -13 16 -17 17 -36 9z"/>
<path d="M1710 1965 c-9 -10 -9 -15 -1 -15 6 0 1 -11 -11 -25 -11 -13 -25 -22
-29 -19 -4 2 -6 -5 -4 -17 4 -17 2 -19 -10 -9 -12 10 -15 9 -15 -3 0 -8 -4
-17 -9 -19 -6 -1 -12 -16 -15 -31 -3 -16 -14 -44 -25 -63 -33 -55 -5 -39 32
19 19 28 42 59 52 67 29 24 74 100 68 116 -7 18 -17 18 -33 -1z"/>
<path d="M1702 1828 c-17 -17 -15 -26 10 -39 18 -9 24 -8 34 6 13 18 39 11 28
-7 -4 -6 -3 -8 3 -5 5 3 10 0 10 -7 0 -8 -7 -12 -16 -9 -9 3 0 -6 19 -19 32
-24 64 -26 76 -7 3 5 -3 6 -12 2 -11 -4 -15 -2 -12 8 3 8 -18 28 -51 51 -61
41 -71 44 -89 26z"/>
<path d="M2077 1805 c-46 -16 -51 -20 -42 -35 8 -14 46 -3 63 18 7 9 12 11 12
4 0 -7 7 -12 15 -12 9 0 41 -24 72 -54 32 -30 59 -53 61 -51 9 9 -102 125
-119 125 -9 0 -19 4 -21 9 -2 5 -20 4 -41 -4z"/>
<path d="M1666 1773 c-13 -13 -16 -13 -10 -3 7 13 6 13 -9 1 -18 -14 -24 -37
-8 -27 5 4 11 2 13 -3 1 -5 34 -30 71 -55 38 -26 66 -42 62 -37 -3 6 -1 11 4
11 6 0 11 9 11 20 0 11 -6 20 -13 20 -7 0 -20 9 -30 20 -9 11 -22 20 -29 20
-6 0 -2 -9 11 -21 12 -12 20 -23 17 -26 -3 -3 -12 2 -21 11 -9 9 -21 14 -26
11 -12 -8 -11 12 2 37 9 16 8 23 -2 29 -19 12 -22 11 -43 -8z"/>
<path d="M2035 1730 c3 -6 -4 -10 -17 -10 -13 0 -30 -5 -38 -11 -12 -8 -11 -9
5 -5 40 11 106 16 101 7 -6 -8 36 -31 57 -31 6 0 36 -12 65 -27 37 -19 49 -29
40 -35 -9 -6 -6 -7 9 -3 15 4 26 -1 37 -17 9 -13 20 -21 24 -18 3 3 8 -3 10
-12 4 -20 -14 -25 -21 -5 -3 9 -7 9 -17 0 -10 -9 -5 -15 25 -28 21 -8 58 -32
82 -51 40 -32 42 -37 27 -49 -12 -8 -14 -14 -5 -19 6 -4 14 0 17 8 9 23 16 20
43 -20 15 -22 26 -53 27 -77 3 -65 37 -197 51 -197 8 0 10 -12 7 -37 -4 -29
-3 -34 5 -23 6 8 11 23 11 33 0 10 4 15 10 12 11 -7 9 -33 -3 -52 -11 -17 -6
-103 6 -103 5 0 7 -18 5 -40 -2 -28 0 -39 8 -36 7 3 15 -12 19 -37 5 -25 10
-35 12 -24 3 10 0 31 -6 47 -7 21 -7 39 0 60 8 22 6 47 -9 107 -22 83 -40 136
-41 116 -1 -7 -6 -13 -12 -13 -7 0 -8 7 -4 18 11 24 7 62 -7 79 -6 8 -12 23
-13 32 -1 10 -11 49 -24 87 -16 50 -34 82 -67 117 -24 26 -48 45 -53 42 -6 -3
-13 0 -17 6 -5 8 -3 9 7 4 8 -4 -6 13 -31 39 -56 58 -165 130 -181 120 -7 -4
-9 -3 -5 4 3 6 -2 16 -13 22 -15 8 -22 7 -28 -4 -6 -11 -13 -12 -23 -6 -12 8
-12 10 5 10 33 0 3 17 -43 24 -29 4 -41 3 -37 -4z"/>
<path d="M1580 1713 c0 -8 64 -53 75 -53 3 0 28 -16 55 -36 28 -20 53 -34 56
-31 3 3 -21 23 -53 44 -91 61 -133 85 -133 76z"/>
<path d="M1554 1676 c-31 -23 0 -43 35 -22 10 6 12 4 7 -12 -4 -11 -2 -23 4
-27 6 -3 8 -10 5 -15 -3 -5 -1 -11 3 -14 5 -3 15 7 21 21 9 20 14 24 21 13 4
-7 6 -19 4 -25 -3 -7 7 -20 21 -29 18 -12 24 -13 23 -4 -2 8 5 12 15 10 31 -5
18 17 -22 38 -22 10 -41 23 -43 28 -1 4 -20 17 -40 29 -30 18 -39 19 -54 9z"/>
<path d="M1975 1671 c3 -5 -5 -12 -17 -14 -13 -2 -3 -5 22 -6 46 -1 180 -40
234 -68 24 -12 30 -13 37 -2 5 9 1 18 -13 25 -15 8 -17 13 -8 16 10 3 9 6 -4
11 -10 4 -15 3 -11 -3 8 -13 2 -13 -29 1 -14 7 -23 15 -21 20 3 4 -5 5 -17 2
-19 -4 -20 -3 -8 6 13 9 13 11 -2 11 -9 0 -21 -8 -27 -17 -7 -14 -13 -15 -33
-6 -21 11 -21 12 -3 12 17 1 17 3 5 11 -19 12 -113 13 -105 1z"/>
<path d="M1861 1576 c-8 -9 -2 -11 24 -8 22 3 35 0 35 -7 0 -6 5 -11 10 -11 7
0 8 6 2 17 -12 20 -57 26 -71 9z"/>
<path d="M1945 1580 c-5 -7 9 -9 39 -5 46 7 58 -2 33 -24 -8 -6 -18 -7 -22 -3
-5 4 -5 1 -1 -5 4 -7 23 -13 42 -13 19 0 56 -11 83 -25 45 -22 61 -23 61 -4 0
7 -39 22 -53 20 -4 -1 -24 8 -44 19 -52 28 -20 25 52 -5 37 -15 63 -21 69 -15
6 6 4 11 -5 14 -8 3 -46 17 -85 31 -73 26 -158 33 -169 15z"/>
<path d="M1492 1549 c-13 -5 -21 -13 -18 -18 9 -13 46 -1 46 15 0 8 -1 14 -2
13 -2 0 -13 -4 -26 -10z"/>
<path d="M1797 1521 c-7 -9 -24 -32 -37 -52 -15 -24 -30 -35 -39 -32 -13 4
-14 3 -2 -5 16 -11 27 -57 12 -47 -5 3 -22 -12 -38 -32 -15 -21 -32 -41 -36
-44 -5 -3 -8 -9 -8 -13 4 -28 -1 -38 -15 -32 -9 4 -24 1 -32 -6 -13 -11 -14
-11 -8 0 7 11 4 11 -13 0 -17 -10 -18 -14 -6 -16 9 -2 12 -9 8 -15 -5 -9 -3
-9 8 0 11 9 14 7 15 -13 1 -13 -2 -21 -7 -18 -5 3 -6 -3 -2 -13 3 -10 3 -15
-2 -11 -4 4 -14 0 -22 -10 -16 -19 -16 -21 3 36 3 10 -4 6 -21 -12 -25 -28
-29 -47 -10 -48 6 -1 15 -8 21 -17 10 -12 17 -4 44 49 24 48 34 60 42 49 7
-10 8 -8 3 8 -7 25 36 109 49 96 4 -4 4 1 0 11 -5 13 -4 17 3 13 6 -4 23 7 38
24 19 23 23 34 14 39 -8 6 -7 15 7 34 11 14 23 26 27 26 5 0 5 5 2 10 -3 6 1
10 9 10 9 0 16 4 16 9 0 10 12 9 47 -3 22 -7 80 20 68 33 -3 3 -33 6 -65 7
-44 1 -63 -3 -73 -15z"/>
<path d="M1986 1505 c-4 -12 3 -15 37 -13 39 1 40 1 8 5 -26 3 -31 7 -20 14
12 7 11 9 -2 9 -9 0 -19 -7 -23 -15z"/>
<path d="M2205 1494 c-24 -37 -9 -44 20 -9 14 17 22 22 19 13 -7 -20 11 -25
22 -7 7 12 -12 29 -32 29 -7 0 -19 -12 -29 -26z"/>
<path d="M2267 1462 c-13 -28 -13 -29 49 -85 34 -31 64 -57 67 -57 3 0 8 11
11 25 6 24 26 36 26 15 0 -6 14 -29 30 -52 28 -38 30 -39 30 -16 0 35 -159
198 -193 198 -3 0 -12 -13 -20 -28z m56 -24 c38 -27 67 -60 61 -70 -7 -11 -74
35 -74 50 0 6 -4 12 -9 12 -5 0 -11 7 -15 15 -7 20 0 19 37 -7z"/>
<path d="M1973 1473 c-7 -3 -13 -13 -13 -24 0 -25 57 -27 76 -1 13 16 13 16
14 0 0 -21 16 -24 23 -5 3 7 6 6 6 -5 1 -9 10 -20 21 -23 11 -3 20 -11 20 -16
0 -18 18 -9 23 12 5 17 -2 24 -36 39 -44 18 -113 30 -134 23z"/>
<path d="M1787 1452 c-22 -24 -21 -32 2 -32 14 0 21 -10 25 -35 4 -19 12 -35
18 -35 6 0 8 3 5 7 -4 3 -2 12 4 19 9 10 7 15 -5 20 -9 3 -13 10 -10 15 3 5 0
9 -7 9 -8 0 -6 6 4 18 10 10 17 22 17 25 0 14 -38 6 -53 -11z"/>
<path d="M2166 1413 c-3 -3 -6 -24 -6 -45 0 -26 -4 -38 -14 -38 -19 0 -41 -29
-30 -40 5 -5 21 -12 37 -15 21 -6 27 -4 27 9 0 9 5 16 10 16 6 0 10 4 10 10 0
5 -6 7 -13 4 -17 -6 -21 50 -6 77 9 18 -2 35 -15 22z"/>
<path d="M1960 1394 c0 -11 -5 -14 -16 -10 -10 4 -31 -3 -50 -16 -36 -24 -43
-38 -20 -38 25 0 46 12 46 26 0 8 6 14 14 14 10 0 12 -7 8 -22 -4 -15 -2 -19
8 -13 7 4 16 2 21 -6 6 -11 9 -11 13 1 2 8 7 23 10 33 10 32 27 19 21 -16 -6
-32 -5 -34 33 -45 50 -15 52 -15 52 3 0 9 -6 12 -15 9 -9 -4 -15 0 -15 10 0 9
-4 16 -10 16 -5 0 -10 4 -10 10 0 5 17 3 39 -5 30 -10 40 -11 44 -2 9 25 -4
36 -33 30 -20 -3 -43 2 -70 16 -49 25 -70 27 -70 5z"/>
<path d="M2220 1346 c0 -17 9 -27 30 -36 17 -7 30 -17 30 -22 0 -6 6 -8 13 -5
8 3 13 -3 13 -14 0 -25 -7 -24 -42 6 -32 27 -40 30 -49 16 -3 -6 14 -21 38
-35 24 -14 54 -37 67 -51 28 -30 40 -32 33 -6 -3 10 0 28 6 39 9 18 6 25 -26
51 -20 16 -41 27 -46 24 -6 -3 -7 -1 -3 5 6 10 -38 52 -55 52 -5 0 -9 -11 -9
-24z"/>
<path d="M2400 1308 c1 -7 17 -31 37 -53 36 -40 36 -40 29 -11 -4 17 -19 40
-32 53 -29 26 -34 28 -34 11z"/>
<path d="M1770 1288 c-25 -27 -25 -38 -2 -38 25 0 46 16 38 29 -5 8 10 11 48
11 31 0 56 5 56 10 0 6 -27 10 -60 10 -48 0 -63 -4 -80 -22z"/>
<path d="M1933 1299 c2 -8 10 -13 16 -11 6 1 11 -12 12 -30 l1 -33 9 34 c11
38 12 36 -20 46 -17 5 -22 4 -18 -6z"/>
<path d="M2000 1275 c0 -8 8 -15 18 -15 23 0 129 -34 139 -44 4 -5 -4 -6 -19
-4 -35 6 -37 -8 -3 -16 34 -9 40 -7 37 10 -4 18 15 18 68 -1 23 -8 48 -15 54
-15 19 1 -37 27 -74 35 -19 4 -39 11 -45 15 -5 5 -31 10 -56 13 -26 3 -61 12
-77 21 -38 20 -42 20 -42 1z"/>
<path d="M1855 1270 l-40 -5 40 -7 c22 -4 43 -4 48 1 13 13 -4 17 -48 11z"/>
<path d="M1990 1241 c0 -5 16 -12 36 -15 19 -4 42 -10 50 -13 8 -3 14 -1 14 4
0 6 -17 15 -39 21 -46 14 -61 15 -61 3z"/>
<path d="M2501 1239 c0 -9 -8 -22 -16 -29 -8 -7 -13 -16 -10 -20 3 -5 1 -20
-5 -34 -8 -21 -5 -33 15 -61 26 -40 49 -99 43 -116 -2 -6 -16 7 -31 30 -15 22
-32 41 -37 41 -17 0 -11 -18 11 -34 12 -8 30 -27 40 -42 l18 -27 9 34 c5 19 6
36 2 39 -4 3 -17 31 -29 63 -23 63 -28 123 -10 129 6 2 9 13 6 23 -3 15 -5 16
-6 4z"/>
<path d="M2378 1229 c-3 -8 0 -19 6 -25 6 -7 20 -24 30 -38 17 -24 21 -25 29
-10 7 12 1 24 -26 51 -24 24 -36 31 -39 22z"/>
<path d="M1747 1223 c-7 -7 -10 -103 -3 -103 16 0 35 14 30 22 -4 6 -2 13 3
17 5 3 13 21 16 39 6 29 4 32 -17 32 -12 0 -26 -3 -29 -7z"/>
<path d="M1810 1213 c0 -7 6 -12 13 -10 7 1 11 -7 10 -19 -2 -17 4 -23 25 -27
33 -6 32 -8 39 37 l6 36 -47 -1 c-31 -2 -46 -7 -46 -16z"/>
<path d="M1945 1184 c-4 -22 -9 -47 -12 -56 -2 -10 0 -18 5 -18 12 0 32 93 22
104 -5 5 -11 -8 -15 -30z"/>
<path d="M1982 1150 c-2 -42 1 -50 15 -50 15 0 16 2 3 10 -15 10 -8 14 22 11
11 -2 20 7 24 23 7 30 24 35 25 9 0 -11 3 -13 6 -5 9 23 23 12 23 -18 0 -23 4
-30 20 -30 11 0 20 -4 20 -10 0 -5 -5 -10 -12 -10 -9 0 -9 -3 0 -12 6 -6 15
-9 18 -5 11 11 22 87 13 92 -8 6 -157 45 -168 45 -4 0 -8 -22 -9 -50z"/>
<path d="M2310 1161 c0 -5 8 -11 18 -13 11 -2 17 -13 17 -33 0 -22 5 -31 20
-33 11 -3 33 -14 49 -25 20 -14 27 -16 24 -6 -2 8 -24 25 -47 38 -50 28 -48
39 3 17 39 -16 49 -9 15 13 -36 22 -89 51 -94 51 -3 0 -5 -4 -5 -9z"/>
<path d="M2207 1134 c3 -11 31 -44 61 -74 31 -30 50 -48 44 -39 -7 9 -9 19 -6
22 3 3 2 12 -2 19 -14 23 -15 50 -2 42 7 -4 10 -3 5 1 -4 5 -22 14 -40 21 -17
6 -40 15 -50 19 -14 6 -16 4 -10 -11z"/>
<path d="M1445 1131 c-3 -6 -8 -29 -10 -53 l-6 -43 16 28 c9 16 13 37 9 49 -4
14 -2 18 5 14 6 -4 11 -2 11 3 0 14 -17 14 -25 2z"/>
<path d="M1612 1123 c-6 -2 -10 -9 -6 -14 3 -5 -2 -9 -10 -9 -18 0 -21 -15 -6
-25 5 -3 16 8 25 25 8 16 14 30 13 29 -2 0 -9 -3 -16 -6z"/>
<path d="M1747 1103 c-4 -3 -7 -20 -7 -37 l0 -31 70 -1 70 0 0 37 c0 35 -2 38
-29 37 -23 -1 -30 -6 -34 -28 -8 -37 -37 -36 -37 2 0 26 -17 37 -33 21z"/>
<path d="M2450 1099 c0 -9 9 -24 20 -34 26 -23 26 -4 0 26 -15 18 -19 20 -20
8z"/>
<path d="M1536 1084 c-9 -23 -8 -24 24 -35 33 -12 40 -29 13 -29 -13 0 -14 -3
-6 -11 9 -9 29 -7 78 6 66 18 83 29 66 39 -5 4 -12 2 -16 -4 -11 -18 -25 -10
-25 15 0 14 -4 25 -10 25 -5 0 -10 -9 -10 -21 0 -13 -4 -18 -12 -13 -8 5 -9 2
-5 -9 3 -10 2 -17 -3 -17 -6 0 -10 4 -10 9 0 5 -16 12 -35 15 -35 7 -58 26
-31 26 9 0 16 5 16 10 0 16 -27 11 -34 -6z"/>
<path d="M1906 1068 c-8 -42 -8 -50 4 -43 6 3 11 16 11 28 1 17 3 15 9 -8 l8
-30 2 28 c2 15 3 32 4 39 1 6 -6 12 -15 14 -12 1 -19 -8 -23 -28z"/>
<path d="M1966 1058 c-10 -40 -7 -46 27 -53 17 -4 40 -9 50 -11 14 -5 17 1 16
33 -1 21 -3 29 -6 18 -9 -36 -23 -41 -23 -8 0 23 -5 32 -22 37 -34 9 -35 8
-42 -16z"/>
<path d="M1461 1048 c-5 -14 -5 -28 1 -35 15 -18 23 -16 36 10 9 19 10 18 8
-15 -2 -20 -11 -48 -20 -62 -9 -14 -16 -31 -16 -38 0 -9 -3 -9 -11 2 -9 12 -9
11 -4 -5 4 -11 10 -30 12 -42 3 -11 14 -23 24 -26 16 -4 21 1 26 24 3 16 9 29
14 29 13 0 11 -12 -6 -53 -8 -20 -15 -44 -15 -54 0 -15 2 -15 16 3 15 19 15
19 11 -3 -3 -15 -1 -20 9 -16 16 6 17 25 4 98 -4 28 -4 55 0 60 4 6 10 22 14
38 5 20 3 27 -8 27 -12 0 -22 -27 -28 -77 -1 -6 -11 -24 -24 -40 l-22 -28 8
40 c9 50 20 76 29 71 16 -10 4 74 -13 93 -24 27 -35 26 -45 -1z"/>
<path d="M2377 1014 c22 -48 24 -59 13 -79 -14 -25 -7 -45 16 -45 16 0 19 16
4 25 -12 7 -13 25 -2 25 5 0 14 -16 22 -35 7 -19 19 -36 27 -39 7 -3 13 -12
13 -21 0 -8 5 -15 10 -15 6 0 10 -5 10 -12 0 -6 13 -39 29 -72 16 -34 35 -79
41 -101 12 -36 14 -37 21 -17 5 14 14 20 24 16 8 -3 15 -2 16 2 0 5 3 26 5 48
4 35 3 37 -11 22 -10 -10 -14 -24 -10 -36 4 -11 2 -20 -4 -20 -13 0 -25 64
-17 86 5 12 9 14 20 5 11 -9 13 -7 11 11 -7 62 -7 63 -15 33 -4 -16 -8 -22 -9
-12 -1 14 -5 16 -20 8 -20 -11 -31 -5 -31 16 0 7 7 13 15 13 8 0 15 5 15 10 0
7 -6 7 -20 0 -11 -6 -21 -8 -21 -5 -8 35 -2 50 16 35 10 -8 15 -8 21 1 4 6 0
16 -9 21 -9 5 -14 14 -12 21 3 6 0 19 -5 27 -11 16 -13 14 -39 -29 -5 -8 -16
-11 -25 -8 -15 6 -14 9 4 27 11 11 20 28 20 38 -1 13 -4 11 -15 -8 -14 -25
-18 -22 -16 15 0 11 -2 14 -5 8 -8 -19 -35 -16 -27 2 6 17 -16 46 -59 77 l-27
19 26 -57z"/>
<path d="M2083 1038 c2 -7 0 -21 -4 -30 -7 -13 -2 -20 22 -32 17 -9 34 -14 38
-11 4 2 8 22 9 44 3 41 3 41 -33 41 -25 0 -35 -4 -32 -12z"/>
<path d="M1736 968 c-13 -114 -12 -162 4 -165 12 -3 15 11 17 74 1 43 3 91 5
107 2 16 -2 31 -9 33 -7 3 -14 -15 -17 -49z"/>
<path d="M1413 987 c-12 -15 -56 -145 -59 -172 -1 -11 -3 -23 -3 -27 -1 -12
-31 -9 -31 2 0 6 9 36 20 67 11 32 20 66 19 78 0 12 -5 6 -11 -15 -5 -19 -14
-40 -19 -47 -6 -6 -11 -24 -13 -40 -1 -15 -7 -27 -12 -26 -5 1 -10 -7 -10 -17
0 -10 5 -18 11 -17 5 1 9 -8 8 -20 -2 -13 2 -23 9 -23 6 0 8 -3 5 -7 -8 -7 23
-32 41 -33 6 0 12 5 12 11 0 5 -4 7 -10 4 -9 -6 -16 44 -10 70 16 65 43 161
46 164 2 2 10 -1 17 -8 12 -9 18 -6 30 13 15 23 15 25 -7 40 -19 12 -26 12
-33 3z"/>
<path d="M1850 991 c0 -8 -7 -11 -20 -8 -11 3 -23 1 -26 -4 -3 -5 7 -9 21 -9
25 0 26 -2 20 -32 -4 -18 -10 -37 -13 -43 -12 -20 -8 -104 5 -91 10 10 30 182
22 191 -6 5 -9 4 -9 -4z"/>
<path d="M1926 969 c-13 -85 -14 -109 -7 -109 5 0 11 30 14 68 6 72 2 96 -7
41z"/>
<path d="M2180 990 c0 -5 1 -13 1 -17 3 -12 91 -43 119 -42 14 1 33 -2 43 -6
9 -4 17 -3 17 3 0 6 -15 16 -32 23 -18 7 -37 15 -42 17 -5 3 -6 0 -2 -7 4 -6
0 -11 -9 -11 -9 0 -19 9 -22 21 -3 12 -11 18 -19 15 -8 -3 -14 -1 -14 4 0 6
-9 10 -20 10 -11 0 -20 -4 -20 -10z"/>
<path d="M2095 919 c-4 -6 -3 -14 3 -18 6 -4 7 -12 3 -20 -5 -7 -14 -10 -20
-7 -6 4 -11 0 -11 -8 0 -9 3 -15 8 -13 8 2 12 -6 12 -28 0 -8 -6 -15 -14 -15
-15 0 -26 -21 -26 -51 0 -12 5 -16 15 -13 8 4 17 -1 21 -10 9 -23 24 -10 24
21 0 20 -3 23 -14 14 -10 -8 -16 -8 -25 3 -8 10 -9 16 -1 21 5 3 10 -1 10 -10
0 -14 3 -13 20 3 14 13 20 34 22 76 3 57 -10 83 -27 55z"/>
<path d="M2645 890 c3 -19 9 -62 13 -95 12 -78 12 -116 1 -109 -5 3 -9 -9 -9
-26 0 -17 3 -29 8 -27 4 3 5 -15 3 -40 -2 -32 0 -43 8 -39 6 4 11 3 11 -3 0
-5 -5 -13 -10 -16 -6 -4 -5 -12 5 -21 13 -13 12 -19 -2 -49 -9 -19 -20 -32
-24 -30 -15 10 -27 -20 -15 -37 12 -16 14 -15 26 10 16 34 25 14 15 -35 -4
-24 -9 -32 -14 -24 -6 9 -11 1 -15 -23 -4 -19 -13 -39 -20 -43 -13 -8 -31 -63
-21 -63 4 0 15 5 26 10 24 13 25 32 2 23 -14 -5 -13 -1 5 19 12 13 22 30 22
36 0 7 4 12 9 12 5 0 7 -28 3 -62 -5 -58 -4 -62 11 -49 15 12 17 10 17 -16 0
-17 -9 -38 -20 -48 -11 -10 -20 -30 -20 -45 0 -44 -12 -90 -21 -84 -5 3 -9 0
-9 -5 0 -14 37 -14 45 -1 3 5 11 10 16 10 6 0 7 -5 4 -10 -3 -6 -2 -10 3 -10
14 0 16 312 1 320 -8 6 -8 13 0 28 10 19 9 54 -4 247 -8 104 -33 280 -45 308
-8 18 -9 15 -5 -13z"/>
<path d="M1946 832 c-4 -35 -5 -66 -2 -69 13 -13 17 7 14 68 l-3 64 -9 -63z"/>
<path d="M1434 839 c-17 -34 -44 -116 -44 -136 0 -44 45 51 54 112 2 11 4 20
5 20 2 0 4 8 6 18 5 26 -3 21 -21 -14z"/>
<path d="M2381 828 c-15 -42 -23 -148 -11 -148 6 0 9 8 6 18 -3 9 -1 24 4 32
7 12 12 8 21 -17 6 -18 15 -33 20 -33 5 0 9 -7 9 -15 0 -8 5 -15 10 -15 12 0
10 32 -2 40 -4 3 -9 15 -11 27 -1 12 -8 28 -15 36 -7 8 -10 21 -6 30 3 8 1 18
-4 21 -6 3 -8 15 -5 26 7 27 -6 25 -16 -2z"/>
<path d="M1445 759 c-9 -28 -14 -53 -11 -56 9 -9 13 -2 20 32 3 17 8 40 12 53
13 45 -5 21 -21 -29z"/>
<path d="M1717 774 c-4 -4 -7 -24 -7 -44 0 -34 2 -37 25 -32 20 3 25 10 25 35
0 29 1 30 14 12 8 -11 12 -24 9 -31 -4 -12 24 -27 37 -19 13 8 18 67 6 70 -29
9 -103 15 -109 9z"/>
<path d="M1640 761 c0 -5 -6 -9 -12 -8 -32 1 -48 -4 -48 -14 0 -6 7 -8 16 -5
13 5 15 1 10 -19 -5 -18 -2 -25 8 -25 9 0 13 7 11 19 -2 13 6 26 22 36 14 10
22 12 19 6 -4 -6 -3 -11 2 -11 23 0 18 26 -4 28 -13 1 -24 -2 -24 -7z"/>
<path d="M1510 745 c-3 -25 -3 -52 -2 -89 2 -23 6 -27 22 -23 11 3 20 1 20 -4
0 -5 -9 -9 -20 -9 -16 0 -20 -7 -20 -34 0 -19 -4 -37 -9 -41 -15 -9 -9 -85 7
-85 9 0 11 7 7 20 -5 17 -2 20 22 19 17 -1 21 -3 11 -6 -10 -2 -18 -9 -18 -14
0 -10 43 -2 74 14 11 5 31 13 45 18 25 7 25 7 3 8 -12 1 -34 -6 -47 -15 -14
-9 -26 -14 -26 -10 -1 3 -2 10 -3 15 -2 18 -14 21 -40 12 -23 -9 -26 -8 -26 9
0 14 7 20 23 20 27 0 53 15 40 23 -5 3 -9 24 -8 46 1 38 0 40 -24 35 l-26 -5
25 14 c16 10 25 26 28 47 3 30 1 32 -22 28 -17 -4 -26 0 -29 11 -4 12 -5 11
-7 -4z"/>
<path d="M1860 736 c0 -13 -3 -33 -6 -43 -5 -14 -4 -15 5 -7 16 15 25 74 12
74 -6 0 -11 -11 -11 -24z"/>
<path d="M1897 753 c-4 -3 -7 -24 -7 -46 0 -45 6 -45 19 0 9 30 1 60 -12 46z"/>
<path d="M1926 668 c-3 -40 -7 -86 -9 -102 -2 -26 2 -31 43 -45 25 -9 50 -19
55 -22 6 -4 22 -9 36 -13 24 -5 27 -2 33 25 8 43 8 89 -1 89 -14 0 -39 -20
-25 -20 6 0 12 -5 12 -11 0 -7 -10 -9 -25 -5 -20 5 -25 3 -25 -13 0 -24 -19
-38 -30 -21 -4 7 -13 9 -19 6 -6 -4 -11 -1 -12 6 0 7 -2 29 -3 49 -2 20 -6 41
-10 47 -5 8 0 12 14 12 11 0 20 6 19 13 -3 23 1 37 11 37 6 0 10 -8 11 -17 0
-11 3 -13 6 -5 2 6 12 12 20 12 12 0 14 -7 10 -29 -5 -25 -2 -30 18 -35 14 -4
28 -7 32 -9 4 -1 10 15 14 36 7 43 5 44 -58 51 -23 3 -55 12 -72 20 -16 9 -32
16 -34 16 -2 0 -7 -33 -11 -72z"/>
<path d="M1320 686 c0 -29 53 -172 84 -230 23 -41 37 -85 44 -136 29 -191 25
-229 -14 -153 -10 21 -38 64 -61 96 -50 69 -60 101 -73 227 -12 124 -33 180
-25 67 4 -54 3 -77 -5 -72 -6 4 -10 -11 -9 -42 1 -27 4 -37 6 -23 3 14 9 30
15 35 7 7 8 -1 2 -25 -23 -92 4 -250 43 -250 8 0 11 -5 8 -10 -4 -6 4 -25 18
-43 13 -18 34 -52 47 -76 16 -33 24 -41 31 -30 5 8 6 21 3 31 -2 9 0 19 5 22
12 8 31 -25 31 -52 0 -14 7 -19 30 -20 17 0 28 4 25 9 -4 5 -12 9 -18 9 -19 0
-36 45 -24 65 7 13 6 16 -2 11 -7 -5 -11 1 -11 13 0 12 5 21 10 21 6 0 10 18
10 41 0 28 -4 38 -12 33 -7 -5 -9 -1 -6 12 3 10 7 24 8 29 5 17 -12 135 -20
140 -5 3 -6 13 -3 23 6 25 78 22 97 -3 8 -11 20 -16 30 -12 22 8 21 -9 -1 -22
-19 -11 -4 -15 21 -5 11 4 14 14 9 37 -9 48 -19 57 -56 46 -47 -13 -107 -11
-107 4 0 8 -3 7 -10 -3 -7 -12 -12 -8 -22 20 -7 19 -11 39 -10 44 2 5 -1 12
-5 15 -4 3 -13 16 -20 27 -9 17 -9 26 2 40 7 11 17 16 21 12 4 -4 2 -14 -5
-22 -9 -11 -8 -18 5 -31 9 -9 20 -31 23 -48 5 -23 13 -33 29 -35 12 -2 22 1
22 7 0 6 -6 11 -13 11 -20 0 -37 60 -30 108 4 28 2 42 -6 42 -6 0 -11 -5 -11
-11 0 -8 -5 -7 -15 1 -9 7 -13 21 -10 31 4 12 1 19 -8 19 -23 0 -27 -11 -11
-36 9 -13 13 -28 9 -34 -10 -16 -25 -1 -25 26 0 16 -4 23 -11 18 -7 -4 -9 0
-5 14 4 13 1 22 -9 26 -9 3 -15 0 -15 -8z m0 -401 c17 -39 23 -46 32 -35 8 13
9 12 5 -2 -6 -17 15 -42 26 -31 4 3 7 1 7 -5 0 -16 -35 -33 -54 -26 -9 3 -12
12 -9 21 5 12 3 14 -7 8 -8 -5 -11 -4 -7 2 4 6 1 23 -7 39 -8 16 -16 49 -19
74 -7 49 -4 45 33 -45z m76 -120 c4 -8 13 -15 21 -15 9 0 13 -6 9 -15 -3 -8
-1 -15 4 -15 12 0 13 -37 2 -44 -10 -6 -53 39 -45 47 2 3 -3 17 -12 31 -16 24
-16 26 -1 26 9 0 19 -7 22 -15z"/>
<path d="M1710 646 c0 -19 -3 -41 -6 -49 -4 -11 4 -16 33 -19 21 -3 45 -8 55
-12 14 -6 17 1 20 48 2 41 0 56 -10 56 -7 0 -11 -4 -8 -9 3 -5 0 -21 -8 -36
-14 -27 -14 -27 -18 -4 -2 15 -12 26 -28 30 l-25 6 25 11 25 11 -27 0 c-25 1
-28 -2 -28 -33z"/>
<path d="M2163 666 c9 -7 17 -19 17 -26 0 -9 10 -11 33 -7 41 6 60 -4 51 -26
-3 -10 -1 -17 6 -17 6 0 9 4 6 9 -5 8 24 20 48 21 5 0 6 -20 4 -45 -5 -43 -5
-45 21 -45 23 1 24 2 8 11 -21 13 -13 29 15 29 14 0 18 5 14 15 -3 9 1 18 9
21 16 7 49 -21 41 -34 -5 -8 52 -57 59 -50 1 1 6 18 10 36 5 23 3 32 -6 32 -7
0 -20 6 -28 14 -18 16 -53 26 -116 31 -22 2 -71 13 -110 25 -83 24 -109 26
-82 6z"/>
<path d="M1846 635 c-4 -22 -9 -48 -12 -57 -3 -10 -1 -18 5 -18 11 0 26 81 19
102 -3 7 -8 -5 -12 -27z"/>
<path d="M1876 623 c-4 -21 -9 -46 -12 -55 -3 -10 -1 -18 5 -18 5 0 13 17 16
38 4 20 9 45 12 55 2 9 0 17 -5 17 -5 0 -13 -17 -16 -37z"/>
<path d="M1650 640 c-13 -8 -12 -10 3 -10 9 0 17 -4 17 -10 0 -14 -23 -13 -38
2 -9 9 -12 9 -12 -2 0 -7 -8 -22 -17 -33 -17 -20 -17 -20 7 -12 14 4 37 8 53
9 18 1 26 5 22 14 -3 8 -5 22 -5 33 0 21 -8 23 -30 9z"/>
<path d="M2588 570 c-10 -21 -17 -61 -17 -88 1 -26 -2 -63 -6 -81 -6 -27 -4
-32 6 -25 8 5 22 7 32 6 10 -2 17 3 17 12 0 9 -4 16 -9 16 -12 0 -2 79 15 112
16 32 18 52 4 43 -5 -3 -10 -15 -10 -26 0 -10 -5 -19 -11 -19 -8 0 -9 15 -5
45 4 25 6 45 4 45 -2 0 -11 -18 -20 -40z"/>
<path d="M1617 544 c-36 -19 -27 -31 11 -15 19 8 36 9 53 2 14 -5 37 -7 52 -4
16 3 27 1 27 -6 0 -6 -13 -11 -30 -11 -18 0 -30 -5 -30 -13 0 -9 10 -12 30 -9
22 3 30 0 30 -11 0 -10 -11 -17 -31 -19 -30 -3 -32 -5 -34 -55 -3 -55 2 -60
40 -43 17 7 17 9 3 9 -22 1 -24 21 -3 21 24 0 30 -4 29 -17 -1 -7 2 -13 6 -13
13 0 18 63 8 84 -7 13 -6 21 3 28 11 7 11 11 2 15 -18 7 -16 23 2 23 8 0 15 7
15 15 0 17 -58 30 -94 21 -14 -3 -28 -2 -31 4 -8 14 -25 12 -58 -6z"/>
<path d="M2146 529 c-14 -45 -14 -60 -1 -55 8 3 17 1 21 -5 3 -6 18 -9 32 -8
15 1 35 -2 45 -6 19 -8 35 0 24 12 -4 3 -23 9 -44 12 -20 3 -38 12 -41 20 -3
9 2 11 17 6 11 -3 21 -2 21 3 0 5 -8 12 -17 15 -10 2 -26 8 -35 12 -11 4 -19
2 -22 -6z"/>
<path d="M1824 519 c-3 -6 3 -13 15 -16 16 -4 19 -11 15 -29 -4 -15 -2 -24 5
-24 6 0 11 11 11 25 0 14 0 28 1 32 1 12 -40 23 -47 12z"/>
<path d="M2315 508 c-2 -7 -6 -26 -7 -43 -3 -27 0 -30 27 -30 27 0 30 3 31 30
0 39 -40 74 -51 43z"/>
<path d="M2510 475 c-7 -25 -17 -45 -21 -45 -19 0 -7 -26 17 -37 23 -10 26 -9
35 13 15 41 10 63 -7 31 -22 -40 -27 -28 -13 27 15 61 6 70 -11 11z"/>
<path d="M1354 502 c4 -7 2 -20 -3 -29 -6 -10 -11 -12 -11 -5 0 27 -15 10 -15
-18 0 -16 1 -30 2 -30 1 0 11 10 23 22 22 24 26 53 8 64 -7 4 -8 3 -4 -4z"/>
<path d="M1900 496 c0 -14 34 -31 103 -50 39 -11 52 -34 17 -28 -28 4 -25 -14
3 -22 32 -9 37 -8 37 8 0 26 15 26 113 2 53 -13 101 -20 107 -16 11 7 -84 32
-167 45 -24 4 -45 11 -49 16 -3 5 -20 9 -39 9 -20 0 -50 10 -71 25 -42 28 -54
31 -54 11z"/>
<path d="M2418 478 c-2 -15 -9 -22 -21 -22 -9 1 -17 -2 -17 -7 0 -10 70 -30
82 -23 16 10 8 53 -11 64 -27 14 -29 13 -33 -12z"/>
<path d="M1636 471 c-4 -5 0 -12 6 -15 7 -3 3 -3 -9 0 -24 6 -33 -11 -10 -19
20 -7 37 4 37 24 0 20 -15 26 -24 10z"/>
<path d="M1900 456 c0 -9 8 -16 19 -16 11 0 23 -4 26 -10 3 -5 10 -10 15 -10
15 0 0 27 -18 34 -9 3 -23 9 -29 12 -8 3 -13 -1 -13 -10z"/>
<path d="M1846 422 c-3 -5 -8 -29 -10 -53 -8 -78 -18 -129 -27 -135 -9 -5 -12
7 -10 41 2 17 0 17 -8 5 -9 -12 -11 -10 -12 10 -1 14 -2 30 -2 37 0 7 -15 11
-43 10 -36 -2 -44 -5 -45 -22 0 -11 -2 -28 -4 -37 -3 -15 3 -17 41 -11 34 4
44 2 45 -8 0 -8 13 -24 29 -37 l29 -23 5 23 c2 13 10 63 16 112 10 83 9 109
-4 88z"/>
<path d="M1882 350 c-3 -54 -1 -59 14 -53 11 4 13 8 6 11 -23 7 -12 24 13 20
17 -4 25 -1 25 8 0 18 30 17 53 0 21 -16 23 -38 2 -30 -8 4 -15 1 -15 -4 0 -6
9 -13 20 -17 15 -5 19 -14 17 -38 -3 -27 -7 -32 -26 -29 -16 1 -22 -2 -18 -12
9 -22 -3 -26 -29 -9 -17 11 -22 21 -18 37 4 17 -1 25 -22 34 -32 15 -36 12
-41 -31 -3 -32 -1 -35 38 -47 23 -8 52 -22 64 -32 13 -10 33 -19 45 -20 21 -3
23 2 26 57 2 33 7 81 12 107 5 26 7 50 4 53 -3 3 -23 5 -44 5 -24 0 -41 5 -44
14 -5 12 -53 36 -73 36 -3 0 -7 -27 -9 -60z"/>
<path d="M2300 390 c0 -5 4 -11 9 -14 5 -3 7 -15 4 -26 -4 -15 0 -20 15 -20
28 0 37 16 16 28 -16 9 -15 10 4 16 12 4 37 4 55 1 21 -4 37 -3 41 4 8 13 12
12 -76 17 -38 2 -68 -1 -68 -6z"/>
<path d="M2470 376 c0 -9 5 -16 11 -16 6 0 9 -6 6 -13 -10 -26 8 -38 26 -17
15 18 15 20 -13 40 -25 18 -30 19 -30 6z"/>
<path d="M2176 371 c13 -14 94 -31 94 -20 0 5 -11 9 -24 9 -14 0 -28 5 -31 10
-3 6 -16 10 -28 10 -13 0 -17 -4 -11 -9z"/>
<path d="M1480 360 c0 -6 8 -10 18 -8 11 2 18 -4 20 -19 4 -30 22 -29 22 1 0
16 -7 26 -22 30 -32 8 -38 7 -38 -4z"/>
<path d="M1600 347 c-8 -7 -14 -22 -12 -34 2 -17 -1 -21 -11 -17 -17 6 -32
-11 -18 -20 5 -3 23 -3 40 0 28 6 31 10 31 45 0 41 -6 46 -30 26z"/>
<path d="M2400 351 l-25 -7 22 -8 c24 -8 43 -1 43 15 0 10 -4 10 -40 0z"/>
<path d="M2595 350 c-3 -6 -17 -7 -29 -4 -20 5 -24 1 -29 -23 -6 -35 -6 -35
30 -31 l28 4 -24 10 -25 11 24 6 c14 3 27 2 31 -4 6 -10 19 11 19 32 0 12 -17
12 -25 -1z"/>
<path d="M2080 332 c0 -6 5 -14 10 -17 6 -4 8 -16 4 -27 -5 -18 -3 -20 25 -16
21 3 32 0 36 -10 4 -11 9 -12 16 -5 14 14 3 33 -18 33 -10 0 -14 6 -10 20 3
11 0 20 -6 20 -7 0 -22 3 -34 6 -13 4 -23 2 -23 -4z"/>
<path d="M2218 294 c18 -14 30 -30 27 -35 -4 -5 -2 -9 4 -9 5 0 13 10 17 22 8
26 -17 48 -55 48 l-26 0 33 -26z"/>
<path d="M2305 288 c-2 -7 -12 -40 -21 -73 -9 -33 -26 -71 -38 -85 -11 -14
-17 -22 -12 -18 5 4 15 3 22 -3 8 -6 37 -13 66 -16 28 -2 54 -5 57 -5 25 -2
31 6 31 43 0 45 -20 51 -30 9 -8 -32 -50 -36 -50 -4 0 13 -8 24 -20 27 -20 5
-28 27 -10 27 6 0 10 6 10 14 0 7 8 16 18 18 10 3 18 14 19 24 1 11 3 26 5 34
4 19 -40 26 -47 8z"/>
<path d="M2385 260 c0 -22 4 -40 8 -40 5 0 7 -7 3 -15 -3 -8 -2 -15 3 -15 5 0
12 17 15 38 4 20 9 45 12 55 4 13 0 17 -18 17 -21 0 -23 -5 -23 -40z"/>
<path d="M2455 265 l-1 -36 18 23 c23 29 23 48 1 48 -14 0 -18 -8 -18 -35z"/>
<path d="M1235 256 c-11 -41 3 -180 22 -221 23 -48 47 -48 27 0 -19 47 -18 62
4 42 10 -10 22 -14 27 -10 4 5 5 0 2 -10 -4 -9 -2 -17 4 -17 5 0 9 -8 7 -18
-2 -11 4 -18 20 -20 25 -4 29 10 9 30 -8 7 -26 32 -41 56 -14 23 -31 42 -36
42 -5 0 -7 7 -4 15 4 8 1 22 -6 30 -6 7 -15 35 -19 62 -7 45 -8 46 -16 19z"/>
<path d="M2497 258 c-3 -13 -9 -34 -13 -48 -7 -22 -6 -24 9 -11 9 7 27 11 39
8 14 -4 26 0 35 11 13 15 13 15 8 -5 -5 -17 -2 -23 9 -23 20 0 20 4 1 40 -9
18 -24 30 -35 30 -10 0 -22 5 -25 10 -10 17 -22 11 -28 -12z"/>
<path d="M1530 250 c0 -11 -4 -20 -10 -20 -5 0 -7 8 -3 18 5 14 3 14 -10 -3
-14 -18 -12 -20 24 -37 32 -14 39 -22 39 -45 0 -22 -2 -25 -10 -13 -8 11 -9 9
-5 -10 3 -14 7 -39 8 -57 1 -18 5 -29 9 -25 10 11 40 173 34 180 -3 3 -6 -2
-6 -11 0 -28 -27 -19 -39 13 -11 34 -31 40 -31 10z"/>
<path d="M1690 139 c0 -59 4 -99 10 -99 6 0 10 10 11 23 0 21 1 21 10 2 7 -15
8 -9 5 23 -2 23 -1 40 3 38 4 -3 8 13 8 34 2 32 -1 38 -14 33 -14 -5 -14 -3 1
19 16 25 16 26 -9 26 l-25 0 0 -99z"/>
<path d="M1800 122 c-7 -38 -11 -75 -8 -83 3 -8 10 22 17 65 14 98 7 112 -9
18z"/>
<path d="M2132 173 c3 -19 -31 -31 -41 -15 -4 7 -13 5 -25 -4 -25 -18 -19 -23
35 -29 24 -2 59 -8 76 -14 39 -11 50 -1 22 22 -10 9 -19 23 -19 31 0 13 -20
26 -41 26 -6 0 -9 -8 -7 -17z"/>
<path d="M2627 175 c-9 -8 -13 -24 -10 -35 7 -25 19 -15 28 23 8 31 3 34 -18
12z"/>
<path d="M2464 151 c-11 -28 -10 -29 30 -41 22 -7 50 -18 61 -26 31 -22 45
-17 45 16 0 30 -16 40 -36 20 -5 -5 -20 -7 -32 -3 -17 4 -22 11 -19 25 3 11
-2 22 -13 28 -25 13 -24 14 -36 -19z"/>
<path d="M1841 101 c-13 -82 -14 -101 -3 -101 4 0 9 14 10 32 2 17 6 36 11 42
10 13 11 96 1 96 -4 0 -12 -31 -19 -69z"/>
<path d="M1307 143 c-3 -5 10 -24 29 -42 19 -19 34 -30 34 -25 -1 16 -58 76
-63 67z"/>
<path d="M2007 83 c-4 -27 -4 -27 -12 -5 -4 12 -11 22 -16 22 -14 0 -22 -22
-10 -29 6 -4 13 -22 14 -39 2 -38 24 -43 32 -7 3 14 7 36 10 49 3 14 1 27 -4
31 -5 3 -12 -7 -14 -22z"/>
<path d="M2262 36 c3 -34 23 -46 31 -19 2 10 8 25 12 34 5 13 1 17 -20 15 -22
-1 -25 -5 -23 -30z"/>
<path d="M1750 35 c0 -29 -3 -30 -30 -12 -17 10 -22 9 -29 -2 -10 -16 -93 -9
-99 8 -6 19 -22 12 -22 -9 0 -19 7 -20 95 -20 l95 0 0 30 c0 17 -2 30 -5 30
-3 0 -5 -11 -5 -25z"/>
</g>
</svg>
