<?xml version="1.0" standalone="no"?>
<!DOCTYPE svg PUBLIC "-//W3C//DTD SVG 20010904//EN"
 "http://www.w3.org/TR/2001/REC-SVG-20010904/DTD/svg10.dtd">
<svg version="1.0" xmlns="http://www.w3.org/2000/svg"
 width="300.000000pt" height="400.000000pt" viewBox="0 0 300.000000 400.000000"
 preserveAspectRatio="xMidYMid meet">
<metadata>
Created by potrace 1.10, written by Peter Selinger 2001-2011
</metadata>
<g transform="translate(0.000000,400.000000) scale(0.100000,-0.100000)"
fill="#000000" stroke="none">
<path d="M1455 3940 c11 -5 30 -9 43 -9 14 -1 22 -7 22 -18 0 -12 -3 -14 -8
-7 -9 15 -90 9 -126 -10 -24 -12 -25 -15 -9 -19 16 -4 15 -5 -3 -6 -34 -2 -84
-22 -79 -31 3 -5 -5 -14 -17 -20 -36 -18 -165 -158 -173 -187 -3 -15 -17 -40
-31 -56 -71 -85 -77 -135 -49 -444 5 -51 5 -52 -22 -50 -27 2 -28 0 -31 -53
-2 -31 2 -67 7 -80 8 -22 10 -18 11 25 1 78 8 97 38 93 20 -2 28 -11 35 -38
17 -70 27 -55 27 42 0 103 -7 139 -21 116 -9 -13 -10 -8 -15 87 -9 174 -6 214
20 241 6 6 23 33 39 58 15 26 31 45 36 41 5 -3 13 0 17 6 4 7 3 9 -4 5 -6 -3
-13 -2 -17 3 -3 6 27 43 68 83 85 85 109 105 145 121 15 6 33 17 40 24 7 7 21
13 30 13 14 0 14 2 3 9 -9 6 15 9 65 8 67 -2 89 -7 146 -35 37 -17 70 -37 73
-42 3 -5 16 -15 27 -21 18 -10 20 -9 15 5 -4 10 -3 15 3 11 6 -3 10 0 10 7 0
13 -43 37 -200 112 -33 15 -71 26 -95 25 -32 0 -36 -2 -20 -9z"/>
<path d="M1771 3794 c-10 -22 -8 -32 9 -61 11 -19 20 -43 20 -54 0 -11 4 -18
8 -15 4 2 14 1 22 -5 11 -6 11 -9 2 -9 -15 0 -5 -51 12 -62 8 -5 8 -10 -1 -19
-8 -8 -20 -4 -49 17 -35 27 -36 28 -23 5 8 -13 25 -36 39 -51 14 -14 34 -55
44 -91 10 -35 27 -88 38 -117 17 -43 18 -56 8 -65 -10 -9 -11 -9 -6 1 9 14
-15 26 -41 19 -15 -3 -14 -6 8 -15 42 -17 59 -40 59 -82 0 -21 -5 -42 -11 -45
-6 -5 -4 -11 6 -19 26 -19 51 -167 26 -151 -5 3 -15 -21 -21 -52 -6 -32 -18
-71 -25 -88 -7 -16 -17 -52 -20 -80 -9 -64 -40 -137 -71 -164 -14 -12 -26 -37
-30 -61 -7 -40 -17 -56 -44 -62 -8 -2 -22 -11 -31 -20 -23 -25 -138 -38 -186
-21 -21 7 -46 13 -55 13 -22 0 -124 65 -136 86 -5 9 -11 14 -13 12 -9 -6 -58
39 -51 47 4 5 1 5 -5 1 -8 -4 -13 -1 -13 8 0 8 -6 21 -13 28 -7 7 -14 16 -16
20 -1 4 -8 23 -17 43 -8 19 -13 36 -12 37 4 4 -40 66 -63 91 -10 10 -20 34
-23 53 -7 33 -22 52 -33 40 -3 -3 1 -16 9 -28 21 -33 29 -68 14 -68 -14 0 -49
37 -77 83 -13 23 -19 27 -19 14 0 -46 50 -103 101 -117 35 -10 40 -15 68 -90
17 -44 31 -83 31 -88 0 -4 25 -28 55 -52 29 -25 54 -50 55 -57 0 -7 6 -10 13
-7 7 2 22 -4 32 -16 10 -11 24 -20 32 -20 7 0 13 -4 13 -8 0 -5 6 -9 13 -10 6
0 39 -11 72 -22 47 -17 71 -20 115 -15 86 10 128 26 161 59 l30 31 -7 -86 c-5
-70 -3 -93 10 -119 26 -53 17 -139 -16 -147 -10 -3 -18 -14 -18 -25 0 -11 -5
-28 -10 -39 -6 -10 -7 -19 -3 -19 5 0 14 13 20 30 7 18 21 32 37 36 20 5 26
13 26 33 0 14 7 35 15 45 19 26 19 36 -1 36 -12 0 -15 7 -11 26 2 15 -2 31
-10 40 -10 10 -13 25 -9 45 3 19 2 28 -4 24 -6 -4 -10 7 -10 24 0 35 19 42 27
11 3 -11 10 -20 15 -20 6 0 8 -7 4 -15 -4 -12 0 -14 18 -9 24 6 52 -17 42 -34
-3 -6 4 -13 17 -17 20 -7 20 -8 3 -12 -11 -3 -23 2 -28 11 -11 19 -28 12 -28
-10 0 -8 4 -12 10 -9 13 8 0 -28 -14 -37 -7 -5 -6 -8 3 -8 8 0 22 7 32 16 19
18 43 21 82 10 23 -5 27 -11 23 -29 -3 -12 -3 -16 0 -10 9 21 42 -3 49 -37 5
-23 12 -30 31 -30 27 0 32 15 9 24 -23 8 -18 23 10 28 29 6 45 -10 24 -23 -10
-6 -6 -9 14 -9 16 0 35 7 44 15 19 19 30 12 49 -33 9 -20 18 -32 21 -25 2 7 0
21 -6 31 -12 23 -5 33 17 25 12 -4 14 -3 7 4 -13 13 -93 39 -165 54 -30 6 -79
20 -108 32 -45 18 -57 29 -84 76 -18 31 -51 75 -75 98 l-43 43 39 63 c39 64
81 165 81 195 0 9 6 29 14 43 7 15 19 51 26 80 6 30 16 68 21 85 16 52 11 111
-9 126 -17 11 -20 34 -26 197 -5 126 -12 190 -21 205 -17 26 -37 101 -39 141
-1 22 -6 30 -18 29 -10 -1 -16 2 -13 6 3 5 2 16 -1 25 -5 13 -9 14 -15 3 -6
-9 -9 -3 -8 17 2 32 -14 79 -29 89 -5 3 -14 -6 -21 -20z m116 -351 c-3 -10 -5
-2 -5 17 0 19 2 27 5 18 2 -10 2 -26 0 -35z m213 -1203 c0 -5 -6 -10 -14 -10
-8 0 -18 5 -21 10 -3 6 3 10 14 10 12 0 21 -4 21 -10z"/>
<path d="M1480 3701 c0 -14 38 -20 43 -7 3 7 -5 13 -19 14 -13 1 -24 -2 -24
-7z"/>
<path d="M1380 3681 c-8 -4 -25 -13 -37 -19 -52 -27 -68 -38 -81 -54 -7 -10
-21 -18 -30 -18 -10 0 -26 -16 -36 -35 -11 -19 -21 -33 -24 -30 -3 2 -11 -7
-19 -22 -7 -14 -11 -28 -9 -30 2 -3 9 5 16 16 6 12 15 19 21 16 5 -4 9 -2 9 3
0 14 80 92 95 92 7 0 15 6 18 14 3 8 29 23 56 33 28 10 53 23 55 30 6 14 -11
16 -34 4z"/>
<path d="M1161 3402 c-6 -11 -11 -33 -11 -49 0 -15 -14 -46 -30 -67 -16 -21
-27 -43 -24 -47 3 -5 -2 -9 -11 -9 -9 0 -13 -4 -10 -10 10 -17 23 -11 31 12 4
13 20 39 35 58 16 20 30 49 31 65 1 17 7 33 12 37 7 5 7 11 -1 19 -8 8 -14 6
-22 -9z"/>
<path d="M1826 3332 c-4 -4 -20 -8 -34 -9 -65 -5 -88 -9 -100 -16 -43 -28 84
-37 129 -10 16 10 29 21 29 25 0 11 -16 18 -24 10z"/>
<path d="M1217 3279 c-35 -29 -49 -59 -27 -59 5 0 7 6 4 13 -3 8 7 19 23 26
23 10 26 10 16 0 -22 -22 -14 -30 12 -13 20 13 51 17 134 18 78 1 107 4 104
13 -8 20 -35 26 -134 29 -94 3 -96 3 -132 -27z"/>
<path d="M1493 3271 c2 -12 9 -27 16 -34 10 -10 12 -6 9 17 -2 16 -9 31 -16
34 -8 2 -11 -4 -9 -17z"/>
<path d="M1795 3228 c11 -6 37 -27 58 -46 20 -20 37 -31 37 -25 0 17 -78 83
-98 83 -15 -1 -14 -2 3 -12z"/>
<path d="M1305 3215 c-40 -19 -60 -36 -69 -60 -5 -14 2 -11 27 13 19 19 52 40
73 47 22 8 30 14 19 14 -11 0 -33 -6 -50 -14z"/>
<path d="M1642 3194 c-8 -8 -11 -22 -8 -30 9 -24 23 -16 28 16 5 33 0 37 -20
14z"/>
<path d="M1292 3165 l-37 -34 27 -1 c20 0 26 4 22 14 -6 15 23 36 48 36 9 -1
7 -5 -4 -14 -21 -15 -13 -26 18 -26 14 0 25 8 29 21 4 12 12 18 21 15 8 -3 20
-8 27 -11 6 -3 18 4 24 15 11 16 10 18 -2 14 -8 -4 -15 -10 -15 -16 0 -5 -10
-2 -22 6 -40 28 -93 20 -136 -19z"/>
<path d="M1723 3192 c-7 -4 -10 -17 -6 -30 4 -18 12 -22 31 -20 35 4 41 28 8
28 -14 0 -26 5 -26 10 0 13 19 13 59 -1 34 -12 42 -39 11 -39 -11 0 -20 -4
-20 -10 0 -6 9 -6 25 0 14 5 40 7 57 5 18 -3 26 -2 18 1 -8 4 -30 20 -48 35
-32 29 -82 38 -109 21z"/>
<path d="M1677 3162 c-20 -22 -22 -35 -4 -29 6 2 12 8 12 13 0 5 4 15 8 22 12
18 3 15 -16 -6z"/>
<path d="M1428 3143 c12 -2 30 -2 40 0 9 3 -1 5 -23 4 -22 0 -30 -2 -17 -4z"/>
<path d="M1426 3121 c-3 -4 -26 -14 -51 -21 -54 -15 -71 -33 -23 -23 34 6 108
39 108 48 0 9 -29 5 -34 -4z"/>
<path d="M1725 3111 c-3 -5 0 -13 7 -17 18 -12 88 -22 82 -13 -3 5 -13 9 -22
9 -10 0 -27 7 -39 15 -13 9 -24 11 -28 6z"/>
<path d="M1020 2960 c-16 -16 -18 -25 -10 -40 15 -27 29 -25 40 6 21 54 6 70
-30 34z"/>
<path d="M1655 2920 c-4 -7 -2 -16 5 -20 6 -4 11 -11 11 -16 -1 -8 4 -9 29 -5
13 1 13 41 1 41 -5 0 -16 3 -24 6 -8 3 -18 0 -22 -6z"/>
<path d="M1504 2905 c-5 -13 -9 -13 -23 -3 -14 12 -15 11 -2 -4 16 -21 39 -22
64 -4 24 18 21 26 -8 26 -14 0 -28 -7 -31 -15z"/>
<path d="M1600 2891 c0 -17 19 -22 37 -12 10 6 16 11 13 11 -38 8 -50 8 -50 1z"/>
<path d="M1585 2840 c-7 -12 2 -30 16 -30 5 0 9 9 9 20 0 21 -15 27 -25 10z"/>
<path d="M1540 2780 c8 -5 24 -9 35 -9 20 0 20 0 0 9 -11 5 -27 9 -35 9 -13 1
-13 0 0 -9z"/>
<path d="M1628 2779 c-10 -5 -18 -15 -18 -21 0 -6 6 -6 15 2 9 7 30 13 48 13
26 -1 28 1 12 7 -27 11 -37 11 -57 -1z"/>
<path d="M1447 2757 c-60 -23 -96 -57 -59 -57 10 0 24 6 31 13 9 9 62 12 193
12 126 0 182 3 185 11 2 7 -9 14 -24 16 -15 3 -37 8 -48 12 -14 5 -12 2 5 -9
l25 -16 -25 7 c-33 10 -88 6 -112 -7 -11 -6 -27 -7 -36 -3 -9 4 -27 6 -39 5
-13 -1 -23 3 -23 10 0 10 -3 10 -12 1 -7 -7 -19 -12 -27 -12 -11 0 -9 6 9 20
31 24 29 24 -43 -3z"/>
<path d="M1806 2654 c-3 -9 -2 -23 4 -32 5 -10 10 -12 10 -7 1 6 3 20 6 33 4
25 -11 30 -20 6z"/>
<path d="M1565 2623 c1 -25 6 -28 38 -31 24 -2 37 1 37 9 0 7 -10 9 -25 7 -14
-3 -28 -2 -30 2 -3 4 9 10 27 14 37 7 31 18 -15 23 -30 3 -33 1 -32 -24z"/>
<path d="M1164 2545 c-8 -13 -13 -33 -10 -43 4 -11 -2 -29 -14 -45 -11 -14
-27 -42 -36 -62 -8 -20 -20 -35 -27 -34 -7 1 -19 1 -27 -1 -12 -1 -12 -3 2 -8
14 -6 12 -10 -9 -26 -25 -18 -25 -18 -18 3 5 17 2 21 -17 21 -13 0 -29 -4 -37
-9 -10 -7 -8 -10 10 -16 13 -4 32 -14 41 -22 10 -9 27 -13 38 -10 17 4 19 3
10 -8 -6 -7 -7 -21 -3 -30 4 -13 3 -16 -5 -11 -7 4 -12 2 -12 -3 0 -6 9 -11
21 -11 19 0 20 4 14 54 -4 42 -2 56 11 67 8 7 23 30 31 51 16 41 33 50 33 18
0 -11 -4 -20 -10 -20 -9 0 -50 -71 -50 -87 0 -4 13 14 30 40 16 26 34 47 40
47 6 0 20 11 32 25 12 14 29 25 37 25 10 -1 0 -15 -27 -38 -23 -21 -40 -41
-36 -44 3 -4 19 9 36 28 19 21 39 34 54 34 28 0 32 -16 7 -25 -10 -3 -34 -19
-53 -36 -30 -26 -33 -32 -22 -49 19 -30 14 -55 -13 -76 -14 -10 -25 -24 -25
-31 0 -7 -6 -14 -12 -14 -44 -4 -79 -19 -72 -30 3 -5 10 -7 15 -3 6 3 8 -6 4
-23 -4 -22 -3 -24 4 -8 7 17 10 14 16 -20 14 -80 25 -103 18 -41 -7 71 11 70
21 0 6 -45 28 -84 48 -84 5 0 0 17 -10 38 -11 20 -28 61 -38 91 -16 45 -17 55
-5 59 7 2 20 12 27 21 8 9 30 35 50 58 20 23 51 48 70 55 33 12 44 31 24 43
-5 3 -18 -3 -29 -14 -11 -11 -22 -17 -25 -13 -3 3 -6 1 -6 -4 0 -5 -12 -11
-27 -12 -25 -2 -25 -1 -10 16 10 10 14 22 10 27 -5 4 0 5 9 2 13 -4 16 -2 11
11 -5 14 -3 15 7 5 11 -10 17 -9 32 4 14 13 20 13 33 3 8 -7 15 -19 15 -26 0
-8 6 -14 13 -14 19 0 49 -35 40 -46 -5 -5 -4 -6 1 -2 5 4 35 -6 67 -24 62 -32
79 -65 39 -75 -11 -3 -20 -9 -20 -13 0 -12 30 -21 42 -13 7 4 9 -1 6 -14 -5
-19 -1 -21 43 -21 27 -1 49 3 49 8 0 9 -25 20 -47 20 -21 0 -42 29 -43 59 0
22 1 23 23 9 12 -9 23 -21 23 -27 1 -6 2 -17 3 -23 1 -8 6 -6 12 5 8 14 7 22
-8 34 -17 14 -17 14 2 9 17 -5 16 -3 -5 14 -14 11 -34 20 -45 20 -21 0 -83 34
-100 54 -5 6 -38 33 -73 60 -89 68 -150 132 -157 166 -8 36 -19 38 -41 5z m26
-24 c0 -5 -7 -11 -15 -15 -9 -3 -15 0 -15 9 0 8 7 15 15 15 8 0 15 -4 15 -9z
m17 -53 c-9 -6 -9 -8 1 -8 7 0 11 -4 8 -9 -11 -16 -45 0 -39 17 9 24 26 33 35
19 4 -6 2 -15 -5 -19z"/>
<path d="M1159 2313 c-48 -59 -61 -85 -49 -96 10 -9 11 -9 6 1 -4 7 -1 15 8
18 9 3 13 10 10 15 -3 5 1 9 8 9 13 0 44 57 36 66 -3 2 -11 -4 -19 -13z"/>
<path d="M785 2303 c-11 -3 -25 -12 -32 -20 -8 -11 -22 -14 -45 -10 -63 9
-188 -57 -188 -99 0 -8 -4 -13 -8 -10 -5 3 -26 0 -46 -6 -32 -10 -42 -21 -71
-77 -42 -85 -57 -161 -57 -286 -1 -116 8 -169 25 -158 8 4 7 1 -1 -9 -10 -13
-11 -46 -1 -170 6 -84 13 -159 15 -165 7 -26 24 -12 25 20 1 23 3 26 6 10 2
-13 9 -23 14 -23 12 0 12 -1 -5 100 -8 47 -14 92 -15 100 0 8 -5 47 -11 85
-37 250 -37 269 13 270 12 0 21 5 20 12 -4 20 25 23 30 3 5 -20 38 -18 66 4
12 9 13 8 8 -6 -3 -10 -2 -18 3 -18 5 0 11 8 13 18 4 13 5 11 6 -5 1 -25 16
-31 24 -10 4 10 6 10 6 0 1 -7 8 -13 16 -13 18 0 21 49 3 51 -139 14 -166 12
-203 -10 -20 -11 -37 -21 -39 -21 -6 0 15 136 24 157 9 22 67 53 97 53 11 0
14 -7 10 -22 -3 -13 -9 -47 -13 -77 l-7 -55 25 25 c33 31 44 73 19 66 -11 -2
-18 1 -18 9 0 8 7 14 16 14 12 0 12 3 3 12 -22 22 -12 28 52 28 61 0 64 1 69
27 3 18 0 31 -11 40 -15 11 -15 14 -3 22 12 8 12 12 2 25 -12 14 -15 14 -37
-1 -20 -13 -27 -14 -37 -3 -9 10 -9 11 1 6 6 -4 12 -2 12 3 0 6 6 10 13 8 6
-1 11 4 9 12 -2 8 3 11 12 8 8 -3 17 -1 19 6 2 7 10 0 17 -14 18 -40 54 -56
85 -39 33 18 32 27 -5 35 -16 4 -30 11 -30 16 0 17 39 -1 94 -42 54 -41 79
-47 121 -27 24 11 34 27 18 29 -54 8 -64 7 -59 -7 4 -11 0 -13 -22 -8 -31 7
-52 30 -52 56 0 15 -9 18 -55 18 -30 0 -55 3 -55 8 0 4 23 5 51 3 33 -2 49 1
45 7 -17 28 103 19 141 -10 16 -13 133 -23 133 -12 -1 23 -20 31 -77 30 -51
-1 -66 3 -85 22 -23 21 -49 25 -93 15z m-115 -93 c23 -43 3 -36 -31 11 l-22
31 21 -11 c12 -6 26 -20 32 -31z m-50 -98 c0 -2 -9 -2 -20 1 -13 3 -20 0 -20
-10 0 -8 -5 -11 -11 -7 -6 3 -16 0 -21 -7 -7 -10 -8 -8 -5 9 4 17 1 22 -15 22
-11 0 -22 -8 -25 -19 -4 -15 -10 -18 -26 -12 -12 5 -32 5 -44 0 -13 -5 -23 -6
-23 -3 0 10 44 43 57 44 7 0 16 7 21 15 5 10 15 13 26 9 14 -5 15 -9 4 -15
-10 -7 -9 -9 5 -9 9 0 25 9 34 20 17 20 18 20 40 -7 13 -14 23 -28 23 -31z"/>
<path d="M1340 2273 c0 -13 -4 -23 -10 -23 -5 0 -7 8 -3 18 5 13 3 14 -7 5 -8
-7 -9 -17 -3 -27 8 -14 12 -14 27 -3 15 11 17 18 8 33 -11 18 -11 18 -12 -3z"/>
<path d="M1351 2202 c-33 -32 -71 -76 -82 -97 -12 -22 -28 -53 -36 -68 -18
-33 -11 -46 12 -23 19 19 27 20 41 6 7 -7 9 -1 6 20 -5 37 5 83 18 75 13 -8
80 5 80 16 0 5 -9 9 -19 9 -14 0 -18 5 -14 20 3 11 14 20 24 20 11 0 19 7 19
15 0 17 35 21 45 5 9 -15 25 -12 25 5 0 8 -9 19 -20 25 -11 6 -18 15 -15 21 4
5 0 9 -8 9 -8 0 -42 -26 -76 -58z"/>
<path d="M835 2240 c-4 -6 -11 -7 -17 -4 -7 5 -8 2 -3 -6 6 -10 4 -12 -8 -7
-10 3 -17 2 -17 -3 0 -17 29 -11 50 10 11 11 16 20 11 20 -6 0 -13 -5 -16 -10z"/>
<path d="M1244 2220 c2 -16 9 -37 16 -46 12 -14 14 -14 23 1 12 22 -1 75 -14
54 -7 -12 -9 -11 -9 4 0 9 -4 17 -10 17 -5 0 -8 -13 -6 -30z"/>
<path d="M861 2231 c-9 -6 -6 -8 13 -8 14 0 23 3 20 8 -7 11 -15 11 -33 0z"/>
<path d="M1950 2225 c10 -12 8 -16 -14 -26 -14 -7 -26 -20 -26 -31 0 -10 -4
-18 -10 -18 -5 0 -6 8 -3 17 5 12 -3 8 -21 -10 -15 -15 -25 -33 -23 -40 4 -9
6 -9 6 1 1 10 5 10 21 0 19 -12 19 -13 -2 -35 -12 -13 -27 -23 -33 -23 -7 0
-23 -14 -36 -32 -13 -18 -32 -40 -41 -50 -10 -10 -18 -24 -18 -30 0 -9 4 -8
10 2 8 13 11 13 19 1 11 -17 41 -7 41 14 0 21 12 19 35 -7 21 -25 21 -29 0
-41 -19 -10 -7 -37 17 -37 16 0 19 5 14 30 -3 17 -8 43 -11 58 -5 25 -9 28
-35 24 -17 -2 -30 0 -30 6 0 12 19 27 35 27 6 0 14 10 20 23 12 28 18 28 52
-4 20 -18 24 -27 15 -33 -22 -14 -2 -43 24 -37 14 4 24 2 24 -4 0 -9 -14 -14
-32 -11 -5 0 -8 -8 -8 -19 0 -27 14 -25 34 5 11 17 26 25 44 25 21 0 24 -2 12
-10 -13 -8 -12 -10 3 -10 14 0 17 5 11 23 -3 12 -11 27 -16 34 -6 7 -5 19 1
32 17 30 13 36 -9 16 -11 -10 -20 -29 -20 -42 0 -14 -6 -23 -15 -23 -8 0 -15
9 -15 21 0 11 -5 29 -11 40 -13 25 -3 75 21 99 27 27 43 60 30 60 -6 0 -14
-10 -19 -22 -7 -20 -8 -20 -14 9 -3 17 -14 33 -23 37 -14 5 -15 4 -4 -9z m-6
-90 c-21 -39 -29 -43 -43 -18 -7 14 -3 22 22 40 39 29 45 22 21 -22z"/>
<path d="M470 2190 c-20 -12 -10 -19 14 -10 11 3 15 9 10 13 -6 3 -16 2 -24
-3z"/>
<path d="M933 2186 c0 -9 8 -16 17 -16 9 0 29 -13 45 -30 16 -16 37 -30 47
-30 10 0 15 -5 12 -13 -3 -8 3 -20 12 -28 15 -12 16 -11 10 19 -3 17 -8 45
-12 61 -4 24 -11 30 -42 35 -20 3 -49 8 -63 12 -19 4 -26 2 -26 -10z m117 -27
c0 -5 -11 -9 -25 -9 -14 0 -25 4 -25 9 0 5 11 9 25 9 14 0 25 -4 25 -9z"/>
<path d="M2300 2180 c0 -5 6 -10 13 -10 20 0 46 -36 37 -50 -7 -11 -14 -11
-40 0 -24 10 -37 10 -57 1 -18 -8 -29 -9 -38 -1 -10 9 -19 6 -34 -9 -27 -27
-55 -41 -84 -41 -34 0 -37 -7 -23 -48 16 -46 35 -50 75 -17 23 20 30 32 25 49
-7 28 30 75 43 53 4 -7 16 -17 26 -20 10 -4 15 -12 12 -18 -4 -6 -13 -8 -21
-5 -9 3 -14 -2 -14 -15 0 -16 5 -18 28 -13 41 10 43 13 36 50 -3 19 -4 34 -2
34 2 0 23 -9 46 -20 22 -11 45 -20 51 -20 14 0 1 -38 -16 -44 -16 -7 -9 -41
13 -63 20 -20 24 -15 13 14 -13 34 -5 53 21 53 25 0 25 5 -2 43 -45 66 -108
123 -108 97z m-150 -144 c0 -20 -16 -29 -41 -21 -16 5 -18 10 -8 21 15 18 49
18 49 0z"/>
<path d="M710 2153 c0 -5 18 -23 40 -42 35 -30 38 -35 24 -48 -13 -14 -13 -18
4 -37 11 -11 23 -32 26 -46 6 -23 5 -23 -6 -6 -33 48 -50 66 -58 61 -5 -3 -15
3 -22 15 -16 25 -25 25 -32 3 -2 -10 -4 -2 -3 17 1 20 -7 47 -16 60 -9 13 -17
20 -17 16 0 -5 8 -18 18 -29 15 -18 15 -20 0 -14 -24 9 -31 -20 -10 -48 9 -13
36 -33 60 -44 24 -12 40 -26 37 -31 -3 -6 -2 -10 4 -10 6 0 18 -14 26 -31 17
-32 41 -34 39 -3 -1 10 -8 44 -17 74 -14 54 -13 85 4 59 6 -10 9 -10 9 -2 0
18 -76 93 -95 93 -8 0 -15 -3 -15 -7z"/>
<path d="M1410 2147 c0 -11 12 -15 50 -14 51 1 72 17 23 17 -16 0 -38 3 -50 6
-17 5 -23 2 -23 -9z"/>
<path d="M2058 2112 c2 -18 8 -29 13 -26 12 7 11 17 -4 39 -13 16 -14 15 -9
-13z"/>
<path d="M2106 2132 c-3 -6 -1 -14 5 -17 15 -10 25 3 12 16 -7 7 -13 7 -17 1z"/>
<path d="M1826 2118 c-4 -9 -5 -22 -1 -28 8 -13 35 -13 35 0 0 6 -4 10 -9 10
-5 0 -11 8 -14 18 -4 16 -4 16 -11 0z"/>
<path d="M832 2113 c15 -4 16 -8 7 -26 -9 -20 -9 -20 4 -5 8 10 18 14 23 10 4
-4 2 1 -5 11 -7 9 -21 16 -30 16 -13 -1 -13 -2 1 -6z"/>
<path d="M1229 2083 l-34 -37 32 25 c26 20 50 49 40 49 -2 0 -19 -17 -38 -37z"/>
<path d="M1005 2088 c2 -12 10 -43 16 -68 6 -25 14 -63 18 -85 6 -35 10 -40
31 -37 30 3 30 3 23 30 -4 16 -11 21 -23 17 -23 -7 -22 23 2 47 10 10 18 14
18 8 0 -5 6 -10 14 -10 16 0 26 -21 26 -54 0 -19 4 -22 25 -18 30 5 31 15 5
52 -11 15 -17 30 -15 34 3 3 2 4 -1 1 -4 -2 -16 2 -28 10 -11 8 -35 15 -52 15
-28 0 -32 4 -38 35 -4 19 -11 37 -17 40 -6 4 -8 -2 -4 -17z"/>
<path d="M1427 2078 c3 -18 10 -40 15 -48 6 -10 7 -3 3 20 -5 25 -3 31 4 20
13 -19 22 -9 14 18 -3 13 -13 22 -24 22 -15 0 -18 -5 -12 -32z"/>
<path d="M1512 2075 c2 -27 7 -39 16 -37 8 1 11 -2 8 -7 -4 -5 -1 -13 5 -17
18 -11 3 66 -16 85 -15 15 -16 13 -13 -24z"/>
<path d="M1615 2100 c-4 -6 -3 -25 0 -42 7 -28 9 -30 20 -15 6 9 15 14 19 10
4 -4 4 0 1 9 -4 10 -12 16 -17 15 -6 -1 -13 4 -16 12 -3 9 0 11 8 6 9 -5 11
-4 6 3 -9 15 -13 15 -21 2z"/>
<path d="M1582 2085 c0 -11 4 -31 8 -45 l8 -25 0 25 c0 14 -3 34 -8 45 -9 20
-9 20 -8 0z"/>
<path d="M1358 2078 c17 -8 26 -8 34 0 9 9 4 12 -22 11 -33 0 -34 -1 -12 -11z"/>
<path d="M844 2044 c-18 -15 -19 -22 -11 -60 13 -54 28 -58 21 -6 -5 32 -4 35
7 17 7 -11 17 -23 23 -27 8 -6 8 -8 -1 -8 -21 0 -1 -38 23 -43 30 -5 31 11 4
55 -11 18 -20 45 -20 61 0 31 -16 35 -46 11z"/>
<path d="M900 2044 c0 -19 83 -79 88 -65 4 11 6 11 13 0 6 -10 8 -7 6 8 -1 18
-6 22 -26 18 -18 -3 -34 3 -53 22 -16 15 -28 22 -28 17z"/>
<path d="M1726 2024 c-4 -14 -5 -28 -3 -31 3 -2 8 8 11 23 4 14 5 28 3 31 -3
2 -8 -8 -11 -23z"/>
<path d="M2281 2026 c-8 -9 -11 -19 -7 -23 9 -9 29 13 24 27 -2 8 -8 7 -17 -4z"/>
<path d="M642 2000 c0 -19 2 -27 5 -17 2 9 2 25 0 35 -3 9 -5 1 -5 -18z"/>
<path d="M667 2007 c-4 -10 -6 -42 -6 -70 l1 -52 9 55 c11 61 8 97 -4 67z"/>
<path d="M1340 2010 c-13 -9 -13 -10 0 -10 12 0 12 -2 2 -9 -10 -6 -7 -10 13
-15 31 -8 46 -1 39 19 -4 10 0 12 15 8 12 -3 21 -1 21 6 0 14 -69 14 -90 1z"/>
<path d="M2457 1974 c14 -42 14 -46 -2 -58 -17 -12 -15 -14 13 -24 41 -14 42
-48 2 -66 -8 -3 1 -4 20 -1 33 5 37 3 48 -28 16 -45 17 -44 -23 -51 -35 -7
-44 -19 -25 -31 6 -3 10 -2 10 3 0 6 10 8 23 5 18 -4 19 -3 7 6 -12 9 -11 11
7 11 24 0 43 -26 43 -58 0 -11 7 -22 15 -26 8 -3 15 -13 15 -23 0 -10 9 -40
20 -68 18 -44 20 -46 15 -15 -3 19 -2 30 3 24 4 -6 15 -13 25 -17 23 -9 22
-23 -4 -41 -25 -17 -18 -56 10 -56 9 0 26 -6 36 -14 14 -10 25 -11 37 -5 24
13 23 -4 -2 -26 -24 -22 -26 -35 -5 -35 8 0 14 5 13 12 -3 14 40 20 48 6 3 -5
-2 -15 -12 -22 -11 -9 -15 -21 -11 -35 4 -16 -1 -28 -16 -41 -12 -10 -51 -42
-86 -71 -35 -30 -88 -70 -118 -90 -41 -27 -51 -38 -39 -42 9 -4 16 -2 16 4 0
6 7 9 15 5 8 -3 15 -2 15 3 0 5 30 33 68 64 37 30 80 67 96 81 16 16 32 24 37
19 5 -5 25 -7 44 -5 44 5 85 53 63 76 -89 94 -132 136 -138 136 -5 0 -15 20
-23 45 -9 24 -29 64 -45 87 -16 24 -42 71 -57 106 -15 34 -32 62 -37 62 -5 0
-7 4 -4 9 3 5 -10 29 -30 55 -19 25 -48 75 -64 111 -34 75 -46 85 -23 19z
m393 -640 c-6 -6 -7 -14 -3 -17 3 -4 0 -7 -8 -7 -18 0 -39 20 -39 37 0 7 7 10
17 6 11 -4 14 -3 9 6 -6 10 -3 10 12 0 14 -9 18 -17 12 -25z"/>
<path d="M592 1990 c-14 -23 -16 -33 -4 -26 5 3 6 -8 4 -25 -3 -19 0 -29 8
-29 7 0 10 8 7 20 -3 11 -1 20 4 20 5 0 9 14 9 30 0 35 -10 38 -28 10z"/>
<path d="M1600 1990 c-1 -23 -2 -23 -10 -5 -8 19 -9 19 -9 -2 -1 -15 5 -23 15
-23 14 0 15 -7 11 -37 -5 -26 -3 -33 3 -23 8 13 10 12 10 -2 0 -10 4 -18 9
-18 9 0 6 14 -17 100 -9 30 -10 32 -12 10z"/>
<path d="M1635 1978 c10 -43 11 -44 35 -23 31 28 26 55 -11 55 -29 0 -30 -1
-24 -32z"/>
<path d="M701 1985 c-1 -11 -4 -38 -7 -60 l-5 -40 21 39 c11 22 16 42 12 45
-5 3 -12 13 -15 21 -4 11 -6 10 -6 -5z"/>
<path d="M1265 1990 c-3 -6 -4 -19 0 -29 8 -26 42 -16 48 15 3 20 0 24 -19 24
-12 0 -26 -5 -29 -10z"/>
<path d="M1462 1978 c10 -10 19 -22 19 -28 1 -5 2 -15 3 -22 0 -7 15 -15 32
-18 36 -8 56 -19 50 -28 -2 -4 7 -15 20 -25 21 -15 24 -16 24 -2 0 8 -7 15
-15 15 -8 0 -12 6 -9 14 3 7 -2 20 -10 29 -8 8 -12 18 -8 22 4 4 0 5 -8 3 -8
-1 -18 -7 -22 -12 -7 -11 -40 12 -33 23 2 4 18 6 35 5 24 -2 30 1 26 13 -3 8
-6 18 -6 21 0 4 -26 7 -58 8 -56 0 -57 -1 -40 -18z"/>
<path d="M2294 1985 c-10 -8 -31 -15 -46 -15 -29 0 -33 -6 -22 -34 5 -13 9
-12 27 5 18 17 23 17 35 5 24 -24 7 -49 -27 -41 -26 6 -29 4 -24 -14 6 -25 33
-27 73 -6 17 9 32 14 34 13 2 -2 7 0 10 3 3 3 -4 11 -17 18 -19 10 -22 19 -19
47 5 39 3 40 -24 19z"/>
<path d="M1213 1983 c-18 -2 -33 -7 -33 -9 0 -14 23 -45 40 -54 18 -10 19 -8
15 22 -4 26 -3 29 4 13 9 -18 10 -17 10 8 1 15 0 26 -1 25 -2 0 -18 -3 -35 -5z"/>
<path d="M2181 1966 c-9 -10 -9 -16 -1 -21 17 -10 37 12 24 25 -8 8 -15 6 -23
-4z"/>
<path d="M960 1957 c0 -8 12 -20 28 -27 27 -14 27 -14 -26 -21 -54 -7 -77 -18
-54 -26 6 -3 10 -9 6 -14 -3 -5 5 -9 16 -9 13 0 24 8 27 19 4 14 15 21 41 23
l36 3 -31 33 c-36 35 -43 39 -43 19z"/>
<path d="M2102 1958 c6 -18 25 -20 31 -3 5 10 0 15 -14 15 -12 0 -19 -5 -17
-12z"/>
<path d="M1677 1930 c-11 -17 -17 -45 -16 -68 2 -33 6 -39 23 -37 12 1 22 3
23 4 2 0 -6 17 -17 36 -18 32 -18 65 0 65 13 0 20 -28 8 -32 -8 -3 -7 -10 1
-26 14 -26 47 -31 37 -6 -14 38 -17 62 -7 69 15 9 4 25 -17 25 -10 0 -26 -13
-35 -30z"/>
<path d="M1305 1931 c3 -5 -4 -12 -15 -16 -11 -4 -18 -11 -15 -16 4 -5 4 -9 0
-9 -3 0 -9 9 -13 20 -7 19 -8 19 -20 -1 -8 -12 -9 -18 -3 -14 6 3 14 -1 17 -9
4 -10 19 -16 41 -16 32 0 35 2 29 23 -3 12 -6 28 -6 35 0 6 -5 12 -11 12 -5 0
-8 -4 -4 -9z"/>
<path d="M1375 1915 c-10 -13 -23 -21 -27 -19 -4 3 -8 0 -8 -6 0 -8 9 -10 23
-7 12 4 41 9 65 13 23 4 42 11 42 16 0 6 -7 8 -15 4 -8 -3 -20 0 -27 7 -21 19
-31 17 -53 -8z"/>
<path d="M2136 1925 c-17 -13 -17 -18 -6 -45 11 -27 11 -32 -6 -45 -27 -21
-52 -18 -59 6 l-7 21 -15 -21 c-8 -12 -19 -19 -24 -16 -5 4 -9 -2 -9 -12 0
-14 -2 -15 -9 -4 -5 7 -14 10 -20 7 -17 -11 -13 10 4 24 8 7 15 18 15 25 0 9
10 12 30 9 21 -4 32 -1 36 10 11 29 -5 34 -56 18 l-50 -17 0 -63 0 -62 26 17
c15 9 36 18 48 18 53 3 98 19 126 46 16 16 37 29 45 29 16 0 21 25 6 35 -5 3
-15 -1 -23 -8 -21 -22 -39 -10 -28 19 11 27 4 30 -24 9z"/>
<path d="M1794 1908 c3 -13 6 -26 6 -30 0 -5 7 -8 15 -8 19 0 19 27 1 46 -21
20 -29 17 -22 -8z"/>
<path d="M1901 1912 c-1 -29 23 -25 26 4 3 18 2 18 -6 -1 -8 -20 -8 -20 -13 0
-5 18 -6 17 -7 -3z"/>
<path d="M2390 1928 c0 -4 4 -18 9 -31 8 -20 5 -29 -15 -48 -13 -12 -24 -28
-24 -36 0 -7 -4 -13 -10 -13 -5 0 -10 -18 -10 -40 0 -38 -1 -40 -25 -34 -18 4
-26 2 -30 -10 -17 -53 -16 -51 -25 -36 -8 13 -10 13 -10 -1 0 -9 7 -23 16 -30
9 -7 21 -25 26 -39 l10 -25 11 24 c9 19 8 26 -6 36 -22 16 -23 60 -2 51 8 -3
15 -1 15 5 0 5 8 9 17 7 10 -2 18 3 18 10 0 15 41 41 65 41 13 1 13 0 0 -10
-13 -8 -12 -10 4 -7 11 2 20 11 22 21 3 21 -6 21 -51 0 -19 -9 -38 -13 -42
-10 -8 9 27 36 47 37 32 1 41 16 34 56 -5 33 -43 104 -44 82z"/>
<path d="M837 1909 c-16 -9 -15 -13 8 -47 14 -20 25 -43 25 -50 0 -9 6 -12 16
-8 9 3 17 6 18 6 2 0 1 11 -1 24 -3 16 -13 26 -27 28 -11 2 -20 9 -18 16 1 6
-4 12 -10 12 -8 0 -5 7 6 15 22 17 10 20 -17 4z"/>
<path d="M1150 1895 c-19 -7 -50 -14 -69 -14 -26 -1 -32 -4 -27 -17 3 -9 6
-18 6 -20 0 -2 11 -4 25 -4 14 0 25 4 25 9 0 5 -10 7 -22 5 -13 -2 5 6 40 17
34 11 62 25 62 30 0 5 -1 9 -2 8 -2 0 -19 -7 -38 -14z"/>
<path d="M1500 1874 c0 -25 15 -30 40 -14 12 8 10 10 -10 11 l-25 1 25 7 25 7
-27 6 c-24 4 -28 2 -28 -18z"/>
<path d="M631 1853 c0 -25 1 -26 10 -8 6 14 8 2 6 -43 -1 -44 2 -62 11 -62 8
0 12 21 12 70 0 63 -2 70 -20 70 -15 0 -20 -6 -19 -27z"/>
<path d="M685 1808 c0 -40 5 -76 10 -80 16 -12 77 -10 70 2 -4 6 -11 8 -16 5
-5 -4 -9 5 -9 19 0 18 -5 26 -18 26 -11 0 -18 7 -18 20 0 13 7 20 18 20 12 0
18 8 18 23 1 22 1 22 15 -3 8 -14 14 -21 15 -17 0 5 7 1 16 -7 8 -9 22 -16 30
-16 23 0 16 34 -11 47 -18 8 -25 8 -25 0 0 -6 -6 -3 -12 5 -7 9 -29 20 -48 23
l-35 6 0 -73z"/>
<path d="M1160 1870 c-24 -8 -23 -8 8 -9 17 -1 32 4 32 9 0 11 -5 11 -40 0z"/>
<path d="M1396 1869 c-22 -5 -42 -12 -45 -16 -8 -8 86 6 113 17 20 8 20 9 -4
8 -14 0 -43 -4 -64 -9z"/>
<path d="M1840 1854 c-25 -7 -39 -13 -32 -13 7 -1 10 -5 7 -11 -3 -5 1 -10 10
-10 9 0 13 5 10 10 -4 6 7 13 25 16 17 4 33 11 36 15 6 11 2 10 -56 -7z"/>
<path d="M1004 1851 c3 -5 16 -11 28 -14 22 -6 22 -5 4 8 -22 17 -40 20 -32 6z"/>
<path d="M1311 1851 c-8 -5 -19 -7 -26 -5 -15 6 -7 -53 8 -63 6 -4 8 0 4 10
-4 11 -1 17 9 17 8 0 12 -4 9 -10 -3 -5 0 -7 8 -4 8 3 20 -2 27 -11 11 -13 15
-13 21 -3 6 10 13 10 26 2 14 -9 21 -8 30 5 12 14 12 14 7 -1 -4 -12 -1 -18
10 -18 14 0 18 5 15 27 0 4 8 10 18 14 35 14 -40 9 -79 -5 -21 -8 -38 -10 -38
-5 0 5 -8 9 -19 9 -10 0 -24 7 -31 15 -10 12 -10 15 4 15 9 0 16 -4 16 -10 0
-5 4 -10 9 -10 5 0 7 9 4 20 -6 22 -11 24 -32 11z"/>
<path d="M473 1843 c-10 -3 -9 -11 2 -34 9 -16 15 -31 15 -34 0 -3 2 -5 5 -5
3 0 14 0 25 0 11 0 20 5 20 11 0 5 -4 7 -10 4 -5 -3 -15 5 -22 19 -6 14 -15
26 -20 26 -5 0 -6 5 -3 10 7 11 6 11 -12 3z"/>
<path d="M939 1843 c-18 -4 -15 -43 3 -43 5 0 6 -4 3 -10 -3 -5 -1 -10 4 -10
6 0 11 -5 11 -11 0 -5 -4 -7 -10 -4 -6 4 -10 -7 -10 -24 0 -21 5 -31 15 -31
16 0 20 -15 7 -24 -5 -3 -7 -19 -4 -37 6 -39 22 -19 22 28 0 30 2 31 50 38 30
4 69 2 98 -6 47 -11 123 -6 121 9 0 4 -4 16 -9 27 -8 19 -9 19 -9 -3 -2 -41
-18 -14 -23 38 -3 28 -8 53 -11 56 -3 3 -19 3 -36 -1 -26 -5 -31 -11 -30 -33
l1 -27 8 25 c8 24 8 24 9 2 1 -18 5 -21 24 -17 18 5 23 2 24 -14 1 -12 -4 -21
-12 -21 -8 0 -19 -8 -24 -17 -10 -17 -10 -17 -11 0 0 9 -6 16 -12 15 -8 -2
-14 11 -16 33 -3 32 -7 37 -32 41 l-29 4 19 -31 c20 -33 26 -65 12 -65 -4 0
-17 7 -30 15 -20 14 -21 14 -16 0 4 -9 1 -15 -8 -15 -16 0 -51 67 -43 81 4 5
1 9 -4 9 -6 0 -11 7 -11 15 0 15 -10 17 -41 8z m56 -91 c5 -43 -25 0 -31 44
l-6 39 17 -30 c9 -16 18 -41 20 -53z"/>
<path d="M1220 1823 c0 -13 4 -23 10 -23 5 0 7 7 4 15 -4 8 -2 15 4 15 5 0 13
-33 16 -72 9 -98 27 -210 33 -205 2 3 0 38 -5 79 -6 40 -10 84 -11 98 -1 14
-3 34 -5 45 -3 11 -5 32 -5 47 -1 35 -41 36 -41 1z"/>
<path d="M1890 1831 c-7 -14 -21 -21 -40 -21 -36 0 -37 -4 -6 -41 13 -15 26
-34 28 -41 3 -9 12 -7 34 7 16 11 32 18 37 17 4 -1 7 9 7 23 0 30 -1 30 -28 6
-12 -10 -18 -22 -14 -26 4 -5 0 -4 -8 1 -8 5 -18 9 -22 9 -21 0 -14 15 17 36
34 23 40 39 18 46 -7 3 -17 -5 -23 -16z"/>
<path d="M1522 1833 c-17 -3 -22 -9 -17 -21 12 -33 16 -90 7 -96 -6 -3 -18 1
-27 10 -11 11 -25 14 -49 10 -24 -5 -37 -2 -46 9 -15 18 -36 20 -43 3 -3 -8
-6 -6 -6 5 -1 20 -17 23 -24 5 -4 -10 -6 -10 -6 0 -2 26 -21 11 -21 -17 0 -29
0 -29 39 -19 30 8 45 6 69 -6 17 -9 53 -16 80 -16 56 0 82 -20 82 -63 0 -34
20 -77 36 -77 7 0 16 -5 20 -11 3 -6 -1 -10 -12 -9 -35 4 -149 -3 -126 -7 25
-5 28 -13 10 -31 -9 -9 -7 -12 11 -12 12 0 19 4 16 10 -3 6 1 10 10 10 10 0
14 -5 10 -12 -3 -7 2 -3 11 10 20 27 34 28 34 2 0 -12 7 -20 18 -21 10 0 12
-3 5 -6 -8 -2 -13 -22 -13 -45 0 -37 2 -40 23 -34 12 3 25 6 30 6 4 0 7 11 7
25 0 20 -5 25 -27 26 l-28 1 25 8 c14 4 18 9 10 9 -12 1 -11 4 3 12 9 6 15 14
12 20 -4 5 -1 9 4 9 10 0 16 -38 12 -63 -1 -5 3 -6 9 -2 5 3 10 24 10 46 0 35
-3 40 -19 34 -20 -6 -38 20 -21 30 16 10 11 19 -15 31 -20 10 -25 9 -28 -5 -2
-9 -7 7 -11 36 -6 40 -13 54 -29 59 -18 6 -19 7 -3 16 9 5 24 8 34 7 50 -5 63
8 44 39 -11 16 -42 5 -42 -16 0 -12 -5 -10 -22 8 -16 17 -21 34 -19 62 1 21 1
37 -1 37 -2 -1 -13 -4 -26 -6z"/>
<path d="M1565 1830 c-3 -5 1 -10 9 -10 9 0 16 -7 16 -15 0 -8 7 -15 15 -15
22 0 19 27 -4 40 -24 12 -28 13 -36 0z"/>
<path d="M1724 1832 c3 -6 0 -13 -6 -15 -7 -3 -2 -6 10 -6 25 -1 26 19 2 27
-7 3 -10 0 -6 -6z"/>
<path d="M568 1813 c-31 -8 -21 -33 12 -33 17 0 30 2 30 4 0 12 -13 36 -19 35
-3 -1 -14 -3 -23 -6z"/>
<path d="M1635 1796 c4 -29 12 -43 19 -35 2 2 -2 18 -9 34 l-14 30 4 -29z"/>
<path d="M2260 1783 c0 -48 -8 -75 -21 -67 -5 3 -9 0 -9 -5 0 -13 10 -14 29
-2 16 10 23 81 10 102 -6 10 -9 1 -9 -28z"/>
<path d="M433 1791 c-4 -17 -9 -19 -24 -11 -15 9 -17 8 -12 -6 4 -12 3 -15 -5
-10 -7 4 -12 1 -12 -9 0 -12 7 -14 28 -9 45 10 52 13 52 24 0 6 -6 8 -12 4
-10 -6 -10 -4 0 8 9 12 10 18 2 23 -7 4 -14 -2 -17 -14z"/>
<path d="M2173 1803 c-18 -7 -16 -32 3 -40 13 -5 13 -7 2 -14 -10 -7 -10 -9 0
-9 8 0 11 -10 7 -32 -6 -34 -15 -51 -15 -29 0 8 -16 4 -44 -13 -25 -14 -54
-26 -66 -26 -21 0 -22 3 -17 68 6 62 2 63 -18 5 -4 -13 -12 -20 -19 -16 -6 4
-5 -1 3 -10 14 -18 9 -47 -8 -47 -6 0 -15 15 -20 33 l-9 32 -1 -36 -1 -37 58
-7 c39 -5 51 -10 38 -15 -14 -4 -16 -9 -8 -14 7 -4 12 -4 12 1 0 4 5 1 10 -7
8 -13 10 -12 10 3 0 9 5 17 11 17 5 0 7 5 3 11 -4 8 0 8 15 0 16 -9 19 -9 16
2 -3 7 2 21 11 32 13 17 15 17 10 2 -7 -23 24 -87 42 -87 9 0 5 10 -13 32
l-26 31 28 23 c15 13 31 23 34 24 6 0 -23 115 -31 123 -3 2 -11 2 -17 0z"/>
<path d="M1660 1794 c0 -2 5 -15 12 -29 13 -29 39 -34 33 -6 -4 21 3 21 50 2
22 -9 26 -14 16 -21 -8 -5 -11 -16 -7 -26 6 -18 5 -18 -8 -1 -10 14 -15 15
-19 5 -4 -10 -6 -10 -6 0 -1 6 -10 12 -22 12 -15 0 -19 -4 -15 -16 3 -9 6 -19
6 -23 0 -5 23 -6 52 -3 l51 5 -6 -37 c-3 -21 -2 -36 4 -36 6 0 3 -7 -5 -16
-20 -19 -20 -41 -2 -60 13 -12 16 -8 22 31 9 62 -2 126 -32 179 -24 43 -25 44
-74 43 -28 0 -50 -2 -50 -3z"/>
<path d="M2475 1790 c-20 -9 -20 -9 0 -9 11 0 27 4 35 9 13 9 13 10 0 9 -8 0
-24 -4 -35 -9z"/>
<path d="M883 1776 c3 -8 9 -31 13 -51 6 -35 6 -37 -14 -26 -31 16 -40 13 -14
-5 12 -8 26 -13 31 -10 5 3 11 -4 14 -15 4 -16 2 -19 -11 -14 -12 4 -11 0 5
-17 12 -13 24 -35 27 -51 2 -15 8 -37 11 -48 5 -15 4 -19 -5 -14 -19 12 4 -27
30 -50 12 -11 29 -37 37 -57 15 -39 41 -49 71 -29 10 6 4 13 -22 25 -20 9 -35
20 -35 24 1 4 1 9 -1 12 -11 29 -7 48 10 53 21 5 28 -9 8 -15 -7 -3 -6 -7 5
-11 11 -4 17 -1 17 7 0 8 10 17 23 22 16 6 2 9 -49 11 l-70 4 -14 62 c-7 34
-19 77 -27 95 -7 17 -9 32 -4 32 13 0 0 44 -16 53 -7 5 -11 12 -8 18 4 5 1 9
-5 9 -7 0 -10 -6 -7 -14z"/>
<path d="M797 1754 c4 -12 3 -15 -5 -10 -8 5 -12 0 -12 -12 0 -14 8 -21 31
-24 28 -4 30 -3 27 26 -2 23 -9 32 -25 34 -18 3 -22 0 -16 -14z"/>
<path d="M525 1750 c-76 -15 -130 -31 -140 -41 -10 -11 28 -4 73 12 13 5 33 9
45 8 l22 0 -22 -9 c-31 -12 -29 -17 7 -18 23 0 30 3 28 16 -2 13 6 18 40 20
23 2 42 7 42 13 0 10 -37 10 -95 -1z"/>
<path d="M1650 1734 c0 -11 3 -24 7 -28 4 -3 8 -34 9 -69 3 -81 4 -86 13 -62
13 31 4 133 -14 157 -15 22 -15 22 -15 2z"/>
<path d="M580 1721 c0 -5 11 -8 25 -8 13 0 22 3 19 8 -3 5 -14 9 -25 9 -10 0
-19 -4 -19 -9z"/>
<path d="M1942 1678 c-2 -48 -5 -58 -19 -59 -16 0 -16 -1 -1 -7 9 -4 36 -26
61 -49 25 -23 47 -39 51 -36 3 4 6 1 6 -5 0 -7 9 -21 20 -32 17 -17 24 -18 41
-10 17 10 18 14 7 28 -11 14 -11 15 6 9 17 -7 17 -6 5 9 -13 16 -12 16 8 6 31
-17 33 -16 33 18 0 35 -10 38 -36 9 -10 -12 -31 -27 -46 -35 -26 -13 -26 -13
-40 29 -8 25 -19 42 -28 42 -8 0 -19 6 -23 13 -4 6 -14 12 -22 12 -10 0 -15
17 -18 58 l-3 57 -2 -57z"/>
<path d="M2392 1706 c-38 -18 -43 -24 -37 -46 3 -14 9 -37 12 -52 6 -33 4 -32
49 -13 19 8 35 14 37 14 10 -3 87 24 102 35 19 15 18 15 -17 16 -23 0 -37 -4
-35 -11 1 -6 -3 -13 -8 -15 -11 -4 -35 50 -35 79 0 21 -13 20 -68 -7z m62 -43
c3 -7 1 -13 -5 -13 -6 0 -8 -7 -5 -16 5 -12 -1 -15 -27 -12 -17 2 -35 7 -39
12 -6 9 10 46 26 58 11 7 44 -11 50 -29z"/>
<path d="M443 1703 c-13 -2 -23 -8 -23 -12 0 -5 11 -6 25 -3 14 2 25 8 25 13
0 5 -1 8 -2 8 -2 -1 -13 -4 -25 -6z"/>
<path d="M1872 1665 c-22 -46 -49 -201 -38 -212 7 -7 76 37 76 48 0 6 5 7 10
4 7 -4 7 -12 0 -25 -13 -24 -13 -40 0 -20 8 13 10 12 10 -5 0 -14 3 -16 11 -8
12 12 39 7 39 -7 0 -5 -16 -25 -35 -44 -19 -20 -35 -40 -35 -44 0 -10 83 -92
93 -92 3 0 11 8 16 19 8 14 5 23 -13 40 -18 17 -26 19 -31 10 -5 -8 -4 -10 3
-5 7 4 12 2 12 -3 0 -13 -10 -14 -29 -2 -12 8 -12 12 -2 24 8 10 9 17 1 22 -5
3 -10 11 -10 17 0 6 7 5 17 -3 14 -12 16 -12 8 0 -6 11 -4 13 7 8 9 -3 21 0
28 6 10 9 11 7 5 -13 -7 -22 -6 -23 9 -11 9 7 16 17 16 22 0 10 -122 129 -132
129 -14 0 -9 40 5 40 8 0 7 4 -3 10 -12 8 -12 10 -1 10 10 0 11 3 3 13 -6 7
-12 37 -14 67 l-3 55 -23 -50z"/>
<path d="M750 1689 c0 -5 -9 -9 -20 -9 -13 0 -20 -7 -20 -19 0 -27 10 -51 22
-51 5 0 7 4 4 9 -4 5 3 7 14 4 11 -3 20 0 20 6 0 6 -6 11 -12 11 -10 0 -9 3 1
9 11 7 11 9 0 13 -26 9 -2 18 30 12 23 -5 29 -9 19 -15 -11 -7 -10 -11 2 -19
23 -15 30 -12 30 15 0 25 -2 26 -72 40 -10 2 -18 -1 -18 -6z"/>
<path d="M503 1679 c-13 -5 -23 -11 -23 -14 0 -4 5 -3 10 0 6 4 10 -5 10 -19
0 -14 3 -25 8 -25 19 3 25 -2 12 -11 -11 -7 -8 -10 15 -9 17 0 25 3 20 5 -6 2
-9 19 -7 38 4 37 -10 48 -45 35z"/>
<path d="M565 1680 c-3 -5 -1 -10 6 -10 7 0 9 -9 6 -22 -6 -21 -5 -22 7 -5 13
16 15 15 25 -14 7 -20 8 -36 2 -42 -5 -5 -7 -16 -4 -23 3 -8 2 -14 -1 -14 -4
0 -11 10 -16 23 -8 20 -9 20 -9 -8 -1 -28 2 -30 35 -30 30 0 34 3 29 20 -3 11
-9 46 -12 78 -6 54 -7 57 -34 57 -15 0 -31 -4 -34 -10z"/>
<path d="M650 1665 c0 -14 5 -25 11 -25 5 0 8 4 4 9 -3 5 -1 12 5 16 6 4 10
-7 10 -27 0 -18 7 -57 15 -87 8 -30 17 -85 21 -123 4 -38 10 -71 15 -73 11 -7
0 96 -18 175 -9 36 -17 83 -19 105 -1 22 -3 43 -3 48 -1 4 -10 7 -21 7 -15 0
-20 -7 -20 -25z"/>
<path d="M1023 1670 c4 -14 7 -33 7 -43 0 -10 4 -16 9 -12 6 3 6 18 1 36 -11
38 -26 55 -17 19z"/>
<path d="M1110 1613 c1 -69 2 -76 15 -60 14 19 13 35 -1 72 -8 19 -7 19 10 3
22 -23 26 -23 26 3 0 11 -4 17 -10 14 -5 -3 -11 -1 -11 4 -1 6 -2 16 -3 23 0
6 -7 13 -13 16 -10 3 -13 -16 -13 -75z"/>
<path d="M1203 1670 c-11 -26 -7 -50 8 -50 5 0 9 -5 9 -11 0 -5 -4 -7 -10 -4
-5 3 -10 -1 -10 -10 0 -10 5 -13 12 -9 8 5 9 0 5 -15 -4 -17 -2 -21 9 -17 8 3
14 0 14 -6 0 -6 2 -9 4 -7 2 2 -4 38 -13 79 -16 68 -19 73 -28 50z"/>
<path d="M1300 1648 c0 -78 28 -125 43 -69 3 14 1 18 -9 14 -8 -3 -14 0 -14 6
0 6 5 11 12 11 6 0 4 7 -5 18 -10 10 -14 21 -11 25 3 3 1 14 -5 24 -8 15 -10
9 -11 -29z"/>
<path d="M1391 1680 c-1 -9 4 -21 11 -28 9 -9 9 -12 0 -12 -9 0 -10 -5 -3 -19
6 -10 7 -22 3 -27 -4 -5 2 -2 12 6 11 8 17 11 14 5 -3 -5 -2 -19 3 -30 5 -15
8 -8 8 25 0 46 -27 117 -29 75 -1 -20 -1 -20 -10 0 -6 14 -9 15 -9 5z"/>
<path d="M430 1663 c-8 -2 -22 -7 -30 -9 -12 -4 -11 -7 4 -16 15 -8 21 -8 24
0 6 19 19 14 26 -10 5 -18 8 -20 15 -9 5 7 6 22 4 32 -5 19 -15 22 -43 12z"/>
<path d="M1704 1654 c3 -9 6 -24 6 -35 0 -10 4 -19 8 -19 5 0 8 10 6 23 -1 12
-3 28 -3 35 -1 6 -6 12 -12 12 -6 0 -8 -7 -5 -16z"/>
<path d="M1620 1636 c0 -2 7 -9 15 -16 12 -10 15 -10 15 4 0 9 -7 16 -15 16
-8 0 -15 -2 -15 -4z"/>
<path d="M810 1613 c0 -5 6 -15 13 -22 10 -10 9 -11 -5 -6 -13 5 -18 2 -18
-10 0 -16 -2 -17 -17 -3 -26 23 -63 32 -63 16 1 -32 17 -41 65 -34 30 4 53 2
61 -5 18 -15 20 11 2 29 -18 18 -4 23 31 11 18 -6 35 -8 39 -5 10 11 -20 26
-50 26 -14 0 -33 3 -42 6 -9 3 -16 2 -16 -3z"/>
<path d="M2332 1600 c-6 -11 -12 -37 -12 -57 -1 -21 -5 -57 -9 -81 -8 -39 -6
-44 19 -62 25 -17 29 -18 40 -5 11 13 10 14 -2 10 -12 -5 -18 7 -26 50 -11 54
-10 70 10 111 6 13 7 28 1 38 -7 14 -10 13 -21 -4z"/>
<path d="M660 1578 c0 -15 5 -30 10 -33 13 -8 13 25 0 45 -8 12 -10 9 -10 -12z"/>
<path d="M2107 1581 c-3 -14 -1 -18 9 -14 16 6 18 19 5 27 -5 3 -11 -3 -14
-13z"/>
<path d="M510 1570 c0 -12 -10 -24 -22 -30 l-23 -9 25 -2 c36 -3 72 0 78 5 2
3 2 17 -2 31 -8 32 -56 37 -56 5z"/>
<path d="M1710 1568 c0 -21 11 -23 28 -6 18 18 15 27 -8 25 -12 -1 -20 -8 -20
-19z"/>
<path d="M2460 1580 c0 -5 4 -10 9 -10 5 0 7 -8 4 -19 -3 -10 0 -22 6 -25 6
-4 11 -12 11 -17 0 -6 -4 -7 -10 -4 -6 3 -7 -1 -4 -9 7 -18 13 -19 30 -8 16
10 -14 102 -32 102 -8 0 -14 -4 -14 -10z"/>
<path d="M433 1572 c-15 -10 -6 -49 13 -56 16 -6 19 20 3 29 -6 4 -8 13 -5 21
6 16 5 16 -11 6z"/>
<path d="M461 1568 c-1 -23 25 -23 33 -2 5 14 4 15 -8 5 -11 -9 -15 -9 -19 1
-4 8 -6 7 -6 -4z"/>
<path d="M1938 1569 c7 -9 10 -25 6 -35 -5 -16 -4 -16 5 -4 6 8 11 12 12 8 1
-5 3 -12 4 -18 1 -5 3 -16 4 -22 1 -9 4 -8 11 2 8 13 11 12 23 -5 8 -10 13
-25 10 -31 -5 -14 26 -34 43 -27 6 2 19 -6 29 -17 20 -22 8 -28 -15 -7 -8 6
-6 2 5 -11 11 -13 21 -19 23 -13 2 6 8 9 13 5 43 -26 -108 130 -179 186 -3 3
-1 -2 6 -11z"/>
<path d="M2277 1563 c-2 -10 -8 -26 -12 -35 -4 -10 -3 -18 1 -18 5 0 14 16 20
35 6 19 8 35 4 35 -4 0 -10 -8 -13 -17z"/>
<path d="M2222 1545 c-6 -14 -10 -25 -7 -25 7 0 35 32 35 41 0 18 -17 9 -28
-16z"/>
<path d="M2392 1519 c16 -89 18 -91 53 -62 17 14 21 21 11 15 -31 -16 -52 16
-55 81 -1 9 -5 17 -10 17 -4 0 -4 -23 1 -51z"/>
<path d="M741 1523 c-1 -13 2 -23 7 -23 4 0 5 -21 3 -47 -3 -39 -1 -45 13 -40
10 4 16 1 16 -8 0 -8 -4 -15 -10 -15 -5 0 -10 -8 -9 -17 0 -10 3 -13 5 -6 3 7
11 10 18 7 7 -3 13 1 13 8 0 7 4 22 9 32 5 14 4 17 -4 12 -16 -10 -15 7 1 23
10 10 8 11 -7 5 -13 -5 -17 -4 -12 4 4 7 2 12 -3 12 -6 0 -11 14 -11 31 0 16
-4 28 -9 25 -5 -4 -12 0 -14 6 -3 7 -6 3 -6 -9z"/>
<path d="M1342 1532 c-25 -3 -32 -7 -28 -19 3 -8 6 -19 6 -24 0 -5 9 -9 20 -9
14 0 20 7 21 23 1 21 1 21 9 -3 8 -24 8 -24 9 -2 1 24 21 31 21 7 0 -8 7 -15
15 -15 21 0 19 -20 -2 -21 -15 0 -15 -2 2 -9 17 -7 17 -9 3 -9 -11 -1 -18 -9
-18 -19 0 -10 -7 -19 -15 -19 -8 0 -15 6 -15 14 0 7 -9 13 -20 13 -15 0 -20
-7 -20 -26 0 -25 1 -26 63 -20 34 2 81 5 105 5 40 1 41 2 30 21 -15 23 -28 26
-28 7 0 -7 -11 -14 -25 -15 -24 -2 -25 0 -25 64 l0 65 -37 -3 c-21 -2 -53 -4
-71 -6z"/>
<path d="M2170 1528 c0 -10 5 -18 10 -18 6 0 1 -18 -10 -40 -21 -41 -36 -54
-26 -22 5 13 -1 17 -27 19 l-32 2 27 -24 c17 -15 26 -30 22 -39 -4 -10 -1 -16
8 -16 8 0 23 -9 33 -20 14 -15 21 -17 32 -9 7 6 13 18 13 25 0 8 9 22 20 31
23 20 27 53 7 53 -14 0 -38 21 -62 55 -13 18 -14 18 -15 3z m48 -106 c-4 -2
-5 -9 -1 -15 4 -7 0 -8 -12 -4 -9 4 -23 3 -30 -3 -20 -16 -27 4 -13 35 6 15
17 24 25 21 7 -3 13 0 13 7 0 7 6 1 13 -13 7 -14 9 -27 5 -28z"/>
<path d="M681 1478 c4 -29 8 -63 8 -75 1 -13 5 -23 9 -23 10 0 -7 131 -17 143
-4 4 -4 -16 0 -45z"/>
<path d="M890 1523 c0 -7 -8 -13 -18 -13 -12 0 -18 -9 -20 -27 -1 -24 0 -25 9
-10 5 9 14 17 19 17 16 0 11 -30 -5 -36 -8 -4 -15 -14 -15 -23 0 -14 2 -14 10
-1 6 10 10 11 10 3 0 -24 -2 -28 -12 -25 -5 1 -6 -2 -3 -8 4 -6 10 -9 13 -6 3
3 11 1 19 -5 11 -9 13 0 13 52 0 35 -5 71 -10 79 -6 10 -10 11 -10 3z"/>
<path d="M1112 1490 c2 -36 5 -40 27 -39 24 0 24 1 6 9 -19 7 -19 8 5 18 14 5
24 12 23 16 -2 3 -3 12 -2 19 1 6 5 1 9 -13 5 -17 8 -19 9 -7 1 23 21 22 21
-2 0 -14 5 -18 20 -14 11 3 20 0 20 -6 0 -6 -10 -11 -22 -12 -22 -1 -22 -1 2
-9 l25 -8 -22 -7 c-13 -4 -23 -14 -23 -21 0 -20 -18 -17 -23 4 -4 13 -5 13 -6
-4 -1 -22 21 -34 64 -34 19 0 20 5 17 75 l-4 75 -74 0 -75 0 3 -40z"/>
<path d="M1288 1508 c-3 -15 -2 -25 3 -23 4 3 10 -5 12 -17 4 -22 4 -21 5 2 0
14 -3 34 -7 45 -7 17 -8 17 -13 -7z"/>
<path d="M615 1473 c2 -26 4 -51 5 -54 1 -13 37 -48 44 -42 11 12 6 43 -8 43
-14 0 -26 29 -26 67 0 12 -4 25 -10 28 -6 4 -8 -13 -5 -42z"/>
<path d="M1788 1515 c-3 -3 -23 -7 -44 -9 -31 -3 -40 -8 -45 -28 -5 -21 -3
-25 15 -24 11 1 20 7 18 14 -1 9 9 10 38 6 38 -6 40 -5 40 20 0 24 -9 33 -22
21z"/>
<path d="M2366 1495 c8 -37 14 -45 14 -19 0 10 -5 26 -10 34 -8 11 -9 7 -4
-15z"/>
<path d="M515 1473 c7 -39 45 -113 58 -113 11 0 9 18 -3 25 -6 4 -7 11 -4 17
4 6 2 8 -4 4 -6 -3 -13 -2 -17 4 -3 5 -2 10 4 10 6 0 8 7 5 15 -4 8 -1 15 5
15 6 0 11 7 11 16 0 14 -3 14 -15 4 -15 -13 -20 -5 -16 28 1 6 -6 12 -15 12
-13 0 -15 -6 -9 -37z"/>
<path d="M2543 1504 c-13 -6 14 -44 30 -44 5 0 4 7 -4 16 -10 13 -10 17 2 25
12 7 12 9 -1 8 -8 0 -20 -3 -27 -5z"/>
<path d="M464 1483 c3 -10 9 -36 14 -59 5 -22 14 -49 21 -60 10 -15 11 -9 5
36 -3 30 -12 65 -20 78 -17 26 -27 29 -20 5z"/>
<path d="M2628 1470 c-2 -6 -35 -28 -73 -48 -38 -21 -71 -44 -73 -52 -4 -12
-2 -12 14 1 10 9 49 32 86 50 50 25 65 37 59 48 -6 10 -10 10 -13 1z"/>
<path d="M1546 1430 c8 -32 12 -36 23 -24 5 5 5 18 1 29 -6 13 -9 15 -9 5 -1
-13 -2 -13 -12 0 -8 11 -9 9 -3 -10z"/>
<path d="M1113 1415 c-10 -23 -9 -26 14 -31 29 -8 46 6 41 32 -5 30 -41 29
-55 -1z"/>
<path d="M1280 1409 c0 -16 4 -28 9 -25 8 5 3 56 -5 56 -2 0 -4 -14 -4 -31z"/>
<path d="M1300 1423 c0 -10 5 -25 10 -33 8 -12 10 -9 10 12 0 15 -4 30 -10 33
-5 3 -10 -2 -10 -12z"/>
<path d="M1660 1415 c0 -14 -6 -25 -12 -26 -7 -1 -29 -2 -48 -4 -19 -2 -84 -6
-144 -9 -60 -4 -112 -9 -116 -11 -5 -3 -6 -14 -3 -25 6 -22 29 -26 53 -9 12 9
11 10 -7 6 -13 -3 -25 -1 -28 3 -6 10 70 20 167 23 57 2 68 0 70 -15 2 -13 7
-15 18 -8 12 8 13 12 2 19 -10 6 -7 10 13 13 23 5 26 3 23 -21 -2 -20 -10 -27
-33 -31 -23 -4 -29 -10 -27 -25 5 -34 11 -45 24 -45 9 0 9 3 2 8 -13 9 -3 46
14 50 6 1 12 -5 12 -13 0 -8 5 -15 10 -15 6 0 10 -18 10 -39 0 -23 5 -41 13
-44 9 -3 9 -11 0 -35 -10 -27 -9 -32 4 -32 13 0 15 11 8 72 -3 40 -9 77 -13
83 -3 5 -5 43 -4 82 1 40 0 73 -3 73 -3 0 -5 -11 -5 -25z"/>
<path d="M1703 1424 c-7 -7 -13 -23 -13 -35 0 -16 4 -19 18 -13 9 4 34 9 55
12 31 3 37 8 37 28 0 29 -26 32 -33 4 -7 -25 -35 -26 -45 -1 -6 16 -9 17 -19
5z"/>
<path d="M1828 1415 c-4 -19 -1 -25 13 -25 19 0 26 14 12 23 -5 2 -2 2 5 0 21
-5 36 8 21 18 -26 16 -47 10 -51 -16z"/>
<path d="M2272 1420 c-1 -8 2 -32 7 -53 5 -21 5 -39 0 -43 -5 -3 -9 -1 -9 5 0
6 -7 8 -16 4 -11 -4 -12 -9 -5 -16 6 -6 11 -18 11 -26 0 -11 -6 -9 -23 7 -13
12 -27 22 -33 22 -5 0 2 -9 15 -19 17 -13 22 -23 16 -39 -6 -22 -35 -31 -35
-12 0 21 -16 9 -17 -12 0 -13 1 -17 4 -10 3 6 9 10 14 6 10 -6 2 -45 -16 -81
l-12 -23 -16 24 c-12 17 -13 26 -5 28 9 3 9 6 0 12 -7 4 -12 2 -12 -4 0 -6
-11 -8 -27 -4 l-28 5 26 -23 c14 -13 35 -28 45 -34 16 -10 17 -15 8 -31 -10
-17 -7 -22 32 -42 24 -13 44 -31 44 -40 0 -9 16 -36 35 -60 19 -24 35 -49 35
-55 0 -6 7 -19 14 -29 11 -13 19 -15 37 -8 24 10 24 10 -4 10 -42 1 -22 21 21
21 33 1 35 2 17 13 -11 6 -24 12 -29 12 -5 0 -11 7 -13 15 -4 13 -3 13 6 0 17
-24 13 -2 -5 25 -9 14 -23 25 -32 25 -13 0 -12 -3 3 -20 18 -19 17 -20 -6 -20
-19 0 -21 2 -9 10 12 8 10 10 -10 10 -16 0 -21 3 -12 8 9 6 6 14 -13 32 -14
13 -25 28 -25 35 0 6 -13 19 -30 28 -16 10 -30 22 -30 26 0 25 56 142 90 187
22 29 38 59 37 66 -2 7 -2 10 0 5 3 -4 9 -4 15 -1 13 9 -21 44 -37 38 -8 -4
-15 4 -18 18 -2 13 -5 16 -5 8z"/>
<path d="M1865 1386 c-11 -8 -25 -12 -32 -9 -9 3 -13 -4 -14 -23 -2 -42 -7
-85 -13 -100 -3 -7 0 -14 6 -16 7 -3 7 -20 -1 -58 -8 -36 -8 -57 -1 -64 6 -6
10 -6 11 -1 0 6 3 33 5 60 6 68 8 72 43 80 21 4 31 13 31 25 0 30 -19 34 -40
8 -15 -18 -19 -19 -20 -7 0 28 22 79 32 73 5 -3 7 -12 4 -20 -3 -8 -1 -14 4
-14 6 0 10 18 10 40 0 45 0 45 -25 26z"/>
<path d="M2040 1371 c-8 -17 -8 -26 0 -36 8 -10 8 -14 -2 -18 -8 -3 -9 -6 -2
-6 7 -1 19 11 29 25 15 23 15 28 2 41 -13 14 -16 13 -27 -6z"/>
<path d="M2140 1354 c14 -15 19 -24 13 -20 -15 8 -18 -10 -4 -18 11 -7 41 3
41 14 0 4 -17 18 -37 30 l-38 22 25 -28z"/>
<path d="M2629 1332 c-87 -62 -119 -90 -152 -133 -44 -59 -31 -52 46 24 39 40
98 88 130 106 31 19 57 39 57 43 0 15 -15 8 -81 -40z"/>
<path d="M888 1365 c-3 -4 -30 -9 -59 -12 -30 -3 -58 -9 -62 -13 -10 -9 9 -50
23 -50 21 0 38 13 33 26 -3 8 0 14 6 14 6 0 11 -8 12 -17 1 -12 4 -10 9 7 8
25 8 25 15 3 4 -12 13 -19 20 -17 7 3 16 1 20 -5 3 -6 -1 -11 -9 -11 -8 0 -17
-4 -20 -9 -3 -4 7 -6 22 -4 26 3 26 3 5 -8 -14 -7 -23 -21 -23 -36 0 -17 -6
-23 -22 -24 -56 -1 -118 -10 -186 -26 -65 -15 -72 -19 -69 -40 4 -31 12 -36
27 -18 10 12 10 15 -1 15 -41 2 59 35 136 46 179 25 175 24 170 48 -3 11 -7
46 -9 76 -2 38 -7 56 -17 58 -8 1 -18 0 -21 -3z"/>
<path d="M950 1349 c9 -16 14 -18 26 -8 8 6 16 10 18 8 8 -10 35 -79 51 -131
9 -31 22 -58 28 -60 7 -2 53 -4 102 -3 l90 1 3 42 c2 24 -1 42 -7 42 -6 0 -8
-7 -5 -15 4 -8 1 -15 -6 -15 -6 0 -9 -4 -5 -9 3 -5 1 -12 -4 -15 -5 -4 -12 2
-14 11 -4 14 -5 13 -6 -4 0 -13 -5 -23 -11 -23 -5 0 -10 10 -11 23 -1 21 -1
21 -9 -3 -8 -24 -8 -24 -9 -2 -1 15 -7 22 -20 22 -22 0 -22 27 0 41 12 7 12 9
-1 9 -12 1 -11 3 3 11 26 15 20 29 -14 29 l-30 0 6 -54 c8 -59 -2 -74 -35 -56
-33 18 -43 47 -25 72 12 19 15 19 15 5 0 -10 7 -17 18 -16 9 0 12 3 6 5 -7 3
-10 14 -7 24 5 17 0 20 -31 20 -37 0 -49 15 -18 23 16 4 16 5 0 6 -39 2 -15
21 27 21 33 0 45 -4 45 -15 0 -9 9 -15 25 -15 14 0 25 4 25 9 0 5 -10 7 -22 3
-14 -3 -19 -2 -14 6 8 13 74 16 103 5 16 -6 15 -8 -7 -13 l-25 -6 27 -6 c22
-4 27 -1 31 19 l5 25 -134 -4 c-74 -2 -134 0 -134 5 0 4 -14 7 -30 7 -28 0
-30 -2 -20 -21z"/>
<path d="M1298 1363 c-10 -2 -18 -8 -18 -13 0 -5 8 -6 17 -3 12 5 15 2 10 -10
-3 -9 -2 -19 3 -22 6 -4 10 7 10 24 0 17 -1 30 -2 30 -2 -1 -11 -3 -20 -6z"/>
<path d="M1718 1362 c-49 -6 -30 -19 25 -18 36 1 54 5 54 14 0 12 -9 12 -79 4z"/>
<path d="M613 1349 c-10 -3 -24 -4 -30 -2 -16 6 -16 -1 -2 -49 5 -21 14 -38
19 -38 5 0 7 7 4 15 -4 8 -1 15 6 15 7 0 10 7 6 16 -10 27 6 38 23 16 19 -26
61 -20 61 8 0 19 -53 31 -87 19z"/>
<path d="M2425 1318 c-20 -24 -46 -48 -58 -55 -19 -11 -20 -12 -3 -13 17 0
106 85 106 103 0 14 -9 7 -45 -35z"/>
<path d="M1488 1343 c12 -2 30 -2 40 0 9 3 -1 5 -23 4 -22 0 -30 -2 -17 -4z"/>
<path d="M712 1328 c7 -19 38 -22 38 -4 0 10 -9 16 -21 16 -12 0 -19 -5 -17
-12z"/>
<path d="M2066 1305 c-10 -20 -25 -41 -36 -47 -10 -6 -16 -18 -13 -25 3 -8 -3
-20 -13 -28 -11 -8 -16 -15 -11 -15 10 0 -18 -53 -38 -74 -15 -15 -15 -16 4
-16 26 0 34 -15 16 -30 -14 -11 -19 -7 -16 12 1 10 -91 -1 -106 -14 -7 -6 -13
-16 -13 -23 0 -9 16 -11 64 -8 l65 6 32 -46 c27 -39 35 -45 48 -34 12 9 13 9
7 0 -4 -8 -2 -13 4 -13 7 0 9 7 6 16 -3 9 -6 18 -6 20 0 2 -10 4 -21 4 -16 0
-20 5 -16 20 3 11 1 20 -5 20 -5 0 -16 7 -25 15 -13 14 -10 21 31 69 25 30 46
56 46 59 0 3 -11 0 -25 -6 -14 -7 -25 -19 -25 -28 0 -9 -9 -19 -20 -22 -11 -3
-20 -1 -20 4 0 5 4 9 9 9 5 0 12 13 16 28 3 15 19 43 35 62 16 18 26 38 23 43
-6 11 37 58 48 52 4 -3 4 -18 0 -33 -4 -15 -6 -33 -4 -40 3 -8 -1 -10 -11 -6
-24 9 -49 -15 -35 -32 17 -21 23 -18 61 31 19 24 37 44 40 42 2 -1 -12 13 -31
30 -20 18 -39 33 -42 33 -4 0 -14 -16 -23 -35z"/>
<path d="M456 1311 c-10 -11 -33 -27 -51 -36 l-34 -15 5 -92 c2 -50 9 -97 15
-104 7 -8 7 -14 -1 -19 -19 -12 0 -26 21 -15 21 12 27 35 7 25 -7 -4 -2 3 11
14 13 12 28 21 35 21 6 0 3 -7 -6 -14 -24 -18 -23 -25 2 -19 14 4 20 14 20 34
0 35 1 35 -45 8 -20 -12 -39 -19 -42 -15 -8 8 25 34 55 42 26 7 27 23 7 99
-13 53 -13 57 7 77 16 16 22 18 29 7 5 -8 9 -18 9 -22 0 -5 12 -7 27 -5 18 2
27 10 29 26 4 20 0 22 -40 22 -30 0 -48 -6 -60 -19z m-24 -84 c7 4 9 0 5 -10
-4 -10 -1 -17 6 -17 7 0 5 -5 -4 -10 -11 -6 -15 -19 -12 -37 4 -22 2 -25 -6
-13 -6 8 -11 25 -11 38 0 16 -4 21 -12 16 -10 -6 -10 -4 0 7 6 7 13 22 13 34
1 17 2 17 6 2 2 -9 9 -14 15 -10z"/>
<path d="M1480 1311 c0 -6 5 -13 10 -16 8 -5 8 -11 1 -19 -12 -14 7 -18 44
-11 34 7 29 42 -7 49 -41 8 -48 8 -48 -3z m54 -26 c-6 -16 -24 -21 -24 -7 0
11 11 22 21 22 5 0 6 -7 3 -15z"/>
<path d="M1767 1313 c-13 -12 -7 -43 8 -43 9 0 15 9 15 25 0 24 -10 32 -23 18z"/>
<path d="M1420 1280 c0 -22 5 -30 18 -30 13 0 14 -2 3 -9 -11 -7 -11 -9 0 -14
8 -3 5 -6 -8 -6 -14 -1 -23 -8 -25 -23 -2 -13 -10 -23 -18 -23 -8 0 -14 6 -12
13 1 6 -7 12 -18 12 -14 0 -20 -7 -20 -24 0 -20 6 -25 34 -28 19 -2 33 -1 30
3 -12 20 28 28 113 23 55 -3 94 -1 97 5 4 6 13 8 21 4 11 -4 15 2 15 20 0 16
-7 26 -19 30 -25 6 -31 0 -31 -30 0 -12 -4 -23 -9 -23 -13 0 -32 26 -24 33 3
4 1 7 -5 7 -7 0 -12 -7 -12 -16 0 -12 -7 -14 -29 -9 -16 3 -32 2 -35 -4 -4 -6
-12 -8 -19 -5 -8 3 -11 24 -9 64 4 55 2 60 -17 60 -17 0 -21 -6 -21 -30z"/>
<path d="M680 1290 l-25 -8 28 -1 c15 -1 27 4 27 9 0 6 -1 10 -2 9 -2 -1 -14
-5 -28 -9z"/>
<path d="M1191 1273 l1 -28 7 25 7 25 8 -22 c5 -15 15 -23 30 -23 17 0 22 5
21 23 -1 18 -8 23 -38 25 -35 3 -37 2 -36 -25z"/>
<path d="M1309 1295 c-7 -14 1 -135 9 -135 4 0 6 24 4 52 -4 79 -6 94 -13 83z"/>
<path d="M1341 1258 c0 -24 3 -37 6 -30 2 6 11 12 19 12 8 0 14 10 15 23 0 21
1 21 9 2 5 -11 9 -15 9 -8 1 6 4 18 7 27 5 13 -1 16 -30 16 -36 0 -36 0 -35
-42z"/>
<path d="M1694 1284 c3 -9 6 -20 6 -25 0 -5 7 -9 15 -9 9 0 15 9 15 25 0 19
-5 25 -21 25 -15 0 -19 -4 -15 -16z"/>
<path d="M2886 1278 c-10 -41 -7 -58 13 -58 14 0 18 7 17 37 -1 41 -20 55 -30
21z"/>
<path d="M745 1255 c7 -31 12 -41 19 -34 2 2 -3 18 -11 34 l-14 30 6 -30z"/>
<path d="M771 1253 c6 -18 15 -33 20 -33 15 0 10 16 -11 41 l-20 24 11 -32z"/>
<path d="M801 1256 c14 -31 69 -43 61 -13 -4 14 -7 16 -13 5 -7 -10 -9 -10 -9
0 0 6 -8 12 -17 12 -15 0 -16 2 -3 10 12 8 11 10 -7 10 -20 0 -21 -3 -12 -24z"/>
<path d="M680 1261 c0 -6 5 -13 10 -16 6 -4 7 -11 4 -17 -4 -6 -10 -5 -15 3
-7 11 -9 10 -9 -5 0 -12 5 -16 16 -12 9 3 24 6 35 6 16 0 17 3 7 25 -11 24
-48 36 -48 16z"/>
<path d="M1761 1238 c-5 -13 -13 -32 -17 -43 -6 -18 -8 -18 -11 -2 -6 24 -20
21 -26 -5 -8 -30 -5 -31 38 -11 31 15 36 21 33 45 -3 15 0 30 6 32 7 3 6 5 -2
5 -7 1 -16 -9 -21 -21z"/>
<path d="M2857 1243 c4 -11 3 -14 -5 -9 -8 5 -10 2 -5 -9 5 -13 7 -14 14 -3
12 18 11 38 -1 38 -5 0 -6 -7 -3 -17z"/>
<path d="M590 1219 c0 -18 -4 -28 -10 -24 -6 4 -8 11 -5 16 4 5 3 14 -1 20 -4
7 -11 2 -18 -12 -12 -24 -36 -37 -36 -20 0 6 7 11 15 11 8 0 15 5 15 10 0 13
-6 13 -31 0 -37 -20 -23 -40 29 -38 50 1 112 17 112 29 0 25 -15 39 -41 39
-26 0 -29 -4 -29 -31z"/>
<path d="M966 1242 c-14 -13 -4 -22 25 -22 16 0 28 4 25 9 -7 11 -43 21 -50
13z"/>
<path d="M1956 1238 c5 -8 0 -9 -14 -6 -13 4 -22 1 -22 -5 0 -7 -3 -23 -7 -37
-5 -24 -4 -23 31 9 39 38 45 51 20 51 -9 0 -12 -5 -8 -12z"/>
<path d="M1879 1219 c-8 -41 -8 -59 1 -64 8 -5 8 -11 0 -20 -7 -9 -6 -16 6
-26 15 -12 16 -8 11 44 -2 32 -7 61 -11 64 -3 4 -6 4 -7 2z"/>
<path d="M1288 1185 c-3 -14 -1 -25 3 -25 5 0 9 11 9 25 0 14 -2 25 -4 25 -2
0 -6 -11 -8 -25z"/>
<path d="M2799 1195 c-43 -25 -83 -43 -119 -54 -35 -10 -35 -10 -5 -9 85 1
107 -2 102 -16 -3 -7 0 -13 6 -13 66 2 91 -5 117 -32 24 -24 31 -26 41 -15 9
11 8 18 -1 29 -8 10 -11 33 -8 66 l5 51 -36 -5 c-20 -2 -45 -1 -57 4 -13 4
-30 2 -45 -6z m55 -26 c3 1 16 0 29 0 16 -1 18 -2 5 -6 -10 -2 -18 -8 -18 -13
0 -11 30 -21 41 -14 5 3 9 0 9 -7 0 -6 -8 -9 -20 -6 -11 3 -20 0 -20 -6 0 -6
-6 -4 -12 5 -17 21 -43 29 -55 17 -7 -7 -19 -6 -36 2 -24 11 -25 13 -10 24 8
6 26 10 39 7 16 -3 24 0 24 9 0 12 2 12 9 1 4 -8 11 -13 15 -13z"/>
<path d="M962 1192 c-28 -9 -9 -17 33 -14 25 2 45 8 45 13 0 9 -53 10 -78 1z"/>
<path d="M855 1180 c-18 -8 -17 -9 8 -9 15 -1 27 4 27 9 0 12 -8 12 -35 0z"/>
<path d="M1937 1161 c-11 -14 -10 -14 6 -2 9 7 17 10 17 6 0 -5 -8 -18 -17
-29 -17 -20 -17 -20 0 -7 10 8 22 22 27 31 12 22 -16 23 -33 1z"/>
<path d="M703 1163 c-13 -2 -23 -8 -23 -13 0 -5 12 -5 28 -1 15 4 32 6 39 4 6
-2 14 1 18 6 6 11 -18 12 -62 4z"/>
<path d="M1760 1150 c0 -13 -7 -20 -20 -20 -11 0 -20 -4 -20 -10 0 -5 11 -10
25 -10 21 0 25 5 25 30 0 17 -2 30 -5 30 -3 0 -5 -9 -5 -20z"/>
<path d="M499 1138 c-9 -19 -9 -21 2 -10 7 6 28 12 45 12 18 0 36 5 39 10 4 6
-10 10 -34 10 -32 0 -43 -5 -52 -22z"/>
<path d="M893 1153 c-34 -4 -39 -15 -27 -60 4 -15 14 -23 28 -22 20 0 20 1 1
9 -20 9 -20 9 1 15 16 5 20 13 17 28 -4 21 -4 21 10 4 15 -18 15 -18 20 0 4
16 6 15 12 -4 4 -13 12 -23 17 -23 5 0 6 -4 3 -10 -4 -6 6 -10 22 -9 15 0 22
3 16 6 -7 2 -13 9 -13 14 0 13 -52 59 -65 57 -5 -1 -25 -3 -42 -5z"/>
<path d="M1425 1151 c-8 -14 6 -20 43 -17 18 1 38 -4 44 -11 12 -15 38 -17 38
-3 0 15 -40 32 -66 27 -13 -2 -24 0 -24 4 0 12 -27 11 -35 0z"/>
<path d="M791 1138 c1 -7 5 -24 9 -38 8 -24 8 -24 9 7 1 17 -3 35 -9 38 -5 3
-10 0 -9 -7z"/>
<path d="M820 1139 c0 -5 4 -29 9 -52 6 -23 13 -59 16 -81 4 -24 10 -35 16
-29 5 5 3 31 -6 66 -8 32 -15 69 -15 82 0 14 -4 25 -10 25 -5 0 -10 -5 -10
-11z"/>
<path d="M725 1126 c-22 -7 -39 -15 -37 -19 1 -4 3 -17 3 -29 1 -19 3 -17 9 7
7 28 8 29 15 8 4 -14 17 -23 34 -26 l26 -3 -25 -12 -25 -12 30 3 c27 2 30 5
27 31 -7 59 -13 64 -57 52z"/>
<path d="M1254 1129 c-6 -8 -7 -27 -4 -44 5 -23 8 -26 14 -13 4 9 6 29 4 44
-2 22 -5 24 -14 13z"/>
<path d="M1308 1084 l-1 -59 -7 55 -7 55 -1 -52 c-1 -29 -6 -53 -12 -53 -5 0
-10 4 -10 9 0 4 -13 8 -30 7 -16 -1 -30 -4 -30 -7 0 -3 -14 -6 -30 -5 -37 2
-52 21 -44 58 3 14 0 29 -5 33 -7 4 -11 -9 -11 -35 0 -22 -7 -51 -14 -63 -14
-20 -12 -28 15 -84 16 -34 35 -85 42 -113 12 -51 21 -61 30 -36 7 17 -37 142
-57 165 -7 9 -17 26 -20 37 -7 21 -5 22 128 20 74 0 138 -4 142 -8 4 -5 -1 -8
-12 -9 -18 0 -18 -1 1 -9 17 -7 17 -9 3 -9 -11 -1 -18 -9 -18 -20 0 -11 -3
-27 -6 -36 -6 -14 2 -15 72 -10 102 9 137 12 149 15 31 7 35 -2 35 -78 0 -49
5 -83 13 -91 6 -8 7 -11 1 -8 -7 4 -14 -10 -18 -40 -9 -71 -9 -73 25 -73 16 0
28 4 25 9 -3 5 1 14 9 21 13 10 15 9 16 -11 1 -21 2 -21 6 -4 9 35 23 41 24 9
l1 -29 8 30 8 30 1 -27 c1 -21 6 -28 21 -28 16 0 20 7 20 33 l0 32 -76 -3
c-69 -3 -75 -2 -72 15 2 10 11 17 20 17 9 -1 19 7 21 17 3 11 2 19 -3 19 -4 0
-7 13 -6 29 1 16 5 27 10 24 17 -11 -7 42 -25 55 -30 21 -24 52 9 53 56 3 57
3 54 29 -5 32 -12 39 -12 12 0 -12 -4 -22 -10 -22 -5 0 -10 9 -10 20 0 16 -7
20 -30 20 -26 0 -30 -4 -30 -27 0 -21 -3 -24 -12 -15 -15 15 -32 16 -23 2 7
-12 -2 -12 -30 0 -11 5 -14 9 -7 9 27 2 10 18 -20 19 -31 1 -32 0 -14 -14 11
-7 16 -17 11 -21 -4 -5 -10 -2 -12 5 -4 9 -8 10 -18 2 -11 -9 -12 -7 -8 11 4
15 3 20 -5 15 -7 -4 -12 -13 -12 -20 0 -11 -39 -30 -46 -23 -8 7 -11 86 -4 89
4 2 10 12 12 23 2 15 -3 21 -20 23 -16 3 -22 8 -18 19 3 8 6 17 6 19 0 2 8 4
18 4 13 0 14 -2 3 -9 -11 -7 -11 -10 0 -17 7 -4 14 -3 17 4 5 16 41 14 72 -3
14 -8 34 -14 45 -15 38 0 -57 39 -110 45 -46 6 -54 5 -59 -12 -3 -10 -4 -28
-1 -41 2 -12 0 -22 -6 -22 -5 0 -9 17 -9 37 0 45 -11 38 -13 -9 -3 -49 -22
-35 -22 16 0 68 -15 67 -17 0z"/>
<path d="M1557 1120 c-6 -22 25 -46 43 -35 20 12 11 33 -12 27 -17 -4 -20 -2
-15 11 4 10 3 17 -2 17 -5 0 -11 -9 -14 -20z"/>
<path d="M1636 1118 c-9 -35 -8 -38 17 -37 20 1 20 2 2 7 -16 4 -11 7 20 17
33 11 35 13 15 14 -15 1 -31 6 -37 12 -7 7 -12 4 -17 -13z"/>
<path d="M538 1123 c12 -2 30 -2 40 0 9 3 -1 5 -23 4 -22 0 -30 -2 -17 -4z"/>
<path d="M1025 1120 c-3 -5 5 -12 19 -16 16 -4 23 -11 19 -20 -3 -9 1 -14 12
-14 13 0 16 6 11 23 -3 12 -6 25 -6 30 0 11 -48 9 -55 -3z"/>
<path d="M1780 1086 c0 -20 5 -36 11 -36 7 0 9 -10 7 -24 -3 -16 0 -27 10 -31
9 -3 12 -13 9 -25 -3 -12 -1 -18 5 -14 6 4 2 -5 -7 -20 -10 -15 -13 -26 -6
-26 6 0 11 -9 11 -20 0 -13 -7 -20 -20 -20 -19 0 -20 -7 -20 -90 0 -87 1 -90
19 -80 32 16 34 29 12 66 -12 19 -17 32 -11 29 6 -3 7 1 4 9 -4 10 1 18 12 22
11 3 31 12 45 20 14 7 40 15 58 16 17 1 31 6 31 10 0 4 3 7 8 6 4 0 23 6 42
15 21 9 37 11 41 6 8 -14 59 0 56 15 -1 7 11 10 35 8 20 -1 39 2 43 8 8 12
-30 100 -44 100 -21 0 -41 -13 -41 -26 0 -19 17 -18 28 2 8 14 10 14 22 -1 12
-15 11 -19 -10 -36 -14 -11 -37 -22 -52 -25 -16 -4 -28 -11 -28 -16 0 -5 -10
-8 -22 -7 -30 4 -150 -23 -138 -31 5 -3 0 -11 -10 -18 -17 -10 -20 -10 -20 3
0 8 -4 15 -8 15 -4 0 -9 17 -11 38 -4 67 -5 71 -16 69 -5 -1 -11 12 -11 28 -2
50 -4 56 -13 51 -5 -4 -7 2 -4 13 3 10 0 22 -6 25 -7 5 -11 -5 -11 -28z"/>
<path d="M2617 1107 c18 -7 33 -15 33 -19 0 -30 -1 -32 -13 -17 -7 9 -23 19
-37 23 -22 7 -22 5 5 -12 17 -10 48 -47 70 -82 22 -34 54 -77 72 -95 17 -18
29 -36 26 -38 -3 -3 5 -3 17 0 l22 6 -23 15 c-13 8 -35 28 -49 45 l-25 31 35
-20 c49 -27 58 -37 81 -91 14 -33 21 -66 20 -105 -1 -46 2 -58 13 -58 10 0 13
6 10 15 -3 8 -2 28 4 44 8 23 6 36 -13 69 -13 22 -21 43 -18 46 3 3 -6 19 -21
36 -14 17 -26 38 -26 46 0 9 -4 12 -10 9 -5 -3 -23 1 -40 10 -16 8 -30 12 -30
8 0 -5 -8 8 -17 27 -10 19 -24 40 -32 46 -25 20 3 22 34 3 17 -11 26 -19 22
-19 -4 0 -3 -6 3 -12 6 -7 17 -22 24 -32 13 -20 15 -19 72 7 58 26 80 47 50
47 -9 0 -16 4 -16 9 0 14 -68 -10 -75 -27 -4 -11 -2 -12 7 -5 19 15 58 23 58
12 0 -9 -15 -13 -33 -10 -5 1 -6 -3 -2 -8 3 -6 -4 -15 -15 -21 -17 -9 -21 -8
-27 7 -10 30 -53 83 -67 83 -7 0 -25 9 -39 20 -14 11 -38 20 -54 19 l-28 -1
32 -11z"/>
<path d="M638 1102 c-33 -4 -33 -10 -12 -83 20 -68 24 -72 52 -51 30 23 20 49
-20 57 -20 5 -26 10 -18 15 10 6 9 9 -1 13 -8 4 -1 4 14 0 27 -5 28 -4 21 23
-4 16 -7 29 -8 29 -1 0 -13 -1 -28 -3z"/>
<path d="M2320 1099 c-8 -4 -28 -11 -45 -14 -30 -7 -30 -7 -7 -16 13 -5 27 -7
31 -4 4 2 32 7 61 10 30 4 58 9 62 12 5 2 21 -3 36 -13 32 -22 77 -27 60 -7
-6 7 -16 13 -23 13 -7 0 -18 7 -25 15 -13 16 -123 19 -150 4z"/>
<path d="M520 1075 l-23 -24 27 -12 c19 -9 30 -9 37 -2 8 8 8 13 0 17 -6 4
-11 2 -11 -3 0 -6 -4 -11 -10 -11 -5 0 -10 7 -10 15 0 18 34 37 54 29 9 -3 16
-1 16 5 0 21 -56 12 -80 -14z"/>
<path d="M2110 1065 c-17 -19 -29 -23 -49 -19 -24 6 -25 5 -11 -9 21 -23 57
-11 76 24 18 35 14 36 -16 4z"/>
<path d="M994 1062 c-7 -4 -14 -16 -17 -27 -4 -18 -6 -18 -13 5 l-8 25 -7 -25
c-7 -25 -7 -25 -14 -3 -5 16 -14 22 -31 21 -20 -2 -23 -7 -22 -36 1 -29 4 -33
22 -28 12 4 58 9 104 13 45 3 82 10 82 15 0 4 -11 6 -24 2 -20 -5 -25 -2 -28
18 -3 24 -24 34 -44 20z"/>
<path d="M1720 1051 c0 -15 6 -21 21 -21 11 0 18 -4 14 -9 -3 -5 -1 -12 3 -15
5 -3 9 9 8 27 -1 25 -6 33 -24 35 -17 3 -22 -2 -22 -17z"/>
<path d="M2166 1053 c19 -16 54 -77 54 -92 0 -3 -9 5 -20 19 -15 19 -20 21
-20 9 0 -20 26 -43 39 -35 6 4 15 -3 21 -14 7 -13 7 -20 0 -20 -5 0 -10 5 -10
10 0 6 -5 10 -10 10 -6 0 0 -15 12 -32 13 -18 24 -35 25 -37 2 -2 6 -1 9 2 4
4 1 13 -6 22 -7 9 -10 18 -7 21 3 3 10 -4 17 -15 6 -12 15 -21 20 -21 15 0 12
14 -8 36 -10 10 -35 45 -55 76 -20 31 -46 62 -59 68 l-23 11 21 -18z"/>
<path d="M1437 1039 c-5 -19 -2 -20 59 -17 72 5 83 23 14 23 -25 0 -50 4 -56
8 -7 4 -14 -2 -17 -14z"/>
<path d="M1612 1030 c-2 -28 0 -30 30 -29 31 1 32 1 8 9 -24 8 -24 8 -2 9 12
1 22 7 22 16 0 8 5 15 10 15 6 0 10 -5 10 -11 0 -5 5 -7 10 -4 23 14 7 25 -38
25 -46 0 -48 -1 -50 -30z"/>
<path d="M2942 1043 c-5 -10 -7 -23 -5 -30 5 -14 -32 -27 -48 -17 -8 5 -9 3
-4 -6 6 -9 4 -12 -7 -8 -8 4 -21 2 -29 -4 -11 -8 -10 -9 4 -4 27 9 20 -2 -14
-19 -17 -9 -29 -19 -26 -21 6 -7 177 85 177 95 0 9 -22 31 -32 31 -4 0 -11 -8
-16 -17z"/>
<path d="M441 1025 c-19 -13 -37 -22 -41 -20 -10 6 -2 -164 9 -183 7 -13 11
-11 25 11 10 14 29 28 43 32 25 6 25 8 19 58 -3 29 -6 69 -6 90 0 43 -4 44
-49 12z m21 -55 c6 0 6 -6 -2 -15 -11 -13 -10 -14 6 -8 16 5 17 4 7 -8 -6 -8
-13 -27 -15 -44 l-4 -30 -16 35 c-11 24 -13 39 -6 47 5 7 7 16 4 22 -3 5 -3
17 1 28 7 16 8 16 11 -4 2 -13 8 -23 14 -23z"/>
<path d="M2270 1042 c0 -10 33 -42 43 -42 14 0 5 16 -18 33 -14 10 -25 14 -25
9z"/>
<path d="M2500 1036 c0 -8 4 -17 9 -20 5 -3 25 -30 45 -60 30 -46 39 -53 61
-49 14 3 25 9 25 13 0 12 -36 40 -51 40 -12 0 -11 2 1 10 12 8 10 10 -10 11
-14 0 -20 3 -13 5 7 3 10 11 7 19 -3 7 0 16 7 21 8 4 10 3 5 -4 -5 -8 -2 -10
8 -6 9 3 16 1 16 -5 0 -6 9 -11 20 -11 11 0 20 4 20 9 0 20 -31 32 -77 29 -26
-1 -54 1 -60 5 -8 5 -13 3 -13 -7z"/>
<path d="M744 1025 c-54 -13 -47 -35 12 -35 45 0 48 3 36 30 -6 12 -14 13 -48
5z"/>
<path d="M818 1010 c2 -16 7 -30 11 -30 4 0 6 14 3 30 -2 17 -7 30 -11 30 -4
0 -6 -13 -3 -30z"/>
<path d="M2435 1015 c-5 -2 -27 -6 -47 -10 -21 -3 -38 -11 -38 -16 0 -7 12 -8
33 -3 17 4 43 8 57 9 45 3 50 5 50 15 0 9 -33 12 -55 5z"/>
<path d="M2973 998 c-24 -11 -32 -51 -13 -63 6 -3 10 -17 10 -31 0 -14 -4 -23
-9 -19 -5 3 -13 0 -17 -6 -4 -8 -3 -9 4 -5 7 4 12 3 12 -2 0 -14 -28 -23 -32
-11 -2 5 -12 3 -23 -6 -11 -8 -15 -15 -10 -14 23 3 26 -2 10 -17 -9 -9 -14
-18 -11 -21 7 -8 64 26 75 44 6 10 11 14 11 9 0 -16 -24 -76 -31 -76 -3 0 -5
-11 -3 -25 2 -26 -13 -95 -24 -107 -4 -4 -8 16 -9 44 -1 28 -6 55 -10 59 -5 5
-8 -18 -6 -50 2 -64 -9 -83 -57 -94 -15 -4 -33 -21 -45 -43 -11 -21 -29 -39
-40 -40 -11 -2 -21 -8 -23 -14 -2 -5 -8 -8 -13 -5 -5 4 -2 22 6 42 8 19 15 37
15 39 0 1 -19 4 -42 6 l-43 3 30 15 c33 16 46 30 39 42 -3 4 -27 -9 -54 -29
-37 -28 -50 -44 -55 -72 -9 -50 -21 -62 -51 -51 -15 6 -24 6 -24 0 0 -6 -5
-10 -11 -10 -5 0 -8 4 -5 9 9 14 -42 0 -55 -15 -9 -11 -8 -14 2 -14 11 0 11
-2 -1 -10 -13 -8 -13 -10 2 -10 55 0 254 35 320 56 86 28 116 55 141 126 29
81 58 233 60 306 1 39 2 72 2 71 0 0 -10 -5 -22 -11z m-113 -415 c0 -5 -4 -15
-10 -23 -11 -18 -25 -7 -17 15 6 15 27 21 27 8z m-170 -13 c0 -5 7 -10 15 -10
23 0 7 -25 -23 -36 -32 -12 -63 -7 -41 7 12 7 12 9 0 9 -8 0 -4 8 10 20 27 22
39 25 39 10z"/>
<path d="M577 989 c-15 -9 -16 -13 -6 -25 16 -19 -1 -37 -21 -23 -13 9 -12 10
3 5 9 -3 17 -1 17 4 0 6 -9 10 -20 10 -13 0 -20 -7 -20 -18 0 -10 -5 -23 -12
-30 -20 -20 6 -14 62 14 42 21 49 28 37 37 -8 7 -16 17 -18 24 -3 8 -9 9 -22
2z"/>
<path d="M1026 983 c-3 -3 -6 -14 -6 -24 0 -9 -4 -19 -10 -21 -5 -1 2 -8 15
-15 24 -11 25 -10 25 22 0 33 -11 51 -24 38z"/>
<path d="M1717 977 c-7 -20 8 -40 32 -44 17 -2 21 2 21 27 0 25 -4 30 -24 30
-13 0 -26 -6 -29 -13z"/>
<path d="M892 923 c3 -30 10 -59 17 -66 10 -9 11 -9 7 3 -2 8 -7 35 -10 59 -6
36 -4 42 9 38 8 -4 15 -1 15 6 0 7 -9 13 -21 13 -19 0 -21 -5 -17 -53z"/>
<path d="M2655 970 c-4 -6 -1 -18 7 -27 9 -12 9 -15 1 -9 -7 4 -13 2 -13 -3 0
-6 14 -11 32 -11 l31 0 -24 28 c-13 15 -25 28 -25 30 -1 2 -5 -2 -9 -8z"/>
<path d="M800 945 c7 -8 9 -15 4 -15 -5 0 -1 -7 10 -15 10 -8 16 -21 13 -29
-4 -9 -2 -18 3 -21 6 -4 10 -15 10 -26 0 -10 5 -19 10 -19 13 0 12 14 -3 74
-9 36 -19 51 -36 58 -21 7 -22 6 -11 -7z"/>
<path d="M2890 945 c-9 -11 -10 -15 -1 -15 7 0 19 7 27 15 13 13 13 15 1 15
-8 0 -20 -7 -27 -15z"/>
<path d="M860 928 c0 -13 9 -41 20 -63 11 -22 17 -31 14 -20 -4 11 -11 39 -16
63 -11 46 -18 55 -18 20z"/>
<path d="M665 914 c4 -11 14 -46 21 -79 19 -81 22 -87 34 -80 8 5 7 12 -2 22
-10 12 -9 17 5 28 17 12 24 31 8 21 -12 -8 -30 16 -41 53 -6 22 -5 29 2 25 6
-4 9 -1 6 7 -3 8 -13 16 -23 18 -14 2 -16 -1 -10 -15z"/>
<path d="M936 912 c-11 -32 2 -49 33 -44 37 5 51 -15 16 -24 -14 -3 -25 -10
-25 -16 0 -19 21 -48 35 -48 17 0 20 16 5 25 -15 9 -12 22 6 29 16 6 74 -22
74 -36 0 -4 8 -8 18 -8 12 0 13 -3 4 -8 -18 -12 -4 -75 15 -68 8 4 16 6 19 6
2 0 -1 12 -7 26 -13 37 -5 40 20 8 26 -33 27 -54 2 -54 -11 0 -22 -4 -25 -9
-3 -4 -24 -11 -47 -15 -24 -4 -48 -14 -55 -24 -10 -12 -13 -13 -14 -3 0 10 -3
11 -13 2 -8 -6 -16 -8 -19 -5 -9 9 -17 -22 -9 -35 6 -10 11 -9 22 1 8 8 21 17
30 20 13 5 16 2 12 -13 -3 -10 -11 -19 -18 -19 -18 0 -26 -25 -12 -39 6 -6 7
-14 2 -18 -4 -5 -10 -2 -12 5 -7 17 -21 15 -44 -7 -12 -11 -32 -22 -45 -25
-13 -4 -37 -14 -54 -24 l-29 -18 24 -50 c13 -27 25 -57 25 -66 0 -26 19 -22
32 7 6 14 15 25 20 25 4 0 8 9 8 19 0 10 7 21 14 24 8 3 23 21 32 39 9 18 37
63 61 100 36 55 56 73 109 103 l66 37 -24 26 c-12 15 -26 28 -31 30 -4 2 -5 8
-1 13 3 5 -1 9 -9 9 -23 0 -65 38 -69 62 -2 12 -10 23 -18 26 -12 4 -13 2 -2
-9 22 -24 12 -31 -16 -10 -16 11 -40 23 -55 26 -15 4 -25 11 -22 15 3 4 -2 13
-9 19 -11 10 -16 8 -20 -7z m10 -450 c-4 -12 -21 -28 -38 -37 -43 -21 -58 -18
-29 5 17 15 22 26 17 45 -8 31 6 32 27 3 9 -13 16 -18 16 -11 1 6 -3 15 -9 18
-5 3 -10 11 -10 18 0 7 6 5 16 -5 10 -10 14 -23 10 -36z"/>
<path d="M2509 924 c-1 -5 -1 -12 0 -16 2 -12 -24 -9 -36 3 -8 8 -16 8 -30 0
-16 -11 -16 -11 4 -6 19 5 22 3 16 -11 -5 -14 -3 -16 11 -11 10 4 15 3 11 -3
-9 -14 4 -11 50 10 22 10 33 19 23 19 -9 1 -18 4 -21 9 -2 4 -2 0 0 -8 2 -10
-2 -8 -12 4 -8 11 -16 16 -16 10z"/>
<path d="M2845 920 c-3 -5 1 -10 9 -10 9 0 13 -6 10 -14 -4 -11 0 -13 15 -9
25 6 28 28 5 37 -22 8 -32 8 -39 -4z"/>
<path d="M2162 909 c-21 -8 -22 -10 -8 -25 19 -19 20 -31 4 -37 -8 -3 -6 -6 4
-6 20 -1 68 19 68 28 -1 7 -37 51 -42 50 -1 0 -13 -4 -26 -10z"/>
<path d="M755 893 c3 -10 9 -30 12 -45 3 -16 10 -28 15 -28 5 0 6 10 2 23 -14
45 -24 67 -30 67 -3 0 -3 -8 1 -17z"/>
<path d="M1380 881 c0 -11 -4 -23 -10 -26 -6 -4 -7 1 -4 12 5 15 4 16 -5 3
-14 -19 -15 -93 -1 -85 6 3 10 -2 11 -12 0 -10 2 -33 5 -50 3 -25 0 -33 -11
-33 -8 0 -15 -4 -15 -10 0 -14 -21 -12 -39 4 -9 7 -34 17 -56 20 l-40 7 35
-19 c19 -10 69 -29 110 -41 41 -13 82 -28 90 -35 25 -22 44 -30 36 -18 -17 28
55 7 94 -27 20 -18 25 -33 28 -86 l4 -65 -33 6 c-19 4 -38 10 -43 14 -13 13 3
30 22 23 9 -3 14 -3 10 2 -4 4 -2 15 5 23 10 13 7 12 -19 -1 -29 -15 -44 -35
-44 -57 0 -4 33 -11 74 -15 40 -3 86 -13 101 -21 31 -16 47 -19 25 -4 -13 9
-13 12 3 24 9 7 17 17 17 21 0 4 -7 2 -15 -5 -12 -10 -14 -7 -13 17 1 15 -1
38 -6 51 -10 30 11 29 25 -2 10 -21 16 -23 57 -18 58 6 74 18 48 38 -19 13
-18 14 10 14 17 0 34 -3 38 -7 11 -12 56 -14 56 -3 0 5 14 10 30 10 17 0 30
-5 30 -10 0 -7 7 -8 18 -3 9 5 40 8 67 8 41 -1 50 -4 49 -18 -1 -12 6 -17 22
-17 13 0 24 5 24 10 0 6 -6 10 -12 10 -10 0 -9 3 1 9 7 5 11 13 7 19 -7 12 13
21 32 15 6 -3 12 -11 12 -19 0 -8 7 -14 16 -14 8 0 12 -5 9 -10 -4 -6 -10 -8
-15 -5 -4 3 -10 -1 -13 -9 -4 -9 3 -16 20 -19 25 -5 25 -4 19 42 -4 25 -7 54
-7 64 0 21 -10 21 -73 2 -27 -8 -72 -15 -101 -15 -29 0 -87 -4 -131 -10 -43
-5 -95 -11 -114 -13 -19 -2 -34 -9 -33 -15 4 -17 -103 12 -142 39 -19 13 -35
29 -35 34 0 6 -4 4 -8 -3 -7 -10 -14 -9 -38 3 -16 8 -44 15 -62 17 -18 1 -38
8 -44 15 -6 7 -14 10 -19 7 -12 -7 -11 8 2 26 8 11 12 12 16 2 2 -6 10 -9 16
-5 6 4 8 0 4 -9 -4 -13 1 -15 26 -14 17 1 33 8 35 14 2 7 8 12 13 12 4 0 6 -7
3 -15 -8 -20 6 -19 22 3 23 29 16 33 -48 32 -35 -1 -79 -1 -99 -1 l-36 1 4
105 c3 70 1 105 -6 105 -6 0 -11 -9 -11 -19z m284 -350 c14 -16 17 -30 13 -62
-3 -22 -8 -43 -11 -47 -10 -9 -33 20 -40 51 -5 21 -3 27 11 28 17 1 17 2 1 6
-10 2 -18 11 -18 18 0 7 -3 21 -7 30 -5 14 -3 16 13 7 11 -6 28 -19 38 -31z"/>
<path d="M1729 893 c-1 -5 -1 -11 0 -15 0 -5 -3 -8 -9 -8 -5 0 -10 -7 -10 -17
0 -14 2 -14 21 3 11 10 16 20 10 22 -6 2 -9 8 -5 13 3 5 3 9 0 9 -3 0 -7 -3
-7 -7z"/>
<path d="M2580 881 c-62 -23 -80 -32 -50 -26 14 3 38 8 54 12 19 4 27 2 23 -4
-4 -6 -25 -13 -47 -17 -22 -3 -40 -11 -40 -16 0 -12 2 -12 35 0 36 14 71 20
142 27 84 8 70 25 -15 19 -37 -3 -59 -3 -49 0 19 6 24 25 5 23 -7 -1 -33 -9
-58 -18z"/>
<path d="M2678 893 c12 -2 30 -2 40 0 9 3 -1 5 -23 4 -22 0 -30 -2 -17 -4z"/>
<path d="M2083 883 c-24 -4 -31 -27 -13 -38 20 -12 10 -25 -19 -25 -17 0 -33
-5 -36 -11 -4 -6 -13 -8 -21 -5 -8 3 -17 -1 -20 -9 -4 -8 -16 -15 -29 -15 -13
0 -26 -7 -29 -16 -5 -12 -2 -15 11 -10 10 4 50 18 88 33 39 14 83 30 98 36 28
10 32 31 6 33 -8 1 -20 2 -28 3 -11 1 -10 5 5 16 10 8 17 14 14 13 -3 0 -15
-3 -27 -5z"/>
<path d="M2410 863 c-54 -8 -70 -14 -70 -24 0 -6 9 -7 23 -3 12 4 45 7 72 6
46 -1 48 0 31 14 -11 8 -22 13 -25 13 -3 -1 -17 -3 -31 -6z"/>
<path d="M490 842 c0 -11 -5 -24 -11 -28 -8 -4 -6 -10 6 -17 13 -7 14 -11 5
-17 -8 -5 -10 -20 -5 -49 4 -26 11 -39 18 -34 6 4 8 0 4 -9 -3 -10 1 -18 12
-21 16 -4 16 1 -1 91 -18 96 -28 124 -28 84z"/>
<path d="M2267 853 c-4 -7 -3 -14 3 -18 6 -4 8 -11 5 -16 -4 -5 -1 -9 4 -9 12
0 13 7 2 34 -5 13 -10 16 -14 9z"/>
<path d="M2719 840 c-32 -5 -34 -7 -28 -30 l7 -25 1 24 c1 17 5 21 17 17 9 -3
18 -6 21 -6 3 0 0 -7 -7 -15 -10 -12 -10 -15 4 -15 9 0 16 -8 16 -20 0 -11 -4
-20 -9 -20 -4 0 -6 -11 -3 -25 3 -17 10 -25 21 -23 13 3 15 15 13 68 -2 36 -7
67 -10 70 -4 3 -23 3 -43 0z"/>
<path d="M2815 833 c4 -15 2 -23 -5 -23 -6 0 -9 4 -5 9 3 5 1 12 -5 16 -5 3
-10 -3 -10 -14 0 -12 7 -21 15 -21 8 0 14 -8 13 -17 -3 -41 2 -126 8 -120 11
11 5 170 -7 181 -8 8 -10 5 -4 -11z"/>
<path d="M2208 833 c-10 -2 -18 -9 -18 -14 0 -11 39 -2 55 12 9 9 -6 10 -37 2z"/>
<path d="M2643 832 c-28 -4 -29 -12 -4 -43 10 -13 28 -45 39 -71 11 -27 25
-48 31 -48 21 0 21 21 0 51 -12 17 -27 49 -33 72 -9 35 -15 41 -33 39z"/>
<path d="M930 822 c0 -7 7 -29 15 -49 8 -19 15 -48 15 -64 0 -15 5 -31 11 -34
17 -11 20 0 9 29 -5 15 -12 37 -14 50 -5 29 -35 86 -36 68z"/>
<path d="M1836 815 c-11 -8 -15 -15 -9 -15 19 0 43 12 43 21 0 13 -12 11 -34
-6z"/>
<path d="M1948 823 c-20 -5 -23 -18 -8 -28 6 -3 10 -1 10 5 0 6 4 9 9 6 5 -3
11 1 15 9 6 15 4 16 -26 8z"/>
<path d="M2396 823 c-54 -5 -53 -1 -23 -108 12 -42 18 -50 41 -52 28 -2 31 3
17 41 -8 19 -15 23 -33 20 -23 -5 -23 -5 2 11 23 15 24 15 3 10 -14 -4 -23 -2
-23 4 0 6 7 11 16 11 12 0 15 6 10 25 -5 21 -3 25 14 25 13 0 24 -10 30 -26 6
-14 14 -22 20 -19 5 3 16 3 22 -1 9 -6 5 -10 -12 -15 -24 -7 -24 -7 -2 -8 28
-1 29 -21 1 -21 -14 0 -18 -4 -12 -12 4 -7 6 -21 5 -30 -2 -9 5 -18 15 -20 15
-3 12 -7 -12 -21 -16 -9 -28 -17 -25 -17 43 -10 48 -8 63 22 9 18 14 35 12 38
-2 3 -6 30 -10 60 -9 70 -20 90 -48 88 -12 -1 -44 -3 -71 -5z"/>
<path d="M437 813 c-13 -12 -7 -72 12 -143 11 -38 17 -77 15 -87 -3 -10 0 -32
7 -48 15 -37 14 -31 23 -82 4 -24 11 -43 15 -43 4 0 26 18 49 39 l41 39 -26
62 c-15 39 -22 71 -19 86 7 25 6 25 -23 9 -16 -8 -33 -19 -36 -25 -13 -21 -21
-9 -23 35 -1 24 -7 59 -15 77 -7 18 -12 45 -12 61 1 30 1 30 -8 20z m83 -229
c0 -8 7 -14 16 -14 14 0 15 -2 3 -17 -12 -15 -12 -16 4 -10 9 3 17 2 17 -3 0
-6 -5 -10 -10 -10 -7 0 -8 -13 -4 -36 9 -48 -14 -43 -32 7 -15 42 -18 113 -4
104 6 -3 10 -13 10 -21z"/>
<path d="M2205 803 c-129 -46 -275 -107 -275 -114 0 -10 17 -4 112 39 36 17
69 28 72 25 3 -3 12 -1 19 5 7 6 37 16 65 23 50 10 71 23 55 32 -5 2 -26 -3
-48 -10z"/>
<path d="M2570 810 c-14 -4 -20 -8 -13 -9 6 -1 18 -8 26 -15 13 -13 15 -12 15
10 0 13 -1 24 -2 23 0 -1 -12 -5 -26 -9z"/>
<path d="M900 797 c0 -8 3 -17 8 -21 4 -4 7 -12 7 -17 0 -5 3 -9 8 -9 9 0 9 4
1 35 -6 26 -24 35 -24 12z"/>
<path d="M2118 803 c-10 -2 -18 -9 -18 -14 0 -12 10 -11 40 6 24 14 14 18 -22
8z"/>
<path d="M2320 805 c-1 -5 -2 -13 -1 -17 0 -4 -5 -5 -12 -2 -8 3 -13 -3 -13
-16 0 -12 6 -19 15 -17 9 1 20 -14 30 -45 8 -27 18 -48 23 -48 11 0 10 18 -4
43 -6 12 -17 42 -24 67 -7 25 -13 41 -14 35z"/>
<path d="M793 766 c-46 -18 -86 -35 -89 -39 -4 -4 -16 -7 -26 -7 -11 0 -39
-12 -64 -26 -38 -22 -42 -28 -33 -46 9 -16 13 -17 26 -6 12 10 17 10 20 1 2
-7 11 -9 19 -6 9 3 11 10 6 17 -5 6 -9 19 -9 28 0 14 4 15 20 7 22 -13 38 -2
17 11 -13 8 -12 10 3 10 9 0 20 0 23 0 4 1 15 -25 26 -57 30 -91 33 -92 122
-43 73 40 75 42 61 64 -8 12 -17 39 -21 61 -10 65 -11 66 -101 31z m17 -29 c0
5 13 10 29 10 20 0 28 -4 24 -14 -3 -7 0 -13 6 -13 6 0 11 -7 11 -15 0 -8 6
-15 13 -15 6 -1 -1 -8 -16 -16 -23 -12 -26 -18 -16 -30 9 -11 8 -14 -5 -14 -9
0 -16 -4 -16 -10 0 -18 -22 -10 -27 10 -6 23 -5 23 -36 11 -31 -12 -42 -2 -19
16 16 12 15 13 -3 6 -18 -6 -18 -5 -6 10 7 9 20 17 27 17 10 0 12 9 7 33 -6
29 -5 31 10 18 9 -7 17 -9 17 -4z"/>
<path d="M1840 785 c-9 -11 -10 -15 -1 -15 8 0 10 -8 6 -20 -5 -15 -2 -20 12
-20 35 0 45 14 32 43 -14 30 -31 34 -49 12z"/>
<path d="M2005 759 c-27 -11 -59 -25 -70 -30 -45 -21 36 2 87 25 64 30 52 33
-17 5z"/>
<path d="M2237 773 c-11 -3 -16 -11 -13 -19 3 -7 1 -16 -3 -19 -5 -3 -12 2
-15 11 -4 9 -9 15 -11 12 -3 -3 -3 -13 1 -22 4 -11 18 -16 43 -16 33 0 37 3
36 27 0 28 -8 34 -38 26z"/>
<path d="M1006 734 c-12 -12 -13 -20 -6 -35 10 -18 13 -18 47 -4 47 20 50 23
33 38 -9 8 -11 8 -6 0 3 -6 2 -14 -3 -17 -5 -3 -11 3 -14 14 -6 24 -30 26 -51
4z"/>
<path d="M2142 743 c-14 -3 -22 -10 -18 -18 7 -19 -3 -25 -29 -15 -15 6 -25 5
-27 -1 -2 -5 -12 -11 -24 -13 -11 -2 -36 -11 -56 -19 -19 -8 -54 -18 -76 -22
-23 -4 -44 -10 -47 -15 -3 -5 -23 -11 -45 -15 -35 -6 -38 -8 -25 -22 13 -13
17 -13 31 1 8 9 26 16 40 16 13 0 26 0 29 0 3 0 5 -3 6 -7 2 -17 20 -43 30
-43 6 0 7 6 1 16 -26 46 10 64 124 64 35 0 64 3 64 8 0 4 -19 6 -42 5 -39 -2
-40 -1 -13 6 17 5 38 12 47 16 12 5 17 1 20 -17 3 -22 6 -23 83 -20 44 2 82 5
84 8 2 2 -1 14 -8 27 -10 18 -19 22 -42 19 -16 -2 -26 -8 -23 -13 3 -5 10 -7
15 -4 5 3 6 -1 3 -9 -3 -9 -13 -14 -22 -12 -40 9 -62 19 -62 28 0 5 4 7 9 4 5
-3 11 2 13 12 5 20 -1 43 -10 41 -4 -1 -17 -4 -30 -6z"/>
<path d="M930 703 c0 -17 5 -35 11 -38 18 -12 20 1 5 36 l-15 34 -1 -32z"/>
<path d="M2580 714 c-19 -7 -27 -13 -18 -13 9 -1 20 -6 24 -13 5 -7 2 -9 -8
-6 -8 4 -21 2 -29 -3 -9 -6 10 -9 54 -9 53 0 67 3 67 15 0 12 -7 14 -27 9 -22
-6 -25 -4 -20 9 9 23 -2 25 -43 11z"/>
<path d="M1868 713 c-21 -5 -24 -23 -5 -23 7 0 22 7 33 15 20 15 9 18 -28 8z"/>
<path d="M2311 705 c0 -18 28 -61 29 -44 0 8 -7 24 -15 35 -8 10 -14 15 -14 9z"/>
<path d="M1833 668 c-70 -27 -68 -42 2 -17 30 10 61 19 70 19 8 0 15 5 15 10
0 15 -29 11 -87 -12z"/>
<path d="M2764 668 c0 -13 5 -26 10 -30 7 -5 5 -8 -5 -8 -9 0 -19 -7 -23 -15
-4 -13 -2 -13 14 -5 27 14 33 27 26 56 -8 30 -22 31 -22 2z"/>
<path d="M1188 670 c-22 -13 -70 -119 -60 -134 14 -22 41 -14 51 17 8 22 8 34
-2 45 -10 13 -9 14 3 10 9 -3 19 5 25 20 15 34 49 40 42 7 -2 -16 3 -31 14
-41 22 -20 27 -17 35 22 5 26 2 31 -31 47 -41 19 -53 20 -77 7z"/>
<path d="M2850 666 c0 -8 -3 -23 -7 -33 -6 -15 -4 -16 9 -5 22 18 30 52 12 52
-8 0 -14 -6 -14 -14z"/>
<path d="M2405 633 c-11 -3 -24 -9 -29 -14 -6 -5 -21 -9 -34 -9 -24 0 -25 -2
-18 -52 3 -29 6 -63 6 -75 0 -18 7 -23 38 -26 20 -2 -3 -5 -53 -5 -49 0 -98
-1 -107 -1 -10 -1 -18 -9 -18 -18 -1 -32 -100 -111 -100 -81 -1 8 -7 5 -18 -7
-19 -22 -70 -62 -146 -113 -28 -19 -55 -40 -59 -48 -5 -8 -12 -12 -17 -9 -9 5
-5 -33 4 -42 2 -3 35 20 72 51 37 31 72 56 77 56 8 0 94 68 135 108 7 6 21 12
30 12 10 0 29 12 43 28 28 31 49 39 49 17 0 -8 -3 -15 -8 -15 -9 0 -28 -45
-37 -87 -10 -50 -29 -55 -22 -5 4 24 3 43 -3 47 -6 4 -10 -19 -10 -63 0 -51
-4 -73 -16 -83 -19 -16 -47 -69 -37 -69 8 0 37 40 38 52 0 3 3 10 8 14 4 4 7
-13 7 -37 1 -41 2 -43 15 -25 9 11 15 41 15 69 0 29 4 46 10 42 6 -4 10 12 10
40 0 25 4 44 9 41 15 -10 22 -97 13 -153 -5 -29 -5 -53 -1 -53 12 0 11 -57 0
-64 -5 -3 -12 6 -15 20 -7 25 -8 26 -21 8 -8 -11 -15 -25 -15 -33 0 -8 -7 -23
-17 -33 -15 -17 -15 -18 11 -16 18 2 39 16 62 44 31 38 34 48 34 106 0 35 -7
90 -15 122 -26 99 8 166 77 152 43 -8 75 2 83 27 3 12 10 51 14 85 l7 64 -28
-4 c-16 -3 -33 1 -39 9 -9 10 -7 13 9 13 12 0 24 5 27 10 3 6 5 9 3 9 -2 -1
-12 -3 -23 -6z m-5 -56 c0 -8 10 -19 23 -26 l22 -12 -22 5 c-13 2 -23 2 -23 0
0 -3 10 -9 23 -14 l22 -9 -22 -7 c-13 -3 -23 -14 -23 -23 0 -10 -7 -18 -15
-18 -8 0 -15 6 -15 14 0 7 -6 13 -12 13 -9 0 -8 4 2 10 13 8 12 10 -2 10 -10
0 -18 5 -18 10 0 6 8 10 18 11 11 1 9 4 -8 9 l-25 8 23 7 c12 4 22 11 22 16 0
5 7 9 15 9 8 0 15 -6 15 -13z"/>
<path d="M915 614 c-11 -9 -74 -42 -140 -75 -230 -114 -259 -134 -249 -173 8
-33 22 -42 31 -21 3 10 1 20 -5 24 -26 16 32 54 255 166 123 62 165 74 113 35
-14 -11 -19 -20 -12 -20 22 0 40 24 40 53 0 31 -5 32 -33 11z"/>
<path d="M1310 568 c-23 -118 -23 -121 -12 -115 5 4 13 21 16 39 12 66 16 84
22 111 3 15 1 27 -4 27 -5 0 -15 -28 -22 -62z"/>
<path d="M1740 620 c-12 -8 -11 -10 5 -11 15 0 16 -2 5 -6 -8 -3 -19 -13 -24
-22 -8 -13 -10 -13 -16 4 -6 18 -7 17 -12 -3 -8 -30 21 -30 50 1 23 24 17 53
-8 37z"/>
<path d="M1346 604 c-9 -23 -7 -44 3 -44 11 0 21 49 11 55 -4 3 -11 -2 -14
-11z"/>
<path d="M2267 613 c-14 -4 -17 -11 -13 -26 3 -12 6 -25 6 -28 0 -4 8 -9 18
-11 16 -5 19 1 20 33 1 22 -1 38 -6 38 -4 -1 -15 -3 -25 -6z"/>
<path d="M1386 602 c-16 -16 -4 -53 20 -62 30 -12 34 -12 33 -2 -4 26 2 32 20
21 15 -10 17 -18 9 -52 -16 -70 -60 -110 -72 -64 -3 12 -3 23 -1 26 3 2 5 -2
5 -10 0 -12 2 -12 10 1 6 10 4 21 -8 34 -16 18 -16 19 8 13 24 -6 24 -5 6 8
-28 21 -31 19 -45 -22 -7 -21 -14 -43 -17 -49 -7 -17 69 -45 105 -38 28 6 32
10 27 29 -3 13 1 42 9 66 15 42 12 84 -6 74 -5 -3 -29 3 -53 14 -25 10 -47 17
-50 13z"/>
<path d="M1630 602 c0 -5 7 -13 16 -16 10 -4 14 -1 12 6 -5 15 -28 23 -28 10z"/>
<path d="M2780 589 c0 -5 -4 -8 -9 -4 -5 3 -12 1 -16 -5 -3 -5 -1 -10 5 -10 7
0 9 -8 4 -22 -8 -29 -1 -22 20 20 9 18 12 32 6 32 -5 0 -10 -5 -10 -11z"/>
<path d="M645 579 c-20 -8 -20 -8 0 -9 11 -2 23 -2 28 -1 4 0 7 -5 7 -13 0
-13 -38 -33 -49 -27 -5 4 -21 -22 -21 -34 0 -5 4 -4 9 3 4 8 11 13 15 11 4 -1
34 11 67 26 39 19 55 31 47 37 -17 10 -30 10 -24 -1 3 -5 -1 -11 -9 -15 -8 -3
-15 -2 -15 2 0 15 -36 29 -55 21z"/>
<path d="M1251 569 l24 -20 -27 5 c-17 4 -28 2 -28 -4 0 -6 4 -9 9 -6 5 3 12
-1 15 -10 4 -12 2 -15 -9 -11 -8 4 -17 2 -20 -3 -3 -5 -13 -7 -23 -3 -9 3 0
-6 20 -21 20 -14 41 -26 46 -26 6 0 13 21 17 46 5 38 3 48 -12 60 -28 21 -38
16 -12 -7z"/>
<path d="M2485 578 c6 -15 85 -18 85 -4 0 5 8 2 17 -5 9 -8 14 -9 10 -2 -4 6
-1 14 5 16 7 3 -17 6 -54 6 -50 1 -66 -2 -63 -11z"/>
<path d="M841 536 c-19 -7 -37 -18 -39 -24 -5 -17 0 -15 49 13 48 27 44 31
-10 11z"/>
<path d="M1040 542 c0 -8 191 -112 206 -112 2 0 4 4 4 10 0 5 -19 18 -42 29
-24 11 -54 26 -68 34 -14 8 -38 21 -55 28 -16 7 -33 15 -37 17 -5 2 -8 -1 -8
-6z"/>
<path d="M2298 508 c-2 -13 -9 -22 -16 -20 -6 1 -12 -2 -12 -8 0 -5 9 -10 20
-10 16 0 20 7 20 30 0 35 -7 40 -12 8z"/>
<path d="M1324 485 c-6 -20 -8 -38 -3 -40 10 -7 15 2 24 43 9 43 -7 41 -21 -3z"/>
<path d="M1030 501 c0 -10 24 -21 43 -21 7 0 3 7 -7 15 -22 17 -36 19 -36 6z"/>
<path d="M725 474 c-22 -13 -50 -29 -62 -34 -13 -5 -23 -14 -23 -20 0 -9 123
51 145 71 19 18 -21 7 -60 -17z"/>
<path d="M1096 483 c-11 -12 -6 -20 19 -31 31 -14 35 -15 35 -3 0 12 -46 41
-54 34z"/>
<path d="M1840 470 c-14 -4 -39 -8 -56 -9 -30 -1 -32 -3 -32 -44 -1 -44 -20
-110 -21 -74 -1 10 -6 15 -11 12 -7 -4 -7 -13 -1 -24 7 -13 5 -24 -5 -40 -9
-12 -14 -24 -13 -26 2 -1 28 0 56 2 l53 6 -6 38 c-5 27 -2 46 10 64 13 19 13
25 3 25 -7 0 -17 -4 -22 -9 -6 -6 -15 -4 -23 5 -9 10 -9 14 -1 14 6 0 9 6 6
14 -3 8 1 17 10 20 18 7 35 -2 28 -15 -4 -5 1 -9 9 -9 9 0 16 9 16 20 0 15 7
20 24 20 14 0 28 5 31 10 7 12 -19 12 -55 0z m-64 -146 c-9 -6 -16 -16 -16
-22 0 -6 -5 -14 -11 -17 -7 -5 -9 3 -6 23 7 45 16 55 34 41 13 -12 13 -14 -1
-25z"/>
<path d="M2113 468 c2 -14 -13 -15 -90 -4 -43 5 -53 4 -53 -8 0 -8 6 -17 13
-19 8 -4 7 -6 -3 -6 -8 0 -26 6 -40 14 -31 18 -36 18 -38 3 0 -7 -3 -23 -6
-35 -2 -13 0 -23 5 -23 5 0 9 6 7 13 -3 13 3 17 25 17 8 0 7 -4 -3 -10 -11 -8
-9 -9 10 -5 22 5 27 1 43 -40 11 -25 25 -45 32 -45 20 0 27 17 10 24 -20 7
-19 26 1 26 8 0 13 4 9 10 -3 5 -12 7 -19 4 -25 -10 -29 30 -4 49 14 12 24 15
26 8 2 -6 8 -9 13 -5 5 3 9 -2 9 -10 0 -9 5 -16 12 -16 6 0 3 -7 -8 -15 -15
-11 -16 -14 -3 -15 16 0 59 51 59 70 0 5 10 10 23 11 21 0 21 1 2 9 -28 12
-35 12 -32 -2z"/>
<path d="M1006 463 c-11 -11 6 -23 30 -23 14 0 23 4 20 9 -7 11 -43 21 -50 14z"/>
<path d="M760 440 c-14 -11 -37 -22 -52 -25 -33 -8 -59 -35 -34 -35 10 0 14
-4 11 -10 -3 -5 -2 -10 4 -10 5 0 12 9 16 19 3 10 18 22 32 26 15 3 33 14 40
23 12 16 12 16 13 0 0 -18 20 -26 20 -9 0 15 -12 41 -19 41 -3 0 -17 -9 -31
-20z"/>
<path d="M1061 401 c-11 -27 -21 -52 -21 -56 0 -3 -11 -23 -25 -45 -14 -22
-25 -47 -25 -55 0 -9 -7 -18 -15 -21 -8 -3 -17 -16 -21 -27 -3 -12 -19 -44
-36 -70 l-29 -49 21 -18 c13 -11 29 -16 38 -12 14 5 13 7 -6 12 -13 3 -23 8
-23 13 1 4 1 12 1 17 0 6 12 8 28 5 22 -5 24 -4 10 5 -24 15 -23 24 7 56 14
15 25 33 25 40 0 8 5 14 11 14 6 0 9 8 6 19 -4 17 -2 17 37 6 22 -7 53 -19 69
-26 31 -14 42 -7 52 32 6 23 3 27 -19 31 -19 4 -27 0 -31 -13 -7 -21 -55 -23
-55 -2 0 7 -4 13 -10 13 -5 0 -10 4 -10 9 0 5 6 8 13 7 6 0 12 4 12 9 0 6 -8
9 -17 8 -12 -2 -15 2 -11 13 4 11 14 14 32 11 l26 -5 -24 19 -23 19 26 0 c16
0 31 9 42 25 9 14 15 27 13 28 -2 1 -14 10 -25 20 -21 17 -22 17 -43 -32z"/>
<path d="M2147 433 c3 -8 -3 -23 -12 -33 -10 -11 -16 -23 -13 -26 7 -6 48 49
48 63 0 5 -6 10 -14 10 -8 0 -12 -6 -9 -14z"/>
<path d="M990 418 c0 -19 2 -20 10 -8 13 19 13 30 0 30 -5 0 -10 -10 -10 -22z"/>
<path d="M1180 433 c0 -9 34 -32 48 -33 23 0 12 18 -18 29 -16 5 -30 7 -30 4z"/>
<path d="M1270 414 c-6 -15 -9 -32 -7 -38 3 -6 10 2 16 18 9 23 14 26 26 16 8
-7 15 -9 15 -5 0 3 12 -3 26 -14 17 -13 41 -21 65 -21 22 0 39 -4 39 -10 0 -5
-7 -10 -16 -10 -11 0 -14 -6 -9 -20 5 -16 2 -20 -18 -20 -18 0 -27 -7 -31 -25
-4 -14 -4 -29 -2 -34 3 -4 -8 -22 -24 -40 -35 -38 -35 -37 -11 -44 15 -4 26 8
51 57 17 33 37 66 43 71 7 6 17 24 23 40 6 17 16 29 22 28 6 -2 9 4 6 11 -4
10 -16 13 -39 10 -20 -2 -51 5 -81 18 -27 12 -51 22 -54 23 -3 0 -11 4 -18 8
-8 6 -15 -1 -22 -19z"/>
<path d="M596 405 c-11 -8 -17 -17 -14 -21 8 -8 48 14 48 26 0 14 -12 12 -34
-5z"/>
<path d="M1140 394 c0 -8 5 -12 10 -9 6 3 10 -4 10 -17 0 -17 3 -19 9 -9 6 9
11 10 15 2 10 -16 -2 -31 -19 -24 -20 7 -19 -7 3 -24 15 -13 14 -14 -13 -9
-28 6 -29 5 -11 -9 30 -23 39 -18 64 30 27 54 27 55 5 55 -10 0 -30 7 -45 14
-25 13 -28 13 -28 0z"/>
<path d="M798 394 c-4 -3 -12 -7 -20 -8 -20 -3 -60 -27 -55 -32 3 -3 27 6 54
20 26 14 43 25 37 26 -6 0 -13 -3 -16 -6z"/>
<path d="M1506 391 c13 -13 84 -24 84 -13 0 5 -14 12 -31 16 -45 9 -65 8 -53
-3z"/>
<path d="M1600 379 c0 -5 9 -9 20 -9 11 0 20 -5 20 -11 0 -6 -9 -9 -20 -6 -11
3 -20 2 -20 -2 0 -3 9 -12 20 -19 12 -7 20 -8 20 -2 0 5 10 10 21 10 18 0 20
-2 9 -16 -8 -9 -25 -14 -44 -12 l-31 3 -12 -70 c-6 -38 -14 -85 -16 -103 -8
-51 -78 -117 -141 -132 -28 -7 -26 -8 17 -9 26 -1 58 5 70 13 44 28 66 29 76
4 9 -22 10 -22 10 7 1 40 -13 60 -35 51 -16 -5 -15 -3 3 11 11 10 23 27 25 37
4 27 28 32 28 6 0 -13 4 -18 11 -14 6 3 8 17 5 31 -9 33 6 55 15 23 7 -25 7
-25 8 3 1 17 -4 27 -11 26 -7 -1 -24 -1 -38 0 -18 1 -21 4 -11 10 8 5 15 23
16 41 3 33 25 57 36 39 3 -6 11 -4 19 5 7 9 16 13 21 10 5 -3 9 2 9 10 0 8 -4
17 -9 20 -4 3 -6 16 -4 28 4 21 1 23 -41 24 -25 1 -46 -3 -46 -7z"/>
<path d="M1925 380 l-30 -8 27 -1 c15 0 30 4 33 9 3 6 5 9 3 9 -2 -1 -16 -5
-33 -9z"/>
<path d="M592 348 c-50 -38 -51 -45 -2 -152 l32 -69 33 38 c36 40 38 68 10
125 -7 14 -17 40 -22 58 l-8 33 -43 -33z m18 -38 c0 -5 7 -10 16 -10 10 0 14
-6 10 -15 -3 -10 1 -15 11 -15 13 0 14 -3 6 -11 -8 -8 -8 -20 -3 -34 9 -23 4
-35 -13 -35 -5 0 -7 9 -4 19 3 14 1 18 -9 14 -8 -3 -14 1 -14 11 0 9 -5 16
-11 16 -5 0 -8 4 -5 9 4 5 2 21 -4 35 -7 21 -6 26 5 26 8 0 15 -4 15 -10z"/>
<path d="M1320 371 c0 -10 24 -21 48 -21 13 0 12 3 -4 15 -21 16 -44 19 -44 6z"/>
<path d="M832 344 c-15 -10 -21 -22 -17 -34 3 -10 0 -22 -6 -26 -7 -4 -9 -3
-6 3 4 6 0 13 -8 17 -21 8 -68 -11 -63 -26 6 -16 29 -23 26 -7 -2 7 5 15 15
17 16 3 17 1 7 -17 -6 -12 -17 -22 -25 -22 -30 -3 -34 -4 -46 -16 -25 -25 1
-24 52 2 47 23 109 78 109 94 -1 23 -17 30 -38 15z"/>
<path d="M1210 274 c-22 -48 -39 -89 -36 -91 3 -3 0 -10 -5 -17 -22 -25 -96
-166 -88 -166 5 0 9 4 9 10 0 5 3 9 8 7 4 -1 9 3 10 8 11 29 25 45 40 45 11 0
13 3 5 8 -8 5 -3 24 17 64 16 31 39 84 51 118 21 58 43 84 32 38 -7 -29 9 -13
25 24 9 21 8 27 -4 32 -9 3 -17 6 -20 6 -2 0 -22 -39 -44 -86z"/>
<path d="M1520 350 c36 -12 62 -12 55 0 -3 6 -23 10 -43 9 -33 -1 -34 -2 -12
-9z"/>
<path d="M944 331 c7 -10 -22 -25 -41 -22 -23 3 -14 -16 10 -23 36 -10 50 -7
43 9 -3 8 4 21 17 30 21 15 21 15 -6 15 -16 0 -26 -4 -23 -9z"/>
<path d="M1305 328 c-31 -102 -32 -93 10 -101 27 -6 28 -5 8 5 -25 12 -33 44
-9 35 8 -3 13 1 12 11 0 9 6 17 14 17 26 0 30 19 7 32 -28 16 -37 16 -42 1z"/>
<path d="M1893 324 c-3 -8 -9 -11 -14 -8 -5 3 -9 1 -9 -4 0 -6 -12 -13 -27
-17 -16 -4 -23 -9 -17 -12 12 -4 152 32 162 42 3 3 -1 5 -9 6 -8 1 -29 2 -47
4 -21 2 -35 -2 -39 -11z"/>
<path d="M1490 320 c0 -6 4 -10 9 -10 5 0 7 -9 4 -20 -4 -16 -1 -20 18 -19 13
0 18 3 12 6 -7 2 -13 13 -13 23 0 10 -7 20 -15 24 -8 3 -15 1 -15 -4z"/>
<path d="M1530 310 c0 -5 7 -10 15 -10 8 0 15 5 15 10 0 6 -7 10 -15 10 -8 0
-15 -4 -15 -10z"/>
<path d="M2086 270 c-8 -23 -11 -119 -3 -126 1 -2 7 0 12 4 6 4 8 37 5 77 -4
56 -7 65 -14 45z"/>
<path d="M1797 253 c-2 -5 4 -24 14 -43 18 -34 18 -34 19 -8 0 44 -20 76 -33
51z"/>
<path d="M834 225 c-15 -11 -16 -15 -4 -15 8 -1 -5 -10 -29 -21 -36 -16 -41
-22 -31 -34 14 -17 35 -21 25 -5 -3 6 -3 10 2 11 45 4 68 11 84 25 19 17 27
50 10 39 -5 -3 -12 -1 -16 5 -8 14 -18 13 -41 -5z m51 -25 c-3 -5 -13 -10 -21
-10 -8 0 -12 5 -9 10 3 6 13 10 21 10 8 0 12 -4 9 -10z"/>
<path d="M1216 205 c-18 -43 -19 -45 -8 -45 10 0 36 70 29 77 -3 3 -13 -12
-21 -32z"/>
<path d="M1660 229 c0 -5 5 -7 10 -4 6 3 10 1 10 -6 0 -9 3 -9 14 0 11 9 15 9
19 -1 4 -8 6 -7 6 5 1 12 -7 17 -29 17 -16 0 -30 -5 -30 -11z"/>
<path d="M2015 183 c9 -70 14 -81 25 -63 5 9 5 17 -1 20 -5 4 -10 25 -11 48
-1 23 -5 42 -10 42 -5 0 -6 -21 -3 -47z"/>
<path d="M1260 189 c-7 -17 -28 -49 -47 -71 -18 -22 -33 -44 -33 -50 0 -14 58
30 71 55 7 12 26 34 43 49 33 28 33 32 0 42 -17 5 -24 0 -34 -25z"/>
<path d="M1993 185 c0 -22 2 -30 4 -17 2 12 2 30 0 40 -3 9 -5 -1 -4 -23z"/>
<path d="M1443 190 c-4 -15 -11 -18 -37 -14 -23 4 -27 3 -16 -5 17 -12 149
-45 155 -39 2 2 -4 12 -15 21 -11 9 -20 12 -20 7 0 -6 -4 -10 -10 -10 -5 0
-10 6 -10 14 0 9 -7 12 -20 9 -22 -6 -29 22 -7 30 9 4 9 6 -1 6 -8 1 -16 -8
-19 -19z"/>
<path d="M1690 172 c0 -21 2 -22 15 -12 8 7 13 16 10 20 -3 5 1 10 7 13 7 3 3
4 -9 4 -17 -1 -23 -7 -23 -25z"/>
<path d="M1083 179 c-23 -8 -32 -39 -13 -39 6 0 9 5 8 12 -2 6 5 14 15 16 9 2
17 -1 17 -7 0 -6 -5 -11 -11 -11 -5 0 -8 -4 -4 -9 3 -6 -3 -14 -12 -20 -10 -6
-15 -11 -11 -11 4 0 3 -12 -3 -26 -24 -66 16 -23 45 48 18 43 6 61 -31 47z"/>
<path d="M1943 160 c-7 -11 -13 -39 -12 -62 0 -24 3 -37 6 -30 2 6 9 12 14 12
4 0 6 -6 3 -14 -3 -8 -1 -17 5 -21 13 -7 14 39 3 98 -7 35 -8 36 -19 17z"/>
<path d="M693 146 c7 -13 15 -22 18 -20 4 2 12 -3 19 -11 7 -8 16 -13 20 -10
4 3 14 -3 21 -12 11 -13 11 -15 1 -9 -11 7 -11 4 0 -13 12 -19 13 -19 20 -3 6
16 7 16 7 0 1 -10 7 -18 15 -18 25 0 26 16 3 37 -21 18 -123 83 -131 83 -2 0
1 -11 7 -24z"/>
<path d="M1765 153 c-22 -8 -58 -23 -80 -33 -22 -10 -48 -20 -57 -24 -22 -7
-22 -15 -3 -41 15 -18 17 -19 75 -3 61 16 72 12 50 -22 -6 -9 -5 -17 3 -22 22
-14 24 -9 26 48 0 31 -2 54 -7 52 -31 -15 -125 -58 -127 -58 -2 0 -5 9 -8 20
-6 22 8 28 16 8 3 -8 6 -6 6 5 1 18 16 23 26 7 3 -5 21 2 41 15 19 13 48 26
63 30 16 3 32 13 35 21 7 17 -7 17 -59 -3z"/>
<path d="M1296 128 c-19 -27 -20 -39 -3 -32 8 3 13 -3 13 -15 0 -15 -4 -17
-13 -10 -18 15 -33 2 -33 -29 1 -23 2 -25 11 -10 5 10 15 18 21 18 9 0 9 -3 0
-12 -14 -14 -16 -28 -4 -28 8 0 27 40 47 103 12 34 11 37 -5 37 -11 0 -26 -10
-34 -22z"/>
<path d="M640 130 c0 -16 70 -118 85 -124 8 -3 19 2 25 10 10 11 9 14 -2 14
-8 0 -20 12 -26 26 -7 15 -17 22 -24 18 -7 -4 -8 -3 -4 5 4 6 -3 22 -16 36
-24 26 -38 31 -38 15z"/>
<path d="M1814 126 c-10 -8 -16 -17 -13 -20 3 -3 14 1 25 8 10 8 16 17 13 20
-3 3 -14 -1 -25 -8z"/>
<path d="M2093 114 c-7 -11 -28 -32 -47 -45 -26 -17 -36 -31 -35 -49 l1 -25 8
25 c7 21 8 22 9 5 1 -17 5 -16 30 12 32 37 43 34 34 -8 -4 -23 -2 -29 12 -29
11 0 15 5 12 14 -3 8 1 20 9 27 19 15 47 69 41 76 -3 2 -13 -11 -22 -31 -23
-47 -33 -45 -37 7 -3 38 -4 40 -15 21z"/>
<path d="M2190 99 c-13 -24 -4 -41 10 -19 10 16 13 40 5 40 -2 0 -9 -9 -15
-21z"/>
<path d="M1861 55 c-1 -33 2 -55 8 -55 6 0 11 5 11 11 0 5 5 7 10 4 6 -4 10
11 10 38 0 40 -10 57 -34 57 -1 0 -4 -25 -5 -55z"/>
<path d="M2334 79 c-9 -10 -9 -21 -1 -39 10 -25 10 -25 14 -2 3 12 3 30 1 39
-3 14 -5 14 -14 2z"/>
<path d="M1184 53 c-17 -8 -36 -23 -42 -34 -19 -30 17 -24 56 10 39 33 31 45
-14 24z"/>
<path d="M852 25 l-12 -25 63 0 62 0 -49 25 c-27 14 -50 25 -51 25 -1 0 -7
-11 -13 -25z"/>
<path d="M995 30 c-3 -5 3 -10 15 -10 12 0 18 5 15 10 -3 6 -10 10 -15 10 -5
0 -12 -4 -15 -10z"/>
</g>
</svg>
